<?xml version="1.0" encoding="UTF-8"?>
<svg width="309px" height="521px" viewBox="0 0 309 521" version="1.1" xmlns="http://www.w3.org/2000/svg" xmlns:xlink="http://www.w3.org/1999/xlink">
    <!-- Generator: Sketch 49.3 (51167) - http://www.bohemiancoding.com/sketch -->
    <title>confetti-left</title>
    <desc>Created with Sketch.</desc>
    <defs></defs>
    <g id="UI" stroke="none" stroke-width="1" fill="none" fill-rule="evenodd" opacity="0.396277176">
        <g id="home-desktop" transform="translate(-67.000000, -4556.000000)">
            <g id="screen5" transform="translate(0.000000, 4096.000000)">
                <g id="confetti-total" transform="translate(65.000000, 460.000000)">
                    <g id="confetti-left">
                        <path d="M201.551724,228.999682 L201.551724,231.965057 C201.551724,232.516201 201.976552,232.965693 202.5,232.965693 L206.103448,232.965693 L206.103448,235.999365 C206.103448,236.552097 206.526759,237 207.051724,237 C207.575172,237 208,236.552097 208,235.999365 L208,231.965057 C208,231.412325 207.575172,230.964422 207.051724,230.964422 L203.448276,230.964422 L203.448276,227.999047 C203.448276,227.446315 203.023448,227 202.5,227 L197.948276,227 C197.42331,227 197,227.446315 197,227.999047 C197,228.551779 197.42331,228.999682 197.948276,228.999682 L201.551724,228.999682 Z" id="confetti-piece-copy-2" fill="#00C7BC"></path>
                        <path d="M92.3809524,0 C88.1752381,0 84.7619048,3.41236529 84.7619048,7.62336926 L84.7619048,24.3947816 L68.2194286,24.3947816 C64.0015238,24.3947816 60.600381,27.8071469 60.600381,32.0181509 L60.600381,48.7653621 L43.6190476,48.7653621 C39.4133333,48.7653621 36,52.1777274 36,56.3766307 C36,60.5876347 39.4133333,64 43.6190476,64 L68.2194286,64 C72.4129524,64 75.8384762,60.5876347 75.8384762,56.3766307 L75.8384762,39.617319 L92.3809524,39.617319 C96.5866667,39.617319 100,36.2170543 100,32.0181509 L100,7.62336926 C100,3.41236529 96.5866667,0 92.3809524,0" id="confetti-piece" fill="#005BEA"></path>
                        <path d="M280.601227,519.441488 C283.229143,521.758745 287.196188,521.453843 289.471702,518.780867 C291.737146,516.107891 291.455224,512.052692 288.81724,509.755762 L262.397121,486.562868 C259.779274,484.245611 255.80216,484.54035 253.536716,487.213326 C251.261203,489.896465 251.543125,493.931337 254.181109,496.248594 L280.601227,519.441488 Z" id="confetti-piece" fill="#FEA200"></path>
                        <path d="M223.5,125.368328 C219.151852,125.368328 215.62963,121.846787 215.62963,117.498162 C215.62963,113.153213 219.151852,109.631672 223.5,109.631672 C227.848148,109.631672 231.37037,113.153213 231.37037,117.498162 C231.37037,121.846787 227.848148,125.368328 223.5,125.368328 M223.5,105 C216.596296,105 211,110.594765 211,117.498162 C211,124.401559 216.596296,130 223.5,130 C230.403704,130 236,124.401559 236,117.498162 C236,110.594765 230.403704,105 223.5,105" id="confetti-piece" fill="#FFB199"></path>
                        <path d="M119.5,242 C121.432,242 123,243.567527 123,245.5 C123,247.432473 121.432,249 119.5,249 C117.568,249 116,247.432473 116,245.5 C116,243.567527 117.568,242 119.5,242" id="confetti-piece" fill="#FF0844"></path>
                        <path d="M218.5,333 C219.88,333 221,334.34127 221,336 C221,337.654762 219.88,339 218.5,339 C217.12,339 216,337.654762 216,336 C216,334.34127 217.12,333 218.5,333" id="confetti-piece" fill="#009FF5"></path>
                        <path d="M100,419 C112.696,419 123,429.285147 123,442 C123,454.696585 112.696,465 100,465 C87.304,465 77,454.696585 77,442 C77,429.285147 87.304,419 100,419" id="confetti-piece" fill="#009FF5"></path>
                        <path d="M45.5,204.477217 C42.7495238,204.477217 40.5238095,202.249953 40.5238095,199.501796 C40.5238095,196.75364 42.7495238,194.522783 45.5,194.522783 C48.2504762,194.522783 50.4761905,196.75364 50.4761905,199.501796 C50.4761905,202.249953 48.2504762,204.477217 45.5,204.477217 M45.5,190 C40.252381,190 36,194.253356 36,199.501796 C36,204.746644 40.252381,209 45.5,209 C50.747619,209 55,204.746644 55,199.501796 C55,194.253356 50.747619,190 45.5,190" id="confetti-piece" fill="#00C7BC"></path>
                        <path d="M310.843159,292.096436 C311.306371,290.924911 310.708678,289.605137 309.509556,289.15316 C308.302963,288.701183 306.950683,289.28333 306.487471,290.454855 L301.156796,303.902084 C300.693584,305.073609 301.291277,306.393383 302.494134,306.84536 C303.696991,307.300953 305.049272,306.715191 305.512484,305.543666 L310.843159,292.096436 Z" id="confetti-piece" fill="#005BEA"></path>
                        <path d="M14.0098657,321.105182 C7.79724252,320.609491 2.34313728,325.002339 1.8193987,330.93354 C1.29566012,336.847647 5.90094765,342.06095 12.1316308,342.556641 L55.5477533,346.026479 C61.7603765,346.539263 67.2144817,342.129321 67.7382203,336.215214 C68.2619589,330.301106 63.6566713,325.087803 57.4259882,324.592112 L14.0098657,321.105182 Z" id="confetti-piece" fill="#FD6C00" transform="translate(34.778809, 333.567037) rotate(11.000000) translate(-34.778809, -333.567037) "></path>
                    </g>
                </g>
            </g>
        </g>
    </g>
</svg>