<?xml version="1.0" encoding="UTF-8"?>
<svg width="265px" height="331px" viewBox="0 0 265 331" version="1.1" xmlns="http://www.w3.org/2000/svg" xmlns:xlink="http://www.w3.org/1999/xlink">
    <!-- Generator: Sketch 49.3 (51167) - http://www.bohemiancoding.com/sketch -->
    <title>confetti-right</title>
    <desc>Created with Sketch.</desc>
    <defs></defs>
    <g id="UI" stroke="none" stroke-width="1" fill="none" fill-rule="evenodd" opacity="0.396277176">
        <g id="home-desktop" transform="translate(-1081.000000, -4607.000000)">
            <g id="screen5" transform="translate(0.000000, 4096.000000)">
                <g id="confetti-total" transform="translate(65.000000, 460.000000)">
                    <g id="confetti-right" transform="translate(1012.000000, 51.000000)">
                        <path d="M66.0344828,125.197903 L66.0344828,144.769377 C66.0344828,148.406925 68.9310345,151.373571 72.5,151.373571 L97.0689655,151.373571 L97.0689655,171.395807 C97.0689655,175.043837 99.9551724,178 103.534483,178 C107.103448,178 110,175.043837 110,171.395807 L110,144.769377 C110,141.121347 107.103448,138.165184 103.534483,138.165184 L78.9655172,138.165184 L78.9655172,118.59371 C78.9655172,114.94568 76.0689655,112 72.5,112 L41.4655172,112 C37.8862069,112 35,114.94568 35,118.59371 C35,122.241741 37.8862069,125.197903 41.4655172,125.197903 L66.0344828,125.197903 Z" id="confetti-piece" fill="#FD6C00"></path>
                        <path d="M215.5,269 C220.192,269 224,272.800265 224,277.5 C224,282.188492 220.192,286 215.5,286 C210.808,286 207,282.188492 207,277.5 C207,272.800265 210.808,269 215.5,269 Z M267.731848,217.023863 C269.918527,213.889562 269.207856,209.536981 266.135571,207.299777 C263.07422,205.062572 258.799261,205.782465 256.601648,208.927841 L229.268152,247.968164 C227.081473,251.102465 227.792144,255.466121 230.864429,257.703325 C233.92578,259.940529 238.200739,259.209562 240.398352,256.07526 L267.731848,217.023863 Z" id="confetti-piece" fill="#FED700"></path>
                        <path d="M112.5,216 C113.88,216 115,217.34127 115,219 C115,220.654762 113.88,222 112.5,222 C111.12,222 110,220.654762 110,219 C110,217.34127 111.12,216 112.5,216" id="confetti-piece-copy-5" fill="#009FF5"></path>
                        <path d="M235.5,318 C236.88,318 238,319.34127 238,321 C238,322.654762 236.88,324 235.5,324 C234.12,324 233,322.654762 233,321 C233,319.34127 234.12,318 235.5,318" id="confetti-piece-copy-6" fill="#00C7BC"></path>
                        <path d="M63.5,263.477217 C60.7495238,263.477217 58.5238095,261.249953 58.5238095,258.501796 C58.5238095,255.75364 60.7495238,253.522783 63.5,253.522783 C66.2504762,253.522783 68.4761905,255.75364 68.4761905,258.501796 C68.4761905,261.249953 66.2504762,263.477217 63.5,263.477217 M63.5,249 C58.252381,249 54,253.253356 54,258.501796 C54,263.746644 58.252381,268 63.5,268 C68.747619,268 73,263.746644 73,258.501796 C73,253.253356 68.747619,249 63.5,249" id="confetti-piece-copy-4" fill="#FF0844"></path>
                        <path d="M132.5,51 C122.827273,51 115,43.1688921 115,33.5063154 C115,23.8437387 122.827273,16 132.5,16 C142.172727,16 150,23.8437387 150,33.5063154 C150,43.1688921 142.172727,51 132.5,51 M132,0 C113.771429,0 99,14.7748157 99,33.0062394 C99,51.2251843 113.771429,66 132,66 C150.228571,66 165,51.2251843 165,33.0062394 C165,14.7748157 150.228571,0 132,0" id="confetti-piece-copy" fill="#00C7BC"></path>
                        <path d="M14.9840743,188.64605 C15.4472864,187.474525 14.8495933,186.154751 13.6504717,185.702773 C12.4438789,185.250796 11.0915984,185.832943 10.6283863,187.004468 L5.29771169,200.451697 C4.8344996,201.623223 5.43219262,202.942996 6.63504983,203.394974 C7.83790704,203.850567 9.19018751,203.264804 9.6533996,202.093279 L14.9840743,188.64605 Z" id="confetti-piece-copy-7" fill="#FED700" transform="translate(10.140916, 194.549613) rotate(-51.000000) translate(-10.140916, -194.549613) "></path>
                        <path d="M41.5096474,305.126701 C42.2657053,303.214529 41.2901467,301.060386 39.3329324,300.322665 C37.3635235,299.584945 35.1563223,300.535129 34.4002644,302.4473 L25.6995015,324.395958 C24.9434437,326.308129 25.9190022,328.462272 27.8823138,329.199993 C29.8456254,329.943615 32.0528266,328.987529 32.8088845,327.075358 L41.5096474,305.126701 Z" id="confetti-piece-copy-8" fill="#00C6FB" transform="translate(33.604611, 314.762537) rotate(-25.000000) translate(-33.604611, -314.762537) "></path>
                        <path d="M77.1617288,313.37781 C75.7596719,313.265943 74.5287963,314.257315 74.4105996,315.595861 C74.2924029,316.930549 75.3317184,318.107081 76.7378512,318.218948 L86.535947,319.002017 C87.9380039,319.117741 89.1688795,318.122511 89.2870762,316.787823 C89.4052729,315.453134 88.3659574,314.276603 86.9598247,314.164736 L77.1617288,313.37781 Z" id="confetti-piece-copy-3" fill="#00E29C" transform="translate(81.848838, 316.190185) rotate(11.000000) translate(-81.848838, -316.190185) "></path>
                    </g>
                </g>
            </g>
        </g>
    </g>
</svg>