<?xml version="1.0" encoding="UTF-8"?>
<svg width="750px" height="626px" viewBox="0 0 750 626" version="1.1" xmlns="http://www.w3.org/2000/svg" xmlns:xlink="http://www.w3.org/1999/xlink">
    <!-- Generator: Sketch 49.3 (51167) - http://www.bohemiancoding.com/sketch -->
    <title>illustrations</title>
    <desc>Created with Sketch.</desc>
    <defs>
        <path d="M86.8891037,74.7345053 L83.5226406,71.3637402 C82.9567532,70.7974311 82.6452059,70.0445882 82.6452059,69.2437574 L82.6452059,62.3567155 C82.6452059,61.5558847 82.9567532,60.8030418 83.5226406,60.2367327 L86.8891037,56.8659676 C88.7313301,55.0217864 88.7318455,52.0362148 86.8893614,50.1915175 L85.8135053,49.1141111 C83.9756597,47.2740578 80.9851664,47.2737998 79.1468054,49.1141111 L75.7800845,52.4851341 C75.2144548,53.0511853 74.4625152,53.3631068 73.6626452,53.3631068 L66.7838663,53.3631068 C65.9839963,53.3631068 65.2320566,53.0511853 64.6664269,52.4851341 L61.2994484,49.1143691 C59.4618604,47.2740578 56.4711094,47.2740578 54.6332638,49.1143691 L53.5574077,50.1912595 C51.7195621,52.0313128 51.7195621,55.0253984 53.5574077,56.8657096 L56.9241286,60.2364747 C57.4895006,60.8025258 57.8010479,61.5556267 57.8010479,62.3564575 L57.8010479,69.2434994 C57.8010479,70.0443302 57.4895006,70.7971731 56.9243863,71.3634822 L53.5574077,74.7342473 C51.7195621,76.5743006 51.7195621,79.5686441 53.5574077,81.4089554 L54.6332638,82.4858458 C56.4713671,84.3261571 59.4618604,84.3258991 61.2997061,82.4858458 L64.6666846,79.1150808 C65.2323143,78.5490296 65.984254,78.2371081 66.784124,78.2371081 L73.6629029,78.2371081 C74.4627729,78.2371081 75.2144548,78.5490296 75.7803422,79.1150808 L79.1470631,82.4858458 C80.9849087,84.3261571 83.975402,84.3264151 85.8135053,82.4858458 L86.8896191,81.4089554 C88.7313301,79.5645161 88.7315878,76.5792025 86.8891037,74.7345053 Z" id="path-1"></path>
        <path d="M81.0302473,74.3410346 L29.5020585,74.3410346 C16.7035486,74.3410346 6.29746835,63.9213769 6.29746835,51.1105819 C6.29746835,42.6030422 11.0190567,34.7467311 18.4415202,30.7225737 C18.4296569,30.4375375 18.4217481,30.1485424 18.4217481,29.867465 C18.4217481,15.386041 30.1901292,3.6025641 44.6593853,3.6025641 C54.4999822,3.6025641 63.3697668,9.04002607 67.8877021,17.6544544 C69.9993672,16.4094003 72.4412272,15.7403569 74.9661302,15.7403569 C82.7484467,15.7403569 89.081465,22.0804336 89.081465,29.867465 C89.081465,31.7103034 88.7176575,33.5194917 88.0236552,35.2019973 C95.8969236,38.1117421 101.203767,45.5761284 101.203767,54.1430506 C101.203767,65.2812372 92.1520792,74.3410346 81.0302473,74.3410346" id="path-2"></path>
    </defs>
    <g id="UI" stroke="none" stroke-width="1" fill="none" fill-rule="evenodd">
        <g id="home-mobile" transform="translate(0.000000, -4288.000000)">
            <g id="screen3" transform="translate(-14.000000, 3862.000000)">
                <g id="illustrations" transform="translate(0.000000, 424.000000)">
                    <g id="drone" transform="translate(0.000000, 125.000000)">
                        <g id="drone-fill" opacity="0.5" transform="translate(92.215929, 86.060014) rotate(18.000000) translate(-92.215929, -86.060014) translate(21.215929, 20.560014)">
                            <path d="M95.7631602,65.9477669 C95.7631602,79.4888238 84.7978974,90.4660466 71.2721769,90.4660466 C57.7461953,90.4660466 46.7811935,79.4888238 46.7811935,65.9477669 C46.7811935,52.40671 57.7461953,41.4294872 71.2721769,41.4294872 C84.7978974,41.4294872 95.7631602,52.40671 95.7631602,65.9477669 Z" id="Stroke-1" stroke="#FFFFFF" stroke-width="8.1" fill="#FF82C7" stroke-linecap="round" stroke-linejoin="round"></path>
                            <path d="M59.2939597,29.6800228 C59.2939597,46.0717754 46.0207431,59.3600456 29.6469799,59.3600456 C13.2734764,59.3600456 -2.27373675e-13,46.0717754 -2.27373675e-13,29.6800228 C-2.27373675e-13,13.2882703 13.2734764,-4.54747351e-13 29.6469799,-4.54747351e-13 C46.0207431,-4.54747351e-13 59.2939597,13.2882703 59.2939597,29.6800228 Z" id="Stroke-3" stroke="#FFFFFF" stroke-width="8.1" fill="#FF82C7" stroke-linecap="round" stroke-linejoin="round"></path>
                            <path d="M18.8924051,40.5288462 L27.9555547,31.455672 M31.4421553,27.965032 L40.4837251,18.9134615" id="Stroke-5" stroke="#FFFFFF" stroke-width="7.2" fill="#FF82C7" stroke-linecap="round" stroke-linejoin="round"></path>
                            <path d="M32.5345074,30.2453202 C32.5345074,32.0272337 31.0917279,33.4714096 29.3118734,33.4714096 C27.5322912,33.4714096 26.0895118,32.0272337 26.0895118,30.2453202 C26.0895118,28.4636793 27.5322912,27.0192308 29.3118734,27.0192308 C31.0917279,27.0192308 32.5345074,28.4636793 32.5345074,30.2453202 Z" id="Stroke-7" stroke="#FFFFFF" stroke-width="8.1" fill="#FF82C7" stroke-linecap="round" stroke-linejoin="round"></path>
                            <path d="M141.161048,29.6800228 C141.161048,46.0717754 127.887572,59.3600456 111.514068,59.3600456 C95.1403053,59.3600456 81.8670886,46.0717754 81.8670886,29.6800228 C81.8670886,13.2882703 95.1403053,-4.54747351e-13 111.514068,-4.54747351e-13 C127.887572,-4.54747351e-13 141.161048,13.2882703 141.161048,29.6800228 Z" id="Stroke-9" stroke="#FFFFFF" stroke-width="8.1" fill="#FF82C7" stroke-linecap="round" stroke-linejoin="round"></path>
                            <path d="M100.759494,40.5288462 L109.822826,31.455672 M113.309427,27.965032 L122.350814,18.9134615" id="Stroke-11" stroke="#FFFFFF" stroke-width="7.2" fill="#FF82C7" stroke-linecap="round" stroke-linejoin="round"></path>
                            <path d="M114.401596,30.2453202 C114.401596,32.0272337 112.958817,33.4714096 111.179234,33.4714096 C109.39938,33.4714096 107.9566,32.0272337 107.9566,30.2453202 C107.9566,28.4636793 109.39938,27.0192308 111.179234,27.0192308 C112.958817,27.0192308 114.401596,28.4636793 114.401596,30.2453202 Z" id="Stroke-13" stroke="#FFFFFF" stroke-width="8.1" fill="#FF82C7" stroke-linecap="round" stroke-linejoin="round"></path>
                            <path d="M59.2939597,100.830794 C59.2939597,117.222618 46.0207431,130.510687 29.6469799,130.510687 C13.2734764,130.510687 -2.27373675e-13,117.222618 -2.27373675e-13,100.830794 C-2.27373675e-13,84.4387095 13.2734764,71.150641 29.6469799,71.150641 C46.0207431,71.150641 59.2939597,84.4387095 59.2939597,100.830794 Z" id="Stroke-15" stroke="#FFFFFF" stroke-width="8.1" fill="#FF82C7" stroke-linecap="round" stroke-linejoin="round"></path>
                            <path d="M18.8924051,111.679487 L27.9555547,102.606236 M31.4421553,99.1157497 L40.4837251,90.0641026" id="Stroke-17" stroke="#FFFFFF" stroke-width="7.2" fill="#FF82C7" stroke-linecap="round" stroke-linejoin="round"></path>
                            <path d="M32.5345074,101.396098 C32.5345074,103.177663 31.0917279,104.622051 29.3118734,104.622051 C27.5322912,104.622051 26.0895118,103.177663 26.0895118,101.396098 C26.0895118,99.6142593 27.5322912,98.1698718 29.3118734,98.1698718 C31.0917279,98.1698718 32.5345074,99.6142593 32.5345074,101.396098 Z" id="Stroke-19" stroke="#FFFFFF" stroke-width="8.1" fill="#FF82C7" stroke-linecap="round" stroke-linejoin="round"></path>
                            <path d="M141.161048,100.830794 C141.161048,117.222618 127.887572,130.510687 111.514068,130.510687 C95.1403053,130.510687 81.8670886,117.222618 81.8670886,100.830794 C81.8670886,84.4387095 95.1403053,71.150641 111.514068,71.150641 C127.887572,71.150641 141.161048,84.4387095 141.161048,100.830794 Z" id="Stroke-21" stroke="#FFFFFF" stroke-width="8.1" fill="#FF82C7" stroke-linecap="round" stroke-linejoin="round"></path>
                            <path d="M100.759494,111.679487 L109.822749,102.606236 M113.30932,99.1157497 L122.350814,90.0641026" id="Stroke-23" stroke="#FFFFFF" stroke-width="7.2" fill="#FF82C7" stroke-linecap="round" stroke-linejoin="round"></path>
                            <path d="M114.401596,101.396098 C114.401596,103.177663 112.958756,104.622051 111.179098,104.622051 C109.399441,104.622051 107.9566,103.177663 107.9566,101.396098 C107.9566,99.6142593 109.399441,98.1698718 111.179098,98.1698718 C112.958756,98.1698718 114.401596,99.6142593 114.401596,101.396098 Z" id="Stroke-25" stroke="#FFFFFF" stroke-width="8.1" fill="#FF82C7" stroke-linecap="round" stroke-linejoin="round"></path>
                            <g id="Stroke-27">
                                <use fill="#FF82C7" fill-rule="evenodd" xlink:href="#path-1"></use>
                                <path stroke="#FFFFFF" stroke-width="8.1" d="M84.0236028,77.5965682 L84.0234933,77.5964586 L80.6577915,74.2264557 C79.3329541,72.9006309 78.5952059,71.1180789 78.5952059,69.2437574 L78.5952059,62.3567155 C78.5952059,60.482394 79.3329541,58.699842 80.6570301,57.3747794 L84.023803,54.0037043 C84.2867044,53.7405238 84.2867384,53.3167741 84.0235178,53.0532373 L82.9480044,51.976174 C82.6920179,51.71988 82.2683401,51.7198687 82.0124158,51.9760644 L78.6449333,55.3478499 C77.319832,56.6739385 75.5373593,57.4131068 73.6626452,57.4131068 L66.7838663,57.4131068 C64.9091522,57.4131068 63.1266795,56.6739385 61.8010355,55.3473067 L58.4335462,51.9760302 C58.1780319,51.7201373 57.7547161,51.7201373 57.4984219,51.9767752 L56.4229087,53.0533224 C56.1643617,53.31218 56.1643617,53.7447528 56.4229087,54.0036467 L59.7896295,57.3744117 C61.1136739,58.7000465 61.8510479,60.482627 61.8510479,62.3564575 L61.8510479,69.2434994 C61.8510479,71.11678 61.1141165,72.8985167 59.7897777,74.2256549 L56.4229087,77.5963102 C56.1643617,77.8551678 56.1643617,78.2879986 56.4225658,78.5465493 L57.4987647,79.6237829 C57.7547292,79.8800548 58.178252,79.8800434 58.4343147,79.6236732 L61.8018358,76.252365 C63.1269372,74.9262764 64.9094099,74.1871081 66.784124,74.1871081 L73.6629029,74.1871081 C75.5374148,74.1871081 77.3193153,74.9261055 78.6458432,76.2530178 L82.0127646,79.6239838 C82.268672,79.8802345 82.6918851,79.8802458 82.94869,79.6230966 L84.0237178,78.5472934 C84.2866983,78.2839233 84.286687,77.8599684 84.0236028,77.5965682 Z"></path>
                            </g>
                        </g>
                        <g id="drone-stroke" transform="translate(88.617376, 84.258731) rotate(18.000000) translate(-88.617376, -84.258731) translate(17.617376, 18.758731)" stroke="#FF0890">
                            <path d="M95.7631602,65.9477669 C95.7631602,79.4888238 84.7978974,90.4660466 71.2721769,90.4660466 C57.7461953,90.4660466 46.7811935,79.4888238 46.7811935,65.9477669 C46.7811935,52.40671 57.7461953,41.4294872 71.2721769,41.4294872 C84.7978974,41.4294872 95.7631602,52.40671 95.7631602,65.9477669 Z" id="Stroke-1" stroke-width="8.1" stroke-linecap="round" stroke-linejoin="round"></path>
                            <path d="M59.2939597,29.6800228 C59.2939597,46.0717754 46.0207431,59.3600456 29.6469799,59.3600456 C13.2734764,59.3600456 -2.27373675e-13,46.0717754 -2.27373675e-13,29.6800228 C-2.27373675e-13,13.2882703 13.2734764,-4.54747351e-13 29.6469799,-4.54747351e-13 C46.0207431,-4.54747351e-13 59.2939597,13.2882703 59.2939597,29.6800228 Z" id="Stroke-3" stroke-width="8.1" stroke-linecap="round" stroke-linejoin="round"></path>
                            <path d="M18.8924051,40.5288462 L27.9555547,31.455672 M31.4421553,27.965032 L40.4837251,18.9134615" id="Stroke-5" stroke-width="7.2" stroke-linecap="round" stroke-linejoin="round"></path>
                            <path d="M32.5345074,30.2453202 C32.5345074,32.0272337 31.0917279,33.4714096 29.3118734,33.4714096 C27.5322912,33.4714096 26.0895118,32.0272337 26.0895118,30.2453202 C26.0895118,28.4636793 27.5322912,27.0192308 29.3118734,27.0192308 C31.0917279,27.0192308 32.5345074,28.4636793 32.5345074,30.2453202 Z" id="Stroke-7" stroke-width="8.1" stroke-linecap="round" stroke-linejoin="round"></path>
                            <path d="M141.161048,29.6800228 C141.161048,46.0717754 127.887572,59.3600456 111.514068,59.3600456 C95.1403053,59.3600456 81.8670886,46.0717754 81.8670886,29.6800228 C81.8670886,13.2882703 95.1403053,-4.54747351e-13 111.514068,-4.54747351e-13 C127.887572,-4.54747351e-13 141.161048,13.2882703 141.161048,29.6800228 Z" id="Stroke-9" stroke-width="8.1" stroke-linecap="round" stroke-linejoin="round"></path>
                            <path d="M100.759494,40.5288462 L109.822826,31.455672 M113.309427,27.965032 L122.350814,18.9134615" id="Stroke-11" stroke-width="7.2" stroke-linecap="round" stroke-linejoin="round"></path>
                            <path d="M114.401596,30.2453202 C114.401596,32.0272337 112.958817,33.4714096 111.179234,33.4714096 C109.39938,33.4714096 107.9566,32.0272337 107.9566,30.2453202 C107.9566,28.4636793 109.39938,27.0192308 111.179234,27.0192308 C112.958817,27.0192308 114.401596,28.4636793 114.401596,30.2453202 Z" id="Stroke-13" stroke-width="8.1" stroke-linecap="round" stroke-linejoin="round"></path>
                            <path d="M59.2939597,100.830794 C59.2939597,117.222618 46.0207431,130.510687 29.6469799,130.510687 C13.2734764,130.510687 -2.27373675e-13,117.222618 -2.27373675e-13,100.830794 C-2.27373675e-13,84.4387095 13.2734764,71.150641 29.6469799,71.150641 C46.0207431,71.150641 59.2939597,84.4387095 59.2939597,100.830794 Z" id="Stroke-15" stroke-width="8.1" stroke-linecap="round" stroke-linejoin="round"></path>
                            <path d="M18.8924051,111.679487 L27.9555547,102.606236 M31.4421553,99.1157497 L40.4837251,90.0641026" id="Stroke-17" stroke-width="7.2" stroke-linecap="round" stroke-linejoin="round"></path>
                            <path d="M32.5345074,101.396098 C32.5345074,103.177663 31.0917279,104.622051 29.3118734,104.622051 C27.5322912,104.622051 26.0895118,103.177663 26.0895118,101.396098 C26.0895118,99.6142593 27.5322912,98.1698718 29.3118734,98.1698718 C31.0917279,98.1698718 32.5345074,99.6142593 32.5345074,101.396098 Z" id="Stroke-19" stroke-width="8.1" stroke-linecap="round" stroke-linejoin="round"></path>
                            <path d="M141.161048,100.830794 C141.161048,117.222618 127.887572,130.510687 111.514068,130.510687 C95.1403053,130.510687 81.8670886,117.222618 81.8670886,100.830794 C81.8670886,84.4387095 95.1403053,71.150641 111.514068,71.150641 C127.887572,71.150641 141.161048,84.4387095 141.161048,100.830794 Z" id="Stroke-21" stroke-width="8.1" stroke-linecap="round" stroke-linejoin="round"></path>
                            <path d="M100.759494,111.679487 L109.822749,102.606236 M113.30932,99.1157497 L122.350814,90.0641026" id="Stroke-23" stroke-width="7.2" stroke-linecap="round" stroke-linejoin="round"></path>
                            <path d="M114.401596,101.396098 C114.401596,103.177663 112.958756,104.622051 111.179098,104.622051 C109.399441,104.622051 107.9566,103.177663 107.9566,101.396098 C107.9566,99.6142593 109.399441,98.1698718 111.179098,98.1698718 C112.958756,98.1698718 114.401596,99.6142593 114.401596,101.396098 Z" id="Stroke-25" stroke-width="8.1" stroke-linecap="round" stroke-linejoin="round"></path>
                            <path d="M84.0236028,77.5965682 L84.0234933,77.5964586 L80.6577915,74.2264557 C79.3329541,72.9006309 78.5952059,71.1180789 78.5952059,69.2437574 L78.5952059,62.3567155 C78.5952059,60.482394 79.3329541,58.699842 80.6570301,57.3747794 L84.023803,54.0037043 C84.2867044,53.7405238 84.2867384,53.3167741 84.0235178,53.0532373 L82.9480044,51.976174 C82.6920179,51.71988 82.2683401,51.7198687 82.0124158,51.9760644 L78.6449333,55.3478499 C77.319832,56.6739385 75.5373593,57.4131068 73.6626452,57.4131068 L66.7838663,57.4131068 C64.9091522,57.4131068 63.1266795,56.6739385 61.8010355,55.3473067 L58.4335462,51.9760302 C58.1780319,51.7201373 57.7547161,51.7201373 57.4984219,51.9767752 L56.4229087,53.0533224 C56.1643617,53.31218 56.1643617,53.7447528 56.4229087,54.0036467 L59.7896295,57.3744117 C61.1136739,58.7000465 61.8510479,60.482627 61.8510479,62.3564575 L61.8510479,69.2434994 C61.8510479,71.11678 61.1141165,72.8985167 59.7897777,74.2256549 L56.4229087,77.5963102 C56.1643617,77.8551678 56.1643617,78.2879986 56.4225658,78.5465493 L57.4987647,79.6237829 C57.7547292,79.8800548 58.178252,79.8800434 58.4343147,79.6236732 L61.8018358,76.252365 C63.1269372,74.9262764 64.9094099,74.1871081 66.784124,74.1871081 L73.6629029,74.1871081 C75.5374148,74.1871081 77.3193153,74.9261055 78.6458432,76.2530178 L82.0127646,79.6239838 C82.268672,79.8802345 82.6918851,79.8802458 82.94869,79.6230966 L84.0237178,78.5472934 C84.2866983,78.2839233 84.286687,77.8599684 84.0236028,77.5965682 Z M86.3878562,63.0990811 L86.3874896,63.0994481 C86.387612,63.0993257 86.3877343,63.0992032 86.3878566,63.0990807 Z M86.388616,68.5021524 C86.3884944,68.5020306 86.3883727,68.5019087 86.388251,68.5017869 L86.388616,68.5021524 Z" id="Stroke-27" stroke-width="8.1"></path>
                        </g>
                    </g>
                    <g id="bike" transform="translate(134.461716, 482.850369) rotate(-13.000000) translate(-134.461716, -482.850369) translate(57.961716, 429.850369)" stroke-linecap="round" stroke-linejoin="round" stroke-width="8.1">
                        <g id="bike-fill" opacity="0.5" transform="translate(3.101573, 2.565516)" stroke="#FFFFFF">
                            <path d="M61.2215222,71.6460818 C61.2215222,88.5578096 47.529085,102.267877 30.6353432,102.267877 C13.7416014,102.267877 0.0461153446,88.5578096 0.0461153446,71.6460818 C0.0461153446,54.7343539 13.7416014,41.0242869 30.6353432,41.0242869 C47.529085,41.0242869 61.2215222,54.7343539 61.2215222,71.6460818 Z" id="Stroke-1" fill="#00C6FB"></path>
                            <path d="M148.440325,72.0512821 C148.440325,88.9630099 134.747888,102.673077 117.851098,102.673077 C100.963454,102.673077 87.2649186,88.9630099 87.2649186,72.0512821 C87.2649186,55.1395542 100.963454,41.4294872 117.851098,41.4294872 C134.747888,41.4294872 148.440325,55.1395542 148.440325,72.0512821 Z" id="Stroke-3" fill="#00C6FB"></path>
                            <path d="M117.852622,72.9519231 C117.852622,72.9519231 104.624304,54.5419808 103.458409,7.20512821" id="Stroke-5"></path>
                            <path d="M32.0586121,32.4230769 L30.5877034,72.0512821" id="Stroke-7"></path>
                            <path d="M103.458409,24.3173077 L27.8887884,27.9055189 C27.8887884,27.9055189 48.9904056,27.2700547 64.1184573,45.569458 C72.1478406,55.2820717 72.8550239,64.2266699 72.9221062,67.9395007 L97.0224843,24.6274751 L103.458409,24.3173077 Z" id="Stroke-9"></path>
                            <path d="M22.4008184,19.906436 L43.0925002,19.906436" id="Stroke-11"></path>
                            <polyline id="Stroke-13" points="85.465642 4.54747351e-13 99.3094911 4.54747351e-13 108.856239 13.5096154 93.758561 13.5096154"></polyline>
                        </g>
                        <g id="bike-stroke" transform="translate(0.000000, -0.000000)" stroke="#005BEA">
                            <path d="M61.2215222,71.6460818 C61.2215222,88.5578096 47.529085,102.267877 30.6353432,102.267877 C13.7416014,102.267877 0.0461153446,88.5578096 0.0461153446,71.6460818 C0.0461153446,54.7343539 13.7416014,41.0242869 30.6353432,41.0242869 C47.529085,41.0242869 61.2215222,54.7343539 61.2215222,71.6460818 Z" id="Stroke-1"></path>
                            <path d="M148.440325,72.0512821 C148.440325,88.9630099 134.747888,102.673077 117.851098,102.673077 C100.963454,102.673077 87.2649186,88.9630099 87.2649186,72.0512821 C87.2649186,55.1395542 100.963454,41.4294872 117.851098,41.4294872 C134.747888,41.4294872 148.440325,55.1395542 148.440325,72.0512821 Z" id="Stroke-3"></path>
                            <path d="M117.852622,72.9519231 C117.852622,72.9519231 104.624304,54.5419808 103.458409,7.20512821" id="Stroke-5"></path>
                            <path d="M32.0586121,32.4230769 L30.5877034,72.0512821" id="Stroke-7"></path>
                            <path d="M103.458409,24.3173077 L27.8887884,27.9055189 C27.8887884,27.9055189 48.9904056,27.2700547 64.1184573,45.569458 C72.1478406,55.2820717 72.8550239,64.2266699 72.9221062,67.9395007 L97.0224843,24.6274751 L103.458409,24.3173077 Z" id="Stroke-9"></path>
                            <path d="M22.4008184,19.906436 L43.0925002,19.906436" id="Stroke-11"></path>
                            <polyline id="Stroke-13" points="85.465642 4.54747351e-13 99.3094911 4.54747351e-13 108.856239 13.5096154 93.758561 13.5096154"></polyline>
                        </g>
                    </g>
                    <g id="dress" transform="translate(345.539105, 369.539105) rotate(-225.000000) translate(-345.539105, -369.539105) translate(299.039105, 312.039105)" stroke-linejoin="round" stroke-width="8.1">
                        <path d="M87.0605889,16.7146576 L68.9392386,1.92635263 C67.618273,0.850003213 66.2927128,0.555617048 65.1026951,0.728108942 C62.8673917,9.17561193 55.0955194,15.4428174 45.7706512,15.4428174 C36.4503776,15.4428174 28.676208,9.17561193 26.4432019,0.728108942 C25.2600762,0.555617048 23.9322186,0.850003213 22.6204424,1.92175284 L4.48301077,16.7215573 C1.41377598,19.21694 -0.219626664,24.3502988 0.860119107,28.1129219 L2.80136416,34.9114024 C3.88110993,38.6740256 7.74522139,40.451842 11.3910864,38.8626167 L20.7343333,34.3962266 C24.3779009,32.8093012 31.0585407,53.0943479 30.4428559,56.9627661 L15.6503388,104.055353 C15.034654,107.919171 17.800641,111.076923 21.7888084,111.076923 L38.0148603,111.076923 L45.7706512,111.076923 L53.5310367,111.076923 L69.7547913,111.076923 C73.745256,111.076923 76.511243,107.919171 75.8955582,104.055353 L61.1168251,56.9627661 C60.5011403,53.0943479 67.1656988,32.8093012 70.8092664,34.3962266 L80.157108,38.8626167 C83.8006756,40.451842 87.6670844,38.6740256 88.7445328,34.9114024 L90.6834806,28.1129219 C91.7632263,24.3502988 90.1344184,19.21694 87.0605889,16.7146576 Z" id="dress-fill" stroke="#FFFFFF" fill="#FED700" opacity="0.5"></path>
                        <path d="M88.3328696,20.5357539 L70.2115194,5.74744889 C68.8905538,4.67109947 67.5649935,4.37671331 66.3749759,4.5492052 C64.1396724,12.9967082 56.3678002,19.2639136 47.0429319,19.2639136 C37.7226583,19.2639136 29.9484888,12.9967082 27.7154826,4.5492052 C26.5323569,4.37671331 25.2044994,4.67109947 23.8927231,5.7428491 L5.7552915,20.5426536 C2.68605672,23.0380363 1.05265407,28.171395 2.13239984,31.9340182 L4.0736449,38.7324987 C5.15339067,42.4951218 9.01750213,44.2729383 12.6633671,42.683713 L22.006614,38.2173229 C25.6501817,36.6303975 32.3308215,56.9154441 31.7151366,60.7838623 L16.9226196,107.876449 C16.3069347,111.740267 19.0729218,114.898019 23.0610891,114.898019 L39.287141,114.898019 L47.0429319,114.898019 L54.8033175,114.898019 L71.027072,114.898019 C75.0175367,114.898019 77.7835237,111.740267 77.1678389,107.876449 L62.3891058,60.7838623 C61.773421,56.9154441 68.4379795,36.6303975 72.0815471,38.2173229 L81.4293887,42.683713 C85.0729564,44.2729383 88.9393651,42.4951218 90.0168136,38.7324987 L91.9557613,31.9340182 C93.0355071,28.171395 91.4066991,23.0380363 88.3328696,20.5357539 Z" id="dress-stroke" stroke="#FEA200"></path>
                    </g>
                    <g id="camera" transform="translate(727.500000, 66.500000) scale(-1, 1) translate(-727.500000, -66.500000) translate(669.000000, 8.000000)" stroke-linecap="round" stroke-linejoin="round">
                        <g id="camera-fill" opacity="0.5" transform="translate(56.693885, 59.220384) rotate(-19.000000) translate(-56.693885, -59.220384) translate(12.693885, 13.720384)" fill="#FED700" stroke="#FFFFFF">
                            <path d="M87.1381837,28.8153519 L60.2959924,40.8328688 L60.2959924,36.6413085 C60.2959924,31.3482493 56.0062522,27.0192308 50.7652535,27.0192308 L9.53073884,27.0192308 C4.28792479,27.0192308 -1.0658141e-14,31.3482493 -1.0658141e-14,36.6413085 L-1.0658141e-14,56.4133035 C-1.0658141e-14,61.7045299 4.28792479,66.0353812 9.53073884,66.0353812 L50.7652535,66.0353812 C56.0062522,66.0353812 60.2959924,61.7045299 60.2959924,56.4133035 L60.2959924,52.2199104 L87.1363683,64.2355945 L87.1381837,28.8153519 Z" id="Stroke-1" stroke-width="8.1"></path>
                            <path d="M26.6549893,12.0129957 C26.6549893,18.2035735 21.6861805,23.221583 15.5563003,23.221583 C9.42822295,23.221583 4.45941417,18.2035735 4.45941417,12.0129957 C4.45941417,5.82605937 9.42822295,0.808049817 15.5563003,0.808049817 C21.6861805,0.808049817 26.6549893,5.82605937 26.6549893,12.0129957 Z" id="Stroke-3" stroke-width="8.1"></path>
                            <path d="M56.0871228,12.0129957 C56.0871228,18.2035735 51.118314,23.221583 44.9902367,23.221583 C38.8603565,23.221583 33.8915477,18.2035735 33.8915477,12.0129957 C33.8915477,5.82605937 38.8603565,0.808049817 44.9902367,0.808049817 C51.118314,0.808049817 56.0871228,5.82605937 56.0871228,12.0129957 Z" id="Stroke-5" stroke-width="8.1"></path>
                            <path d="M15.1620082,90.6507207 L29.1369999,65.7467949" id="Stroke-7" stroke-width="8.1"></path>
                            <path d="M45.1908909,90.6507207 L31.2158992,65.7467949" id="Stroke-9" stroke-width="8.1"></path>
                            <path d="M30.3240163,65.7467949 L30.3240163,90.6507207" id="Stroke-11" stroke-width="8.1"></path>
                            <path d="M14.2897246,49.3951582 L31.5529497,49.3951582" id="Stroke-15" stroke-width="7.2"></path>
                        </g>
                        <g id="camera-stroke" transform="translate(60.477650, 57.419102) rotate(-19.000000) translate(-60.477650, -57.419102) translate(16.477650, 11.919102)" stroke="#FF82C7">
                            <path d="M87.1381837,28.8153519 L60.2959924,40.8328688 L60.2959924,36.6413085 C60.2959924,31.3482493 56.0062522,27.0192308 50.7652535,27.0192308 L9.53073884,27.0192308 C4.28792479,27.0192308 -1.0658141e-14,31.3482493 -1.0658141e-14,36.6413085 L-1.0658141e-14,56.4133035 C-1.0658141e-14,61.7045299 4.28792479,66.0353812 9.53073884,66.0353812 L50.7652535,66.0353812 C56.0062522,66.0353812 60.2959924,61.7045299 60.2959924,56.4133035 L60.2959924,52.2199104 L87.1363683,64.2355945 L87.1381837,28.8153519 Z" id="Stroke-1" stroke-width="8.1"></path>
                            <path d="M26.6549893,12.0129957 C26.6549893,18.2035735 21.6861805,23.221583 15.5563003,23.221583 C9.42822295,23.221583 4.45941417,18.2035735 4.45941417,12.0129957 C4.45941417,5.82605937 9.42822295,0.808049817 15.5563003,0.808049817 C21.6861805,0.808049817 26.6549893,5.82605937 26.6549893,12.0129957 Z" id="Stroke-3" stroke-width="8.1"></path>
                            <path d="M56.0871228,12.0129957 C56.0871228,18.2035735 51.118314,23.221583 44.9902367,23.221583 C38.8603565,23.221583 33.8915477,18.2035735 33.8915477,12.0129957 C33.8915477,5.82605937 38.8603565,0.808049817 44.9902367,0.808049817 C51.118314,0.808049817 56.0871228,5.82605937 56.0871228,12.0129957 Z" id="Stroke-5" stroke-width="8.1"></path>
                            <path d="M15.1620082,90.6507207 L29.1369999,65.7467949" id="Stroke-7" stroke-width="8.1"></path>
                            <path d="M45.1908909,90.6507207 L31.2158992,65.7467949" id="Stroke-9" stroke-width="8.1"></path>
                            <path d="M30.3240163,65.7467949 L30.3240163,90.6507207" id="Stroke-11" stroke-width="8.1"></path>
                            <path d="M14.2897246,49.3951582 L31.5529497,49.3951582" id="Stroke-15" stroke-width="7.2"></path>
                        </g>
                    </g>
                    <g id="investment" transform="translate(210.000000, 0.000000)">
                        <g id="investment-fill" opacity="0.5" transform="translate(64.096280, 58.060935) rotate(12.000000) translate(-64.096280, -58.060935) translate(12.596280, 12.560935)" stroke="#FFFFFF" stroke-linecap="round" stroke-linejoin="round" stroke-width="8.1">
                            <path d="M102.55877,88.6937678 C102.55877,89.9487241 101.548667,90.9647436 100.300513,90.9647436 L2.26469118,90.9647436 C1.01224833,90.9647436 -2.13162821e-14,89.9487241 -2.13162821e-14,88.6937678 L-2.13162821e-14,16.6833848 C-2.13162821e-14,15.4284285 1.01224833,14.4102564 2.26469118,14.4102564 L100.300513,14.4102564 C101.548667,14.4102564 102.55877,15.4284285 102.55877,16.6833848 L102.55877,88.6937678 Z" id="Stroke-1" fill="#00E29C"></path>
                            <path d="M102.480261,40.7367578 C87.7641894,50.3177066 74.3379985,54.6281764 61.1754069,56.1363649 L61.1754069,46.8333333 L41.3833635,46.8333333 L41.3833635,56.2986133 C16.7707991,53.9363386 1.24344979e-13,42.9028084 1.24344979e-13,42.9028084" id="Combined-Shape"></path>
                            <polygon id="Stroke-7" points="41.3833635 66.6474359 61.1754069 66.6474359 61.1754069 46.8333333 41.3833635 46.8333333"></polygon>
                            <path d="M76.4692586,12.0757329 C76.4692586,13.3626002 75.4453232,14.4102564 74.1854281,14.4102564 L29.2751454,14.4102564 C28.0109207,14.4102564 26.9891501,13.3626002 26.9891501,12.0757329 L26.9891501,2.33895339 C26.9891501,1.04765621 28.0109207,-4.6629367e-14 29.2751454,-4.6629367e-14 L74.1854281,-4.6629367e-14 C75.4453232,-4.6629367e-14 76.4692586,1.04765621 76.4692586,2.33895339 L76.4692586,12.0757329 Z" id="Stroke-9"></path>
                        </g>
                        <g id="investment-stroke" transform="translate(60.497727, 55.359012) rotate(12.000000) translate(-60.497727, -55.359012) translate(8.997727, 9.859012)">
                            <path d="M102.55877,88.6937678 C102.55877,89.9487241 101.548667,90.9647436 100.300513,90.9647436 L2.26469118,90.9647436 C1.01224833,90.9647436 -2.13162821e-14,89.9487241 -2.13162821e-14,88.6937678 L-2.13162821e-14,16.6833848 C-2.13162821e-14,15.4284285 1.01224833,14.4102564 2.26469118,14.4102564 L100.300513,14.4102564 C101.548667,14.4102564 102.55877,15.4284285 102.55877,16.6833848 L102.55877,88.6937678 Z" id="Stroke-1" stroke="#00C6FB" stroke-width="8.1" stroke-linecap="round" stroke-linejoin="round"></path>
                            <path d="M102.688173,41.7149054 C87.9721011,51.2958542 74.3379985,54.6281764 61.1754069,56.1363649 L61.1754069,46.8333333 L41.3833635,46.8333333 L41.3833635,56.2986133 C16.7707991,53.9363386 1.24344979e-13,42.9028084 1.24344979e-13,42.9028084" id="Combined-Shape" stroke="#00C6FB" stroke-width="8.1" stroke-linecap="round" stroke-linejoin="round"></path>
                            <polygon id="Stroke-7" stroke="#00C6FB" stroke-width="8.1" stroke-linecap="round" stroke-linejoin="round" points="41.3833635 66.6474359 61.1754069 66.6474359 61.1754069 46.8333333 41.3833635 46.8333333"></polygon>
                            <path d="M76.4692586,12.0757329 C76.4692586,13.3626002 75.4453232,14.4102564 74.1854281,14.4102564 L29.2751454,14.4102564 C28.0109207,14.4102564 26.9891501,13.3626002 26.9891501,12.0757329 L26.9891501,2.33895339 C26.9891501,1.04765621 28.0109207,-4.6629367e-14 29.2751454,-4.6629367e-14 L74.1854281,-4.6629367e-14 C75.4453232,-4.6629367e-14 76.4692586,1.04765621 76.4692586,2.33895339 L76.4692586,12.0757329 Z" id="Fill-8"></path>
                            <path d="M76.4692586,12.0757329 C76.4692586,13.3626002 75.4453232,14.4102564 74.1854281,14.4102564 L29.2751454,14.4102564 C28.0109207,14.4102564 26.9891501,13.3626002 26.9891501,12.0757329 L26.9891501,2.33895339 C26.9891501,1.04765621 28.0109207,-4.6629367e-14 29.2751454,-4.6629367e-14 L74.1854281,-4.6629367e-14 C75.4453232,-4.6629367e-14 76.4692586,1.04765621 76.4692586,2.33895339 L76.4692586,12.0757329 Z" id="Stroke-9" stroke="#00C6FB" stroke-width="8.1" stroke-linecap="round" stroke-linejoin="round"></path>
                        </g>
                    </g>
                    <g id="cloud" transform="translate(464.051400, 160.286031) rotate(-21.000000) translate(-464.051400, -160.286031) translate(413.051400, 122.786031)">
                        <g id="cloud-fill" opacity="0.5">
                            <use fill="#FF82C7" fill-rule="evenodd" style="mix-blend-mode: multiply;" xlink:href="#path-2"></use>
                            <use stroke="#FFFFFF" stroke-width="8.1" xlink:href="#path-2"></use>
                        </g>
                        <path d="M74.7327789,70.7384705 L23.2045901,70.7384705 C10.4060803,70.7384705 1.13686838e-13,60.3188128 1.13686838e-13,47.5080177 C1.13686838e-13,39.0004781 4.72158838,31.144167 12.1440519,27.1200096 C12.1321886,26.8349734 12.1242797,26.5459783 12.1242797,26.2649009 C12.1242797,11.7834769 23.8926608,0 38.361917,0 C48.2025139,0 57.0722984,5.43746197 61.5902337,14.0518903 C63.7018989,12.8068362 66.1437588,12.1377928 68.6686618,12.1377928 C76.4509784,12.1377928 82.7839966,18.4778695 82.7839966,26.2649009 C82.7839966,28.1077393 82.4201891,29.9169276 81.7261868,31.5994332 C89.5994552,34.509178 94.9062991,41.9735643 94.9062991,50.5404865 C94.9062991,61.6786731 85.8546108,70.7384705 74.7327789,70.7384705" id="cloud-stroke" stroke="#005BEA" stroke-width="8.1"></path>
                    </g>
                    <g id="rocket" transform="translate(639.000000, 392.000000)" stroke-linejoin="round" stroke-width="8.1">
                        <g id="rocket-fill" opacity="0.5" transform="translate(7.000000, 3.000000)" fill="#00C6FB" stroke="#FFFFFF">
                            <polygon id="Stroke-1" points="79 0 36.6785714 0 79 42.8571429"></polygon>
                            <polygon id="Stroke-3" points="24.1714249 80 0 55.5227948 44.9535751 10 69.125 34.4848353"></polygon>
                            <path d="M62.0714286,40 L22.5714286,32.8571429" id="Stroke-4" stroke-linecap="round"></path>
                            <path d="M46.5535714,55.7142857 L7.05357143,48.5714286" id="Stroke-5" stroke-linecap="round"></path>
                            <path d="M11.9910714,67.8571429 L1.41071429,78.5714286" id="Stroke-7" stroke-linecap="round"></path>
                        </g>
                        <g id="rocket-stroke" stroke="#00C7BC">
                            <polygon id="Stroke-1" points="80.014892 0 37.1497713 0 80.014892 42.3831071"></polygon>
                            <polygon id="Stroke-3" points="24.4819488 79.1151332 0 54.9086663 45.5310818 9.88939165 70.0130305 34.1034042"></polygon>
                            <path d="M62.8688437,39.5575666 L22.8613977,32.4937154" id="Stroke-4" stroke-linecap="round"></path>
                            <path d="M47.1516328,55.0980392 L7.14418679,48.034188" id="Stroke-5" stroke-linecap="round"></path>
                            <path d="M12.1451175,67.1065862 L1.42883736,77.702363" id="Stroke-7" stroke-linecap="round"></path>
                        </g>
                    </g>
                    <g id="mansion" transform="translate(470.000000, 526.000000)" stroke-linecap="round" stroke-linejoin="round" stroke-width="8.1">
                        <g id="mansion-fill" opacity="0.5" transform="translate(52.778760, 50.619731) rotate(-11.000000) translate(-52.778760, -50.619731) translate(10.778760, 9.119731)" fill="#FFB199" stroke="#FFFFFF">
                            <polygon id="Stroke-1" points="54.5742789 23.8522244 41.2682607 11.7083333 27.9605032 23.8522244 8.99638336 23.8522244 8.99638336 82.7474898 73.5401381 82.7474898 73.5401381 23.8522244"></polygon>
                            <polygon id="Stroke-3" points="83.4887417 24.4962609 55.0503891 24.4962609 41.7443708 12.3523698 28.4313952 24.4962609 2.22932783e-13 24.4962609 14.6070511 -1.66977543e-13 68.8816906 -1.66977543e-13"></polygon>
                            <polygon id="Stroke-5" points="31.4873418 82.7474898 51.7072714 82.7474898 51.7072714 49.5352564 31.4873418 49.5352564"></polygon>
                        </g>
                        <g id="mansion-stroke" transform="translate(49.180207, 48.818448) rotate(-11.000000) translate(-49.180207, -48.818448) translate(7.180207, 7.318448)" stroke="#FEA200">
                            <polygon id="Stroke-1" points="54.5742789 23.8522244 41.2682607 11.7083333 27.9605032 23.8522244 8.99638336 23.8522244 8.99638336 82.7474898 73.5401381 82.7474898 73.5401381 23.8522244"></polygon>
                            <polygon id="Stroke-3" points="83.4887417 24.4962609 55.0503891 24.4962609 41.7443708 12.3523698 28.4313952 24.4962609 2.22932783e-13 24.4962609 14.6070511 -1.66977543e-13 68.8816906 -1.66977543e-13"></polygon>
                            <polygon id="Stroke-5" points="31.4873418 82.7474898 51.7072714 82.7474898 51.7072714 49.5352564 31.4873418 49.5352564"></polygon>
                        </g>
                    </g>
                    <g id="castle" transform="translate(567.000000, 217.000000)" stroke-linejoin="round" stroke-width="8.1">
                        <g id="castle-fill" opacity="0.5" transform="translate(38.114173, 40.639297) rotate(12.000000) translate(-38.114173, -40.639297) translate(10.614173, 7.139297)" fill="#FED700" stroke="#FFFFFF">
                            <path d="M33.0502405,66.0547421 L33.0502405,44.3897717 L19.7517048,44.3897717 L19.7517048,66.0547421 L4.49819168,66.0547421 L8.04947522,19.1162632 L44.8033612,19.1162632 L48.6639116,66.0547421 L33.0502405,66.0547421 Z" id="Combined-Shape"></path>
                            <polygon id="Stroke-3" points="43.9673497 -6.17284002e-14 43.9673497 7.10584154 32.7259393 7.10584154 32.7259393 -6.17284002e-14 21.3750388 -6.17284002e-14 21.3750388 7.10584154 10.1336285 7.10584154 10.1336285 -6.17284002e-14 2.66453526e-13 -6.17284002e-14 0.316254017 18.912018 54.4172322 18.912018 54.1009781 -6.17284002e-14"></polygon>
                        </g>
                        <g id="castle-stroke" transform="translate(34.515620, 38.838015) rotate(12.000000) translate(-34.515620, -38.838015) translate(7.015620, 5.338015)" stroke="#00C7BC">
                            <path d="M33.0502405,66.0547421 L33.0502405,44.3897717 L19.7517048,44.3897717 L19.7517048,66.0547421 L4.49819168,66.0547421 L8.04947522,19.1162632 L44.8033612,19.1162632 L48.6639116,66.0547421 L33.0502405,66.0547421 Z" id="Combined-Shape"></path>
                            <polygon id="Stroke-3" points="43.9673497 -6.17284002e-14 43.9673497 7.10584154 32.7259393 7.10584154 32.7259393 -6.17284002e-14 21.3750388 -6.17284002e-14 21.3750388 7.10584154 10.1336285 7.10584154 10.1336285 -6.17284002e-14 2.66453526e-13 -6.17284002e-14 0.316254017 18.912018 54.4172322 18.912018 54.1009781 -6.17284002e-14"></polygon>
                        </g>
                    </g>
                </g>
            </g>
        </g>
    </g>
</svg>