<?xml version="1.0" encoding="UTF-8"?>
<svg width="194px" height="272px" viewBox="0 0 194 272" version="1.1" xmlns="http://www.w3.org/2000/svg" xmlns:xlink="http://www.w3.org/1999/xlink">
    <!-- Generator: Sketch 46.1 (44463) - http://www.bohemiancoding.com/sketch -->
    <title>camera</title>
    <desc>Created with Sketch.</desc>
    <defs>
        <path d="M193.1109,265.587311 C193.0913,267.948703 191.6746,270.180278 189.3479,271.126 C188.6059,271.433 187.8339,271.572 187.0739,271.572 C184.6899,271.572 182.4389,270.16 181.4849,267.812 L116.6349,108.631 L102.5859,108.631 L102.5859,265.537 C102.5859,268.875 99.88292,271.572 96.55092,271.572 C93.21992,271.572 90.51592,268.875 90.51592,265.537 L90.51592,108.631 L76.47292,108.631 L11.62292,267.812 C10.66892,270.16 8.411924,271.572 6.027924,271.572 C5.267924,271.572 4.494924,271.433 3.758924,271.12 C0.6759245,269.864 -0.8090755,266.339 0.4459245,263.256 L66.82892,100.315 C66.83592,100.303 66.84692,100.297 66.84692,100.285 C67.10092,99.67 67.49892,99.144 67.93292,98.65 C69.06792,97.358 70.66192,96.574 72.38192,96.568 C72.39292,96.568 72.39892,96.562 72.41192,96.562 L90.51592,96.562 L90.51592,72.422 L78.44592,72.422 C75.11492,72.422 72.41192,69.719 72.41192,66.387 L42.23792,66.387 C38.90592,66.387 36.20192,63.684 36.20192,60.353 L36.20192,6.039 C36.20192,2.708 38.90592,0.004 42.23792,0.004 L132.7599,0.004 C136.0969,0.004 138.7949,2.708 138.7949,6.039 L138.7949,60.353 C138.7949,63.684 136.0969,66.387 132.7599,66.387 L120.6899,66.387 C120.6899,69.719 117.9929,72.422 114.6549,72.422 L102.5859,72.422 L102.5859,96.562 L120.6899,96.562 C120.7019,96.562 120.7149,96.568 120.7259,96.568 C121.3539,96.574 121.9389,96.743 122.5249,96.936 C124.2089,97.479 125.5909,98.673 126.2609,100.297 C126.2659,100.309 126.2719,100.315 126.2779,100.321 L192.6619,263.262 C192.9601,263.991258 193.1047,264.745118 193.1109,265.487776 L193.1109,265.587311 Z M175.0802,0 C176.1562,0.0141 177.2267,0.3164 178.1729,0.903 C179.9529,2.008 181.0389,3.945 181.0389,6.039 L181.0389,60.353 C181.0389,62.447 179.9529,64.384 178.1729,65.488 C177.2069,66.086 176.1079,66.387 175.0039,66.387 C174.0809,66.387 173.1569,66.176 172.3059,65.753 L148.1669,53.684 C146.1209,52.658 144.8299,50.57 144.8299,48.283 L144.8299,18.108 C144.8299,15.821 146.1209,13.733 148.1609,12.708 L172.3009,0.638 C173.1287,0.2237 174.0251,0.0118 174.9218,0 L175.0802,0 Z" id="path-1"></path>
    </defs>
    <g id="Page-1" stroke="none" stroke-width="1" fill="none" fill-rule="evenodd">
        <g id="camera">
            <mask id="mask-2" fill="white">
                <use xlink:href="#path-1"></use>
            </mask>
            <g id="Clip-2"></g>
            <polygon id="Fill-1" fill="#44FFF0" mask="url(#mask-2)" points="-5 276.572 198.1109 276.572 198.1109 -5 -5 -5"></polygon>
        </g>
    </g>
</svg>