<?xml version="1.0" encoding="UTF-8"?>
<svg width="58px" height="33px" viewBox="0 0 58 33" version="1.1" xmlns="http://www.w3.org/2000/svg" xmlns:xlink="http://www.w3.org/1999/xlink">
    <!-- Generator: Sketch 46.1 (44463) - http://www.bohemiancoding.com/sketch -->
    <title>car smoke2</title>
    <desc>Created with Sketch.</desc>
    <defs>
        <path d="M14.852,2.418 C13.703,1.818 12.398,1.473 11.01,1.473 C6.418,1.473 2.696,5.196 2.696,9.788 C2.696,10.921 2.925,11.999 3.333,12.983 C1.427,13.717 0.069,15.554 0.069,17.719 C0.069,20.528 2.346,22.805 5.156,22.805 C5.257,22.805 5.35,22.782 5.45,22.776 C6.348,27.476 10.474,31.03 15.436,31.03 C17.665,31.03 19.719,30.306 21.395,29.091 C23.723,31.465 26.965,32.942 30.553,32.942 C34.792,32.942 38.538,30.878 40.876,27.711 C41.154,27.731 41.432,27.753 41.716,27.753 C43.72,27.753 45.602,27.239 47.242,26.338 C47.967,26.543 48.728,26.661 49.518,26.661 C54.109,26.661 57.833,22.938 57.833,18.346 C57.833,14.451 55.152,11.192 51.537,10.288 C49.52,6.972 45.882,4.75 41.716,4.75 C38.871,4.75 36.272,5.789 34.264,7.501 C32.055,3.14 27.542,0.145 22.319,0.145 C19.554,0.145 16.986,0.984 14.852,2.418 Z" id="path-1"></path>
    </defs>
    <g id="Page-1" stroke="none" stroke-width="1" fill="none" fill-rule="evenodd">
        <g id="car-smoke2">
            <mask id="mask-2" fill="white">
                <use xlink:href="#path-1"></use>
            </mask>
            <g id="Clip-2"></g>
            <polygon id="Fill-1" fill="#25315C" mask="url(#mask-2)" points="-4.931 37.942 62.833 37.942 62.833 -4.855 -4.931 -4.855"></polygon>
        </g>
    </g>
</svg>