<?xml version="1.0" encoding="UTF-8"?>
<svg width="4010px" height="2264px" viewBox="0 0 4010 2264" version="1.1" xmlns="http://www.w3.org/2000/svg" xmlns:xlink="http://www.w3.org/1999/xlink">
    <!-- Generator: Sketch 46.1 (44463) - http://www.bohemiancoding.com/sketch -->
    <title>car smoke1-LARGE</title>
    <desc>Created with Sketch.</desc>
    <defs>
        <path d="M1625.331,507.575 C1486.885,389.804 1307.653,318.605 1111.662,318.605 C824.0089,318.605 572.0961,471.693 433.0148,700.884 C184.3479,763.651 0,988.185 0,1256.327 C0,1573.0882 256.7817,1829.8346 573.5073,1829.8346 C627.9826,1829.8346 680.4115,1821.7551 730.3001,1807.5718 C843.4845,1869.7738 973.463,1905.1615 1111.662,1905.1615 C1130.997,1905.1615 1150.049,1904.2442 1169.066,1902.8682 C1330.269,2121.2984 1589.344,2263.02585 1881.654,2263.02585 C2129.192,2263.02585 2352.844,2161.3081 2513.518,1997.5648 C2629.066,2081.2888 2770.723,2131.1774 2924.305,2131.1774 C3266.187,2131.1774 3550.63,1886.6032 3613.008,1562.8918 C3619.782,1563.3151 3626.486,1563.9502 3633.366,1563.9502 C3827.134,1563.9502 3984.244,1406.8399 3984.244,1213.072 C3984.244,1114.776 3943.705,1026.078 3878.61,962.358 C3960.641,863.181 4010,735.884 4010,597.12 C4010,280.359 3753.218,23.613 3436.493,23.613 C3273.737,23.613 3127.176,91.672 3022.848,200.516 C2865.243,75.689 2666.218,0.927 2449.552,0.927 C2089.5,0.927 1777.749,207.043 1625.331,507.575 Z" id="path-1"></path>
    </defs>
    <g id="Page-1" stroke="none" stroke-width="1" fill="none" fill-rule="evenodd">
        <g id="car-smoke1-LARGE">
            <mask id="mask-2" fill="white">
                <use xlink:href="#path-1"></use>
            </mask>
            <g id="Clip-2"></g>
            <polygon id="Fill-1" fill="#25315C" mask="url(#mask-2)" points="-5 2268.02585 4015 2268.02585 4015 -4.073155 -5 -4.073155"></polygon>
        </g>
    </g>
</svg>