<?xml version="1.0" encoding="UTF-8"?>
<svg width="9341px" height="12935px" viewBox="0 0 9341 12935" version="1.1" xmlns="http://www.w3.org/2000/svg" xmlns:xlink="http://www.w3.org/1999/xlink">
    <!-- Generator: Sketch 46.1 (44463) - http://www.bohemiancoding.com/sketch -->
    <title>flash light-LARGE</title>
    <desc>Created with Sketch.</desc>
    <defs>
        <path d="M2847.027,124.94 C2936.175,42.63 3050.734,0 3166.306,0 C3245.746,0 3325.776,20.18 3398.294,61.46 L5591.035,1311.22 L9341,9440.591 L8374.975,9048.035 L8704.891,11287.461 C8734.438,11488.804 8631.107,11686.264 8448.589,11776.425 C8266.241,11866.587 8046.494,11828.851 7904.583,11683.056 L6236.009,9968.558 L4527.926,12713.0724 C4410.244,12902.0058 4176.568,12982.2054 3967.964,12905.6359 C3759.192,12829.0664 3632.983,12616.5796 3665.485,12396.6639 L4189.653,8850.069 L1307.701,8627.62 C1107.54,8612.171 939.5427,8471.02 889.4813,8276.684 C839.5043,8082.263 919.0285,7877.29 1086.688,7767.543 L3348.654,6284.863 L195.7969,4024.078 C26.87124,3902.935 -42.18484,3685.045 26.02704,3488.683 C94.32333,3292.489 283.7632,3164.423 491.3536,3174.216 L4005.194,3341.116 L2741.839,669.62 C2654.295,484.49 2696.843,264.07 2847.027,124.94 Z" id="path-1"></path>
    </defs>
    <g id="Page-1" stroke="none" stroke-width="1" fill="none" fill-rule="evenodd">
        <g id="flash-light-LARGE">
            <mask id="mask-2" fill="white">
                <use xlink:href="#path-1"></use>
            </mask>
            <g id="Clip-2"></g>
            <polygon id="Fill-1" fill="#FF0890" mask="url(#mask-2)" points="-5 12939.4267 9346 12939.4267 9346 -5.003346 -5 -5.003346"></polygon>
        </g>
    </g>
</svg>