<?xml version="1.0" encoding="UTF-8"?>
<svg width="179px" height="392px" viewBox="0 0 179 392" version="1.1" xmlns="http://www.w3.org/2000/svg" xmlns:xlink="http://www.w3.org/1999/xlink">
    <!-- Generator: Sketch 46.1 (44463) - http://www.bohemiancoding.com/sketch -->
    <title>flash lamp</title>
    <desc>Created with Sketch.</desc>
    <defs>
        <path d="M3.8214,14.348 C0.5214,15.871 -0.9136,19.775 0.6064,23.069 L55.6604,142.418 C57.1794,145.713 61.0804,147.155 64.3804,145.633 L76.3154,140.128 C78.3084,139.208 79.7104,137.353 80.0554,135.182 L86.8624,91.84 L112.8234,79.866 L112.8204,354.55201 L63.8744,379.01801 C60.6264,380.64201 59.3134,384.591007 60.9364,387.838007 C62.0924,390.144007 64.4134,391.472007 66.8244,391.472007 C67.8104,391.472007 68.8154,391.249007 69.7554,390.775007 L119.3924,365.96101 L169.0284,390.782007 C169.9684,391.249007 170.9734,391.472007 171.9594,391.472007 C174.3724,391.472007 176.6914,390.144007 177.8414,387.844007 C179.4644,384.598007 178.1504,380.64801 174.9044,379.02501 L125.9634,354.55201 L125.9634,73.8 L155.2794,60.28 C158.5734,58.76 160.0134,54.854 158.4944,51.56 L136.4724,3.82 C134.9534,0.526 131.0454,-0.914 127.7514,0.605 L59.3344,32.164 L21.9464,9.208 C20.0714,8.061 17.7494,7.924 15.7554,8.843 L3.8214,14.348 Z" id="path-1"></path>
    </defs>
    <g id="Page-1" stroke="none" stroke-width="1" fill="none" fill-rule="evenodd">
        <g id="flash-lamp">
            <mask id="mask-2" fill="white">
                <use xlink:href="#path-1"></use>
            </mask>
            <g id="Clip-2"></g>
            <polygon id="Fill-1" fill="#44FFF0" mask="url(#mask-2)" points="-5 396.472007 183.5369 396.472007 183.5369 -4.999993 -5 -4.999993"></polygon>
        </g>
    </g>
</svg>