<?xml version="1.0" encoding="UTF-8"?>
<svg width="400px" height="294px" viewBox="0 0 400 294" version="1.1" xmlns="http://www.w3.org/2000/svg" xmlns:xlink="http://www.w3.org/1999/xlink">
    <!-- Generator: Sketch 46.1 (44463) - http://www.bohemiancoding.com/sketch -->
    <title>lever</title>
    <desc>Created with Sketch.</desc>
    <defs>
        <path d="M38.20609,293.926006 C27.54034,293.926001 16.91952,289.552111 9.288,280.976 C4.385,275.467 1.173,268.718 0,261.463 L0.021,261.459 L11.821,270.331 L16.405,258.811 L16.421,258.807 C17.087,262.935 18.918,266.776 21.714,269.918 C29.795,279 43.76,279.813 52.841,271.733 L349.729,7.548 C355.411,2.491 362.485,0.003 369.535,0 L369.568,0 C377.783,0.004 385.962,3.382 391.853,10.003 C396.861,15.631 399.327,22.626 399.373,29.612 L399.373,30.013 C399.371,30.284 399.366,30.555 399.357,30.825 C398.672,26.75 396.855,22.958 394.091,19.852 C386.008,10.769 372.045,9.956 362.964,18.037 L63.898,284.159 C56.54057,290.706478 47.35679,293.92601 38.20609,293.926006 L38.20608,293.926006 L38.20609,293.926006 Z" id="path-1"></path>
    </defs>
    <g id="Page-1" stroke="none" stroke-width="1" fill="none" fill-rule="evenodd">
        <g id="lever">
            <mask id="mask-2" fill="white">
                <use xlink:href="#path-1"></use>
            </mask>
            <g id="Clip-2"></g>
            <polygon id="Fill-1" fill="#2D49AC" mask="url(#mask-2)" points="-5 298.926006 404.373 298.926006 404.373 -4.999994 -5 -4.999994"></polygon>
        </g>
    </g>
</svg>