<?xml version="1.0" encoding="UTF-8"?>
<svg width="337px" height="213px" viewBox="0 0 337 213" version="1.1" xmlns="http://www.w3.org/2000/svg" xmlns:xlink="http://www.w3.org/1999/xlink">
    <!-- Generator: Sketch 46.1 (44463) - http://www.bohemiancoding.com/sketch -->
    <title>luggage focus</title>
    <desc>Created with Sketch.</desc>
    <defs>
        <path d="M77.55082,189.56898 C79.97859,189.07281 82.3489,190.63869 82.84507,193.06646 C83.34123,195.49423 81.77535,197.86454 79.34758,198.3607 L6.382457,213.272585 C3.954689,213.768748 1.5843744,212.202872 1.08821142,209.775104 C0.5920484,207.347336 2.157924,204.977021 4.585692,204.480858 L77.55082,189.56898 Z M101.2125,109.2408 C103.0526,110.9003 103.1991,113.7374 101.5396,115.57755 C99.88008,117.41773 97.04302,117.5642 95.20284,115.90469 L39.89746,66.0292 C38.05728,64.3697 37.91082,61.5327 39.57033,59.6925 C41.22984,57.8523 44.0669,57.7059 45.90708,59.3654 L101.2125,109.2408 Z M173.4591,79.9447 C173.4591,82.4226 171.4503,84.4314 168.9724,84.4314 C166.4944,84.4314 164.4857,82.4226 164.4857,79.9447 L164.4857,5.483 C164.4857,3.005 166.4944,0.9963 168.9724,0.9963 C171.4503,0.9963 173.4591,3.005 173.4591,5.483 L173.4591,79.9447 Z M259.2846,198.3607 C256.8569,197.86454 255.291,195.49423 255.7872,193.06646 C256.2833,190.63869 258.6536,189.07281 261.0814,189.56898 L334.0465,204.480858 C336.4743,204.977021 338.0402,207.347336 337.544,209.775104 C337.0479,212.202872 334.6775,213.768748 332.2498,213.272585 L259.2846,198.3607 Z M243.4289,115.90469 C241.5887,117.5642 238.7517,117.41773 237.0921,115.57755 C235.4326,113.7374 235.5791,110.9003 237.4193,109.2408 L292.7247,59.3654 C294.5648,57.7059 297.4019,57.8523 299.0614,59.6925 C300.7209,61.5327 300.5744,64.3697 298.7343,66.0292 L243.4289,115.90469 Z" id="path-1"></path>
    </defs>
    <g id="Page-1" stroke="none" stroke-width="1" fill="none" fill-rule="evenodd">
        <g id="luggage-focus" transform="translate(-1.000000, -1.000000)">
            <mask id="mask-2" fill="white">
                <use xlink:href="#path-1"></use>
            </mask>
            <g id="Clip-2"></g>
            <polygon id="Fill-1" fill="#00E2D0" mask="url(#mask-2)" points="-4.003536 218.364332 342.635764 218.364332 342.635764 -4.003768 -4.003536 -4.003768"></polygon>
        </g>
    </g>
</svg>