<?xml version="1.0" encoding="UTF-8"?>
<svg width="158px" height="365px" viewBox="0 0 158 365" version="1.1" xmlns="http://www.w3.org/2000/svg" xmlns:xlink="http://www.w3.org/1999/xlink">
    <!-- Generator: Sketch 46.1 (44463) - http://www.bohemiancoding.com/sketch -->
    <title>luggage</title>
    <desc>Created with Sketch.</desc>
    <defs>
        <path d="M51.274,0 C40.485,0 31.553,8.932 31.553,19.721 L31.553,110.436 L47.33,110.436 L47.33,94.66 L47.33,47.329 L47.33,19.721 C47.33,17.4 48.952,15.777 51.274,15.777 L106.492,15.777 C108.814,15.777 110.435,17.4 110.435,19.721 L110.435,47.329 L110.435,94.66 L110.435,110.436 L126.212,110.436 L126.212,19.721 C126.212,8.932 117.281,0 106.492,0 L51.274,0 Z M23.665,118.325 C10.554,118.325 0,128.879 0,141.989 L0,333.463 C0,346.573 10.554,357.127 23.665,357.127 L27.609,357.127 L27.609,364.079 L59.161,364.079 L59.161,357.127 L98.603,357.127 L98.603,364.079 L130.156,364.079 L130.156,357.127 L134.101,357.127 C147.211,357.127 157.766,346.573 157.766,333.463 L157.766,141.989 C157.766,128.879 147.211,118.325 134.101,118.325 L23.665,118.325 Z" id="path-1"></path>
    </defs>
    <g id="Page-1" stroke="none" stroke-width="1" fill="none" fill-rule="evenodd">
        <g id="luggage">
            <mask id="mask-2" fill="white">
                <use xlink:href="#path-1"></use>
            </mask>
            <g id="Clip-2"></g>
            <polygon id="Fill-1" fill="#00E2D0" mask="url(#mask-2)" points="-5 369.079 162.766 369.079 162.766 -5 -5 -5"></polygon>
        </g>
    </g>
</svg>