<?xml version="1.0" encoding="UTF-8"?>
<svg width="350px" height="2974px" viewBox="0 0 350 2974" version="1.1" xmlns="http://www.w3.org/2000/svg" xmlns:xlink="http://www.w3.org/1999/xlink">
    <!-- Generator: Sketch 46.1 (44463) - http://www.bohemiancoding.com/sketch -->
    <title>water drops copy</title>
    <desc>Created with Sketch.</desc>
    <defs>
        <path d="M30.5,0 C30.5,0 0,51.655 0,68.5 C0,85.345 13.655,99 30.5,99 C47.345,99 61,85.345 61,68.5 C61,51.655 30.5,0 30.5,0 Z" id="path-1"></path>
        <path d="M30.5,0 C30.5,0 0,51.655 0,68.5 C0,85.345 13.655,99 30.5,99 C47.345,99 61,85.345 61,68.5 C61,51.655 30.5,0 30.5,0 Z" id="path-3"></path>
        <path d="M30.5,0 C30.5,0 0,51.655 0,68.5 C0,85.345 13.655,99 30.5,99 C47.345,99 61,85.345 61,68.5 C61,51.655 30.5,0 30.5,0 Z" id="path-5"></path>
        <path d="M30.5,0 C30.5,0 0,51.655 0,68.5 C0,85.345 13.655,99 30.5,99 C47.345,99 61,85.345 61,68.5 C61,51.655 30.5,0 30.5,0 Z" id="path-7"></path>
        <path d="M0,68.5 C0,85.345 13.656,99 30.5,99 C47.344,99 61,85.345 61,68.5 C61,51.655 30.5,0 30.5,0 C30.5,0 0,51.655 0,68.5 Z" id="path-9"></path>
        <path d="M0,68.5 C0,85.345 13.656,99 30.5,99 C47.344,99 61,85.345 61,68.5 C61,51.655 30.5,0 30.5,0 C30.5,0 0,51.655 0,68.5 Z" id="path-11"></path>
        <path d="M0,68.5 C0,85.345 13.656,99 30.5,99 C47.344,99 61,85.345 61,68.5 C61,51.655 30.5,0 30.5,0 C30.5,0 0,51.655 0,68.5 Z" id="path-13"></path>
        <path d="M0,68.5 C0,85.345 13.656,99 30.5,99 C47.344,99 61,85.345 61,68.5 C61,51.655 30.5,0 30.5,0 C30.5,0 0,51.655 0,68.5 Z" id="path-15"></path>
        <path d="M0,68.5 C0,85.345 13.656,99 30.5,99 C47.345,99 61.001,85.345 61.001,68.5 C61.001,51.655 30.5,0 30.5,0 C30.5,0 0,51.655 0,68.5 Z" id="path-17"></path>
        <path d="M0,68.5 C0,85.345 13.656,99 30.5,99 C47.345,99 61.001,85.345 61.001,68.5 C61.001,51.655 30.5,0 30.5,0 C30.5,0 0,51.655 0,68.5 Z" id="path-19"></path>
        <path d="M0,68.5 C0,85.345 13.656,99 30.5,99 C47.345,99 61.001,85.345 61.001,68.5 C61.001,51.655 30.5,0 30.5,0 C30.5,0 0,51.655 0,68.5 Z" id="path-21"></path>
        <path d="M0,68.5 C0,85.345 13.656,99 30.5,99 C47.345,99 61.001,85.345 61.001,68.5 C61.001,51.655 30.5,0 30.5,0 C30.5,0 0,51.655 0,68.5 Z" id="path-23"></path>
        <path d="M0,68.5 C0,85.345 13.655,99 30.5,99 C47.345,99 61,85.345 61,68.5 C61,51.655 30.5,0 30.5,0 C30.5,0 0,51.655 0,68.5 Z" id="path-25"></path>
        <path d="M0,68.5 C0,85.345 13.655,99 30.5,99 C47.345,99 61,85.345 61,68.5 C61,51.655 30.5,0 30.5,0 C30.5,0 0,51.655 0,68.5 Z" id="path-27"></path>
        <path d="M0,68.5 C0,85.345 13.655,99 30.5,99 C47.345,99 61,85.345 61,68.5 C61,51.655 30.5,0 30.5,0 C30.5,0 0,51.655 0,68.5 Z" id="path-29"></path>
        <path d="M0,68.5 C0,85.345 13.655,99 30.5,99 C47.345,99 61,85.345 61,68.5 C61,51.655 30.5,0 30.5,0 C30.5,0 0,51.655 0,68.5 Z" id="path-31"></path>
        <path d="M0,68.5 C0,85.344 13.656,99 30.5,99 C47.344,99 61,85.344 61,68.5 C61,51.656 30.5,0 30.5,0 C30.5,0 0,51.656 0,68.5 Z" id="path-33"></path>
        <path d="M0,68.5 C0,85.344 13.656,99 30.5,99 C47.344,99 61,85.344 61,68.5 C61,51.656 30.5,0 30.5,0 C30.5,0 0,51.656 0,68.5 Z" id="path-35"></path>
        <path d="M0,68.5 C0,85.344 13.656,99 30.5,99 C47.344,99 61,85.344 61,68.5 C61,51.656 30.5,0 30.5,0 C30.5,0 0,51.656 0,68.5 Z" id="path-37"></path>
        <path d="M0,68.5 C0,85.344 13.656,99 30.5,99 C47.344,99 61,85.344 61,68.5 C61,51.656 30.5,0 30.5,0 C30.5,0 0,51.656 0,68.5 Z" id="path-39"></path>
        <path d="M0,68.5 C0,85.345 13.655,99 30.5,99 C47.345,99 61,85.345 61,68.5 C61,51.655 30.5,0 30.5,0 C30.5,0 0,51.655 0,68.5 Z" id="path-41"></path>
        <path d="M0,68.5 C0,85.345 13.655,99 30.5,99 C47.345,99 61,85.345 61,68.5 C61,51.655 30.5,0 30.5,0 C30.5,0 0,51.655 0,68.5 Z" id="path-43"></path>
        <path d="M0,68.5 C0,85.345 13.655,99 30.5,99 C47.345,99 61,85.345 61,68.5 C61,51.655 30.5,0 30.5,0 C30.5,0 0,51.655 0,68.5 Z" id="path-45"></path>
        <path d="M0,68.5 C0,85.345 13.655,99 30.5,99 C47.345,99 61,85.345 61,68.5 C61,51.655 30.5,0 30.5,0 C30.5,0 0,51.655 0,68.5 Z" id="path-47"></path>
        <path d="M0,68.5 C0,85.345 13.655,99 30.5,99 C47.345,99 61,85.345 61,68.5 C61,51.655 30.5,0 30.5,0 C30.5,0 0,51.655 0,68.5 Z" id="path-49"></path>
        <path d="M0,68.5 C0,85.345 13.655,99 30.5,99 C47.345,99 61,85.345 61,68.5 C61,51.655 30.5,0 30.5,0 C30.5,0 0,51.655 0,68.5 Z" id="path-51"></path>
        <path d="M0,68.5 C0,85.344 13.656,99 30.5,99 C47.344,99 61,85.344 61,68.5 C61,51.656 30.5,0 30.5,0 C30.5,0 0,51.656 0,68.5 Z" id="path-53"></path>
        <path d="M0,68.5 C0,85.344 13.656,99 30.5,99 C47.344,99 61,85.344 61,68.5 C61,51.656 30.5,0 30.5,0 C30.5,0 0,51.656 0,68.5 Z" id="path-55"></path>
        <path d="M0,68.5 C0,85.344 13.656,99 30.5,99 C47.344,99 61,85.344 61,68.5 C61,51.656 30.5,0 30.5,0 C30.5,0 0,51.656 0,68.5 Z" id="path-57"></path>
        <path d="M0,68.5 C0,85.344 13.656,99 30.5,99 C47.344,99 61,85.344 61,68.5 C61,51.656 30.5,0 30.5,0 C30.5,0 0,51.656 0,68.5 Z" id="path-59"></path>
        <path d="M0,68.5 C0,85.344 13.655,99 30.5,99 C47.345,99 61,85.344 61,68.5 C61,51.656 30.5,0 30.5,0 C30.5,0 0,51.656 0,68.5 Z" id="path-61"></path>
        <path d="M0,68.5 C0,85.344 13.655,99 30.5,99 C47.345,99 61,85.344 61,68.5 C61,51.656 30.5,0 30.5,0 C30.5,0 0,51.656 0,68.5 Z" id="path-63"></path>
        <path d="M0,68.5 C0,85.344 13.655,99 30.5,99 C47.345,99 61,85.344 61,68.5 C61,51.656 30.5,0 30.5,0 C30.5,0 0,51.656 0,68.5 Z" id="path-65"></path>
        <path d="M0,68.5 C0,85.344 13.655,99 30.5,99 C47.345,99 61,85.344 61,68.5 C61,51.656 30.5,0 30.5,0 C30.5,0 0,51.656 0,68.5 Z" id="path-67"></path>
        <path d="M0,68.5 C0,85.344 13.655,99 30.5,99 C47.345,99 61,85.344 61,68.5 C61,51.656 30.5,0 30.5,0 C30.5,0 0,51.656 0,68.5 Z" id="path-69"></path>
    </defs>
    <g id="Page-1" stroke="none" stroke-width="1" fill="none" fill-rule="evenodd">
        <g id="water-drops-copy">
            <g id="Group-3" transform="translate(91.000000, 664.000000)">
                <mask id="mask-2" fill="white">
                    <use xlink:href="#path-1"></use>
                </mask>
                <g id="Clip-2"></g>
                <polygon id="Fill-1" fill="#005BEA" mask="url(#mask-2)" points="-5 104 66 104 66 -5 -5 -5"></polygon>
            </g>
            <g id="Group-6" transform="translate(22.000000, 0.000000)">
                <mask id="mask-4" fill="white">
                    <use xlink:href="#path-3"></use>
                </mask>
                <g id="Clip-5"></g>
                <polygon id="Fill-4" fill="#005BEA" mask="url(#mask-4)" points="-5 104 66 104 66 -5 -5 -5"></polygon>
            </g>
            <g id="Group-9" transform="translate(57.000000, 1385.000000)">
                <mask id="mask-6" fill="white">
                    <use xlink:href="#path-5"></use>
                </mask>
                <g id="Clip-8"></g>
                <polygon id="Fill-7" fill="#005BEA" mask="url(#mask-6)" points="-5 104 66 104 66 -5 -5 -5"></polygon>
            </g>
            <g id="Group-12" transform="translate(0.000000, 2013.000000)">
                <mask id="mask-8" fill="white">
                    <use xlink:href="#path-7"></use>
                </mask>
                <g id="Clip-11"></g>
                <polygon id="Fill-10" fill="#005BEA" mask="url(#mask-8)" points="-5 104 66 104 66 -5 -5 -5"></polygon>
            </g>
            <g id="Group-15" transform="translate(31.000000, 736.000000)">
                <mask id="mask-10" fill="white">
                    <use xlink:href="#path-9"></use>
                </mask>
                <g id="Clip-14"></g>
                <polygon id="Fill-13" fill="#005BEA" mask="url(#mask-10)" points="-5 104 66 104 66 -5 -5 -5"></polygon>
            </g>
            <g id="Group-18" transform="translate(69.000000, 189.000000)">
                <mask id="mask-12" fill="white">
                    <use xlink:href="#path-11"></use>
                </mask>
                <g id="Clip-17"></g>
                <polygon id="Fill-16" fill="#005BEA" mask="url(#mask-12)" points="-5 104 66 104 66 -5 -5 -5"></polygon>
            </g>
            <g id="Group-21" transform="translate(0.000000, 1524.000000)">
                <mask id="mask-14" fill="white">
                    <use xlink:href="#path-13"></use>
                </mask>
                <g id="Clip-20"></g>
                <polygon id="Fill-19" fill="#005BEA" mask="url(#mask-14)" points="-5 104 66 104 66 -5 -5 -5"></polygon>
            </g>
            <g id="Group-24" transform="translate(289.000000, 1623.000000)">
                <mask id="mask-16" fill="white">
                    <use xlink:href="#path-15"></use>
                </mask>
                <g id="Clip-23"></g>
                <polygon id="Fill-22" fill="#005BEA" mask="url(#mask-16)" points="-5 104 66 104 66 -5 -5 -5"></polygon>
            </g>
            <g id="Group-27" transform="translate(207.000000, 892.000000)">
                <mask id="mask-18" fill="white">
                    <use xlink:href="#path-17"></use>
                </mask>
                <g id="Clip-26"></g>
                <polygon id="Fill-25" fill="#005BEA" mask="url(#mask-18)" points="-5 104 66.001 104 66.001 -5 -5 -5"></polygon>
            </g>
            <g id="Group-30" transform="translate(206.000000, 415.000000)">
                <mask id="mask-20" fill="white">
                    <use xlink:href="#path-19"></use>
                </mask>
                <g id="Clip-29"></g>
                <polygon id="Fill-28" fill="#005BEA" mask="url(#mask-20)" points="-5 104 66.001 104 66.001 -5 -5 -5"></polygon>
            </g>
            <g id="Group-33" transform="translate(122.000000, 1581.000000)">
                <mask id="mask-22" fill="white">
                    <use xlink:href="#path-21"></use>
                </mask>
                <g id="Clip-32"></g>
                <polygon id="Fill-31" fill="#005BEA" mask="url(#mask-22)" points="-5 104 66.001 104 66.001 -5 -5 -5"></polygon>
            </g>
            <g id="Group-36" transform="translate(228.000000, 2263.000000)">
                <mask id="mask-24" fill="white">
                    <use xlink:href="#path-23"></use>
                </mask>
                <g id="Clip-35"></g>
                <polygon id="Fill-34" fill="#005BEA" mask="url(#mask-24)" points="-5 104 66.001 104 66.001 -5 -5 -5"></polygon>
            </g>
            <g id="Group-39" transform="translate(23.000000, 1141.000000)">
                <mask id="mask-26" fill="white">
                    <use xlink:href="#path-25"></use>
                </mask>
                <g id="Clip-38"></g>
                <polygon id="Fill-37" fill="#005BEA" mask="url(#mask-26)" points="-5 104 66 104 66 -5 -5 -5"></polygon>
            </g>
            <g id="Group-42" transform="translate(10.000000, 545.000000)">
                <mask id="mask-28" fill="white">
                    <use xlink:href="#path-27"></use>
                </mask>
                <g id="Clip-41"></g>
                <polygon id="Fill-40" fill="#005BEA" mask="url(#mask-28)" points="-5 104 66 104 66 -5 -5 -5"></polygon>
            </g>
            <g id="Group-45" transform="translate(181.000000, 1733.000000)">
                <mask id="mask-30" fill="white">
                    <use xlink:href="#path-29"></use>
                </mask>
                <g id="Clip-44"></g>
                <polygon id="Fill-43" fill="#005BEA" mask="url(#mask-30)" points="-5 104 66 104 66 -5 -5 -5"></polygon>
            </g>
            <g id="Group-48" transform="translate(67.000000, 2562.000000)">
                <mask id="mask-32" fill="white">
                    <use xlink:href="#path-31"></use>
                </mask>
                <g id="Clip-47"></g>
                <polygon id="Fill-46" fill="#005BEA" mask="url(#mask-32)" points="-5 104 66 104 66 -5 -5 -5"></polygon>
            </g>
            <g id="Group-51" transform="translate(216.000000, 1163.000000)">
                <mask id="mask-34" fill="white">
                    <use xlink:href="#path-33"></use>
                </mask>
                <g id="Clip-50"></g>
                <polygon id="Fill-49" fill="#005BEA" mask="url(#mask-34)" points="-5 104 66 104 66 -5 -5 -5"></polygon>
            </g>
            <g id="Group-54" transform="translate(158.000000, 514.000000)">
                <mask id="mask-36" fill="white">
                    <use xlink:href="#path-35"></use>
                </mask>
                <g id="Clip-53"></g>
                <polygon id="Fill-52" fill="#005BEA" mask="url(#mask-36)" points="-5 104 66 104 66 -5 -5 -5"></polygon>
            </g>
            <g id="Group-57" transform="translate(120.000000, 1893.000000)">
                <mask id="mask-38" fill="white">
                    <use xlink:href="#path-37"></use>
                </mask>
                <g id="Clip-56"></g>
                <polygon id="Fill-55" fill="#005BEA" mask="url(#mask-38)" points="-5 104 66 104 66 -5 -5 -5"></polygon>
            </g>
            <g id="Group-60" transform="translate(115.000000, 2875.000000)">
                <mask id="mask-40" fill="white">
                    <use xlink:href="#path-39"></use>
                </mask>
                <g id="Clip-59"></g>
                <polygon id="Fill-58" fill="#005BEA" mask="url(#mask-40)" points="-5 104 66 104 66 -5 -5 -5"></polygon>
            </g>
            <g id="Group-63" transform="translate(144.000000, 1029.000000)">
                <mask id="mask-42" fill="white">
                    <use xlink:href="#path-41"></use>
                </mask>
                <g id="Clip-62"></g>
                <polygon id="Fill-61" fill="#005BEA" mask="url(#mask-42)" points="-5 104 66 104 66 -5 -5 -5"></polygon>
            </g>
            <g id="Group-66" transform="translate(117.000000, 376.000000)">
                <mask id="mask-44" fill="white">
                    <use xlink:href="#path-43"></use>
                </mask>
                <g id="Clip-65"></g>
                <polygon id="Fill-64" fill="#005BEA" mask="url(#mask-44)" points="-5 104 66 104 66 -5 -5 -5"></polygon>
            </g>
            <g id="Group-69" transform="translate(194.000000, 243.000000)">
                <mask id="mask-46" fill="white">
                    <use xlink:href="#path-45"></use>
                </mask>
                <g id="Clip-68"></g>
                <polygon id="Fill-67" fill="#005BEA" mask="url(#mask-46)" points="-5 104 66 104 66 -5 -5 -5"></polygon>
            </g>
            <g id="Group-72" transform="translate(171.000000, 93.000000)">
                <mask id="mask-48" fill="white">
                    <use xlink:href="#path-47"></use>
                </mask>
                <g id="Clip-71"></g>
                <polygon id="Fill-70" fill="#005BEA" mask="url(#mask-48)" points="-5 104 66 104 66 -5 -5 -5"></polygon>
            </g>
            <g id="Group-75" transform="translate(43.000000, 1748.000000)">
                <mask id="mask-50" fill="white">
                    <use xlink:href="#path-49"></use>
                </mask>
                <g id="Clip-74"></g>
                <polygon id="Fill-73" fill="#005BEA" mask="url(#mask-50)" points="-5 104 66 104 66 -5 -5 -5"></polygon>
            </g>
            <g id="Group-78" transform="translate(166.000000, 2436.000000)">
                <mask id="mask-52" fill="white">
                    <use xlink:href="#path-51"></use>
                </mask>
                <g id="Clip-77"></g>
                <polygon id="Fill-76" fill="#005BEA" mask="url(#mask-52)" points="-5 104 66 104 66 -5 -5 -5"></polygon>
            </g>
            <g id="Group-81" transform="translate(58.000000, 871.000000)">
                <mask id="mask-54" fill="white">
                    <use xlink:href="#path-53"></use>
                </mask>
                <g id="Clip-80"></g>
                <polygon id="Fill-79" fill="#005BEA" mask="url(#mask-54)" points="-5 104 66 104 66 -5 -5 -5"></polygon>
            </g>
            <g id="Group-84" transform="translate(26.000000, 341.000000)">
                <mask id="mask-56" fill="white">
                    <use xlink:href="#path-55"></use>
                </mask>
                <g id="Clip-83"></g>
                <polygon id="Fill-82" fill="#005BEA" mask="url(#mask-56)" points="-5 104 66 104 66 -5 -5 -5"></polygon>
            </g>
            <g id="Group-87" transform="translate(247.000000, 1485.000000)">
                <mask id="mask-58" fill="white">
                    <use xlink:href="#path-57"></use>
                </mask>
                <g id="Clip-86"></g>
                <polygon id="Fill-85" fill="#005BEA" mask="url(#mask-58)" points="-5 104 66 104 66 -5 -5 -5"></polygon>
            </g>
            <g id="Group-90" transform="translate(72.000000, 2186.000000)">
                <mask id="mask-60" fill="white">
                    <use xlink:href="#path-59"></use>
                </mask>
                <g id="Clip-89"></g>
                <polygon id="Fill-88" fill="#005BEA" mask="url(#mask-60)" points="-5 104 66 104 66 -5 -5 -5"></polygon>
            </g>
            <g id="Group-93" transform="translate(163.000000, 1335.000000)">
                <mask id="mask-62" fill="white">
                    <use xlink:href="#path-61"></use>
                </mask>
                <g id="Clip-92"></g>
                <polygon id="Fill-91" fill="#005BEA" mask="url(#mask-62)" points="-5 104 66 104 66 -5 -5 -5"></polygon>
            </g>
            <g id="Group-96" transform="translate(185.000000, 2059.000000)">
                <mask id="mask-64" fill="white">
                    <use xlink:href="#path-63"></use>
                </mask>
                <g id="Clip-95"></g>
                <polygon id="Fill-94" fill="#005BEA" mask="url(#mask-64)" points="-5 104 66 104 66 -5 -5 -5"></polygon>
            </g>
            <g id="Group-99" transform="translate(187.000000, 697.000000)">
                <mask id="mask-66" fill="white">
                    <use xlink:href="#path-65"></use>
                </mask>
                <g id="Clip-98"></g>
                <polygon id="Fill-97" fill="#005BEA" mask="url(#mask-66)" points="-5 104 66 104 66 -5 -5 -5"></polygon>
            </g>
            <g id="Group-102" transform="translate(251.000000, 1943.000000)">
                <mask id="mask-68" fill="white">
                    <use xlink:href="#path-67"></use>
                </mask>
                <g id="Clip-101"></g>
                <polygon id="Fill-100" fill="#005BEA" mask="url(#mask-68)" points="-5 104 66 104 66 -5 -5 -5"></polygon>
            </g>
            <g id="Group-105" transform="translate(251.000000, 2715.000000)">
                <mask id="mask-70" fill="white">
                    <use xlink:href="#path-69"></use>
                </mask>
                <g id="Clip-104"></g>
                <polygon id="Fill-103" fill="#005BEA" mask="url(#mask-70)" points="-5 104 66 104 66 -5 -5 -5"></polygon>
            </g>
        </g>
    </g>
</svg>