<?xml version="1.0" encoding="UTF-8"?>
<svg width="1453px" height="1364px" viewBox="0 0 1453 1364" version="1.1" xmlns="http://www.w3.org/2000/svg" xmlns:xlink="http://www.w3.org/1999/xlink">
    <!-- Generator: Sketch 46.1 (44463) - http://www.bohemiancoding.com/sketch -->
    <title>water flooded copy</title>
    <desc>Created with Sketch.</desc>
    <defs>
        <path d="M1419.205,0.003 C1419.205,19.138 1403.692,34.651 1384.556,34.651 C1365.421,34.651 1349.908,19.138 1349.908,0.003 C1349.908,19.138 1334.396,34.651 1315.26,34.651 C1296.124,34.651 1280.611,19.138 1280.611,0.003 C1280.611,19.138 1265.099,34.651 1245.963,34.651 C1226.827,34.651 1211.314,19.138 1211.314,0.003 C1211.314,19.138 1195.802,34.651 1176.666,34.651 C1157.531,34.651 1142.017,19.138 1142.017,0.003 C1142.017,19.138 1126.505,34.651 1107.369,34.651 C1088.233,34.651 1072.721,19.138 1072.721,0.003 C1072.721,19.138 1057.208,34.651 1038.073,34.651 C1018.937,34.651 1003.424,19.138 1003.424,0.003 C1003.424,19.138 987.911,34.651 968.775,34.651 C949.639,34.651 934.127,19.138 934.127,0.003 C934.127,19.138 918.615,34.651 899.479,34.651 C880.343,34.651 864.83,19.138 864.83,0.003 C864.83,19.138 849.318,34.651 830.182,34.651 C811.046,34.651 795.533,19.138 795.533,0.003 C795.533,19.138 780.021,34.651 760.884,34.651 C741.749,34.651 726.236,19.138 726.236,0.003 C726.236,19.138 710.724,34.651 691.588,34.651 C672.452,34.651 656.94,19.138 656.94,0.003 C656.94,19.138 641.427,34.651 622.291,34.651 C603.156,34.651 587.642,19.138 587.642,0.003 C587.642,19.138 572.13,34.651 552.994,34.651 C533.858,34.651 518.346,19.138 518.346,0.003 C518.346,19.138 502.834,34.651 483.698,34.651 C464.561,34.651 449.05,19.138 449.05,0.003 C449.05,19.138 433.536,34.651 414.4,34.651 C395.265,34.651 379.752,19.138 379.752,0.003 C379.752,19.138 364.24,34.651 345.104,34.651 C325.967,34.651 310.456,19.138 310.456,0.003 C310.456,19.138 294.943,34.651 275.807,34.651 C256.671,34.651 241.159,19.138 241.159,0.003 C241.159,19.138 225.646,34.651 206.51,34.651 C187.374,34.651 171.862,19.138 171.862,0.003 C171.862,19.138 156.349,34.651 137.213,34.651 C118.077,34.651 102.565,19.138 102.565,0.003 C102.565,19.138 87.053,34.651 67.917,34.651 C48.781,34.651 33.268,19.138 33.268,0.003 C33.268,18.675 18.495,33.89 0,34.616 L0,1363.49 L1453,1363.49 L1453,34.629 C1434.26,34.174 1419.205,18.852 1419.205,0.003 Z" id="path-1"></path>
    </defs>
    <g id="Page-1" stroke="none" stroke-width="1" fill="none" fill-rule="evenodd">
        <g id="water-flooded-copy">
            <mask id="mask-2" fill="white">
                <use xlink:href="#path-1"></use>
            </mask>
            <g id="Clip-2"></g>
            <polygon id="Fill-1" fill="#005BEA" mask="url(#mask-2)" points="-5 1368.49 1458 1368.49 1458 -4.997 -5 -4.997"></polygon>
        </g>
    </g>
</svg>