<?xml version="1.0" encoding="UTF-8"?>
<svg width="80px" height="80px" viewBox="0 0 80 80" version="1.1" xmlns="http://www.w3.org/2000/svg" xmlns:xlink="http://www.w3.org/1999/xlink">
    <!-- Generator: Sketch 49.3 (51167) - http://www.bohemiancoding.com/sketch -->
    <title>circle logo adeslas</title>
    <desc>Created with Sketch.</desc>
    <defs></defs>
    <g id="UI" stroke="none" stroke-width="1" fill="none" fill-rule="evenodd">
        <g id="home-desktop" transform="translate(-64.000000, -5487.000000)">
            <g id="footer" transform="translate(0.000000, 5399.000000)">
                <g id="logos-footer" transform="translate(64.000000, 88.000000)">
                    <g id="circle-logo-adeslas">
                        <rect id="Rectangle-Copy-3" fill="#FFFFFF" x="0" y="0" width="80" height="80" rx="40"></rect>
                        <path d="M61.6741848,44.2451816 C61.6741848,43.0345841 58.2598455,43.2839521 58.2598455,40.9298322 C58.2598455,39.4033326 59.5191265,38.7401545 60.8773974,38.7401545 C61.5908818,38.7401545 62.2881384,38.9570668 62.9832312,39.1712744 L62.9177789,40.6636955 L62.3871283,40.6636955 C62.2042945,39.8187655 61.7396371,39.4033326 60.8449417,39.4033326 C60.1833864,39.4033326 59.7008784,39.7684592 59.7008784,40.448406 C59.7008784,42.039817 63,41.4426322 63,43.7156128 C63,45.2891732 61.7894025,45.9355825 60.3640565,45.9355825 C59.7852632,45.9355825 58.9387105,45.7684357 58.4421383,45.4541563 L58.3420666,43.9125107 L58.9549383,43.9125107 C59.1204624,44.7092981 59.7674126,45.2724044 60.5133527,45.2724044 C61.1278472,45.2724044 61.6741848,44.8905091 61.6741848,44.2451816 Z M54.4457602,42.1388069 C54.7454344,42.1388069 55.0591729,42.1885723 55.2409248,42.2215689 L55.2906902,44.6579099 C55.0256353,44.8250567 54.6951281,44.9408154 54.1801644,44.9408154 C53.4839897,44.9408154 52.8873458,44.3598584 52.8873458,43.5993133 C52.8873458,42.5363892 53.6841332,42.1388069 54.4457602,42.1388069 Z M53.51915,45.9355825 C54.2472395,45.9355825 54.7773492,45.5374593 55.3415374,45.1231082 C55.5400581,45.5374593 56.0377121,45.8522795 56.6684345,45.9355825 L57.9098649,44.9408154 L57.6615788,44.6925293 C57.5463611,44.7260669 57.3976058,44.7574407 57.3148438,44.7574407 C56.9486353,44.7574407 56.8166488,44.5421512 56.8166488,43.7799833 L56.8166488,43.1995673 C56.8344995,42.2545656 56.8821012,41.3939487 56.8821012,40.7978457 C56.8821012,39.1377368 55.6222792,38.7401545 54.1466268,38.7401545 C53.368231,38.7401545 52.704512,38.8396853 52.0083374,39.0392879 L52.0083374,40.614471 L52.4075424,40.614471 C52.8218935,39.9999765 53.2367855,39.7343807 54.0492598,39.7343807 C55.1754724,39.7343807 55.2409248,40.7302297 55.2409248,41.624925 C55.0110302,41.624925 54.726502,41.5757006 54.4614471,41.5757006 C52.95388,41.5757006 51.279166,42.2545656 51.279166,44.0120415 C51.279166,45.2394078 52.3907736,45.9355825 53.51915,45.9355825 Z M48.5631651,36.4687967 C48.5290867,35.7893908 48.2461812,35.3923494 47.7144487,35.3923494 L47.7144487,35.010995 C48.2970284,34.9282329 49.604993,34.4641165 50.0355719,34 L50.3677019,34 C50.3503922,34.8946954 50.3022496,36.5201849 50.3022496,38.0450617 L50.3022496,44.4777808 C50.3022496,45.0403462 50.4331542,45.3389386 50.947577,45.4211597 L50.947577,45.7532897 C50.4510048,45.7532897 49.9544327,45.7035243 49.4556968,45.7035243 C48.9758934,45.7035243 48.511236,45.7532897 48.0325145,45.7532897 L48.0325145,45.4211597 C48.5631651,45.3389386 48.6940698,45.0403462 48.6940698,44.6763015 L48.6940698,39.3043427 C48.6940698,38.3431132 48.6118487,37.10006 48.5631651,36.4687967 Z M45.8763744,44.2451816 C45.8763744,43.0345841 42.4604123,43.2839521 42.4604123,40.9298322 C42.4604123,39.4033326 43.7213161,38.7401545 45.079587,38.7401545 C45.7930714,38.7401545 46.4892461,38.9570668 47.1865027,39.1712744 L47.1188866,40.6636955 L46.5893178,40.6636955 C46.4064841,39.8187655 45.9418267,39.4033326 45.0471313,39.4033326 C44.3834123,39.4033326 43.9036089,39.7684592 43.9036089,40.448406 C43.9036089,42.039817 47.2011077,41.4426322 47.2011077,43.7156128 C47.2011077,45.2891732 45.9926739,45.9355825 44.5651642,45.9355825 C43.9852891,45.9355825 43.1409001,45.7684357 42.643246,45.4541563 L42.5442562,43.9125107 L43.1582098,43.9125107 C43.322652,44.7092981 43.9701431,45.2724044 44.7150014,45.2724044 C45.328955,45.2724044 45.8763744,44.8905091 45.8763744,44.2451816 Z M38.4321194,39.3043427 C39.5096485,39.3043427 39.973765,39.9334423 39.973765,40.9119816 L36.9889227,40.9119816 C36.957008,40.0659697 37.5368831,39.3043427 38.4321194,39.3043427 Z M39.1456038,45.9355825 C39.8406966,45.9355825 40.388116,45.803596 40.720246,45.6862146 L41.6154823,44.3771681 L41.4483355,44.1781065 C40.9517633,44.5421512 40.3221228,44.709839 39.709251,44.709839 C38.0015405,44.709839 36.8239396,43.2174179 36.9402392,41.5757006 L41.7642376,41.5757006 C41.7474688,39.8187655 40.4200308,38.7401545 38.713943,38.7401545 C36.4582721,38.7401545 35.3320594,40.7794541 35.3320594,42.3378685 C35.3320594,43.8962829 36.4582721,45.9355825 39.1456038,45.9355825 Z M30.7228095,39.4033326 C32.031856,39.4033326 32.4970543,40.0659697 32.4970543,41.6411529 L32.4970543,44.3609403 C32.0653935,44.7747504 31.6353555,44.9418972 31.1539294,44.9418972 C29.7118146,44.9418972 28.8831125,43.3164078 28.8831125,41.9402862 C28.8831125,40.8124508 29.414304,39.4033326 30.7228095,39.4033326 Z M30.439904,45.9355825 C31.0051741,45.9355825 31.3210762,45.8528205 31.601818,45.6851327 L32.5630475,44.8423664 C32.8286433,45.3389386 33.2927598,45.7532897 33.8234104,45.9355825 C34.1376898,45.5374593 34.7521843,45.0901116 35.3320594,44.709839 L35.0837733,44.4604711 C34.9669328,44.5270053 34.8511742,44.5940804 34.618575,44.5940804 C34.2372206,44.5940804 34.1052341,44.2603276 34.1052341,43.6642246 L34.1052341,39.5380237 C34.1052341,37.1498254 34.1723092,35.2922777 34.1723092,34 L33.8407201,34 C33.4252872,34.4641165 32.431061,34.9282329 31.6185868,35.1435224 L31.6185868,35.4745705 C32.0486247,35.5416456 32.4645986,35.7737038 32.4645986,36.7013958 L32.4645986,39.1545056 C31.8993285,38.8899917 31.3362222,38.7401545 30.7736568,38.7401545 C28.6505133,38.7401545 27.0910171,40.0659697 27.0910171,42.3714061 C27.0910171,44.3771681 28.4195369,45.9355825 30.439904,45.9355825 Z M21.7385317,37.2482743 L23.4137866,41.609779 L20.130352,41.609779 L21.7385317,37.2482743 Z M19.8485283,45.7689766 L19.8485283,45.4043909 C19.450946,45.4043909 19.2535072,45.0901116 19.2535072,44.6925293 C19.2535072,44.5102365 19.2848811,44.144569 19.3676431,43.8632863 L19.8160726,42.4049436 L23.7107562,42.4049436 L24.2917132,43.9465892 C24.40639,44.2787192 24.489152,44.5600019 24.489152,44.7904373 C24.489152,45.1723327 24.2917132,45.4043909 23.9438963,45.4043909 L23.9438963,45.7689766 C24.5086255,45.7689766 25.0544221,45.7035243 25.6186103,45.7035243 C26.1811757,45.7035243 26.729677,45.7689766 27.2911605,45.7689766 L27.2911605,45.4043909 C26.6961394,45.3389386 26.5473841,44.7904373 25.9669681,43.3164078 L22.3357166,34 L22.1371959,34 L18.6060161,42.9188255 C18.2917367,43.7156128 17.6615553,45.2724044 17,45.4043909 L17,45.7689766 C17.4776397,45.7689766 17.9433789,45.7035243 18.4231823,45.7035243 C18.9051494,45.7035243 19.3676431,45.7689766 19.8485283,45.7689766 Z" id="logo_adeslas" fill="#0097D7"></path>
                    </g>
                </g>
            </g>
        </g>
    </g>
</svg>