<?xml version="1.0" encoding="UTF-8"?>
<svg width="80px" height="80px" viewBox="0 0 80 80" version="1.1" xmlns="http://www.w3.org/2000/svg" xmlns:xlink="http://www.w3.org/1999/xlink">
    <!-- Generator: Sketch 49.3 (51167) - http://www.bohemiancoding.com/sketch -->
    <title>circle logo allianz</title>
    <desc>Created with Sketch.</desc>
    <defs></defs>
    <g id="UI" stroke="none" stroke-width="1" fill="none" fill-rule="evenodd">
        <g id="home-desktop" transform="translate(-176.000000, -5487.000000)">
            <g id="footer" transform="translate(0.000000, 5399.000000)">
                <g id="logos-footer" transform="translate(64.000000, 88.000000)">
                    <g id="circle-logo-allianz" transform="translate(112.000000, 0.000000)">
                        <rect id="Rectangle-Copy-4" fill="#FFFFFF" x="0" y="0" width="80" height="80" rx="40"></rect>
                        <path d="M58.5130999,43.0961324 L58.5130999,36.6656122 C58.5130999,36.1510601 58.3296076,35.9808323 57.829978,35.9808323 L56.3272205,35.9808323 L56.3272205,36.6982208 L56.4189666,36.6982208 C56.7577641,36.6982208 56.82685,36.7761498 56.82685,37.187902 L56.82685,43.0961324 L58.5130999,43.0961324 Z M59.2525959,43.0961324 L60.927792,43.0961324 L60.927792,38.0871247 C60.927792,37.5869425 60.7337986,37.4040029 60.2468808,37.4040029 L59.2525959,37.4040029 L59.2525959,43.0961324 Z M56.0906702,43.0961324 L56.0906702,37.4040029 L55.0974906,37.4040029 C54.6089147,37.4040029 54.4132633,37.5869425 54.4132633,38.0871247 L54.4132633,43.0961324 L56.0906702,43.0961324 Z M62.5084785,39.829196 C62.5084785,42.663378 60.471272,44.7237973 57.6713567,44.7237973 C54.8686779,44.7237973 52.8320241,42.663378 52.8320241,39.829196 C52.8320241,36.9944614 54.8686779,34.9334893 57.6713567,34.9334893 C60.471272,34.9334893 62.5084785,37.0060678 62.5084785,39.829196 Z M63.5,39.829196 C63.5,36.490963 61.0068263,34 57.6713567,34 C54.334229,34 51.8410553,36.490963 51.8410553,39.829196 C51.8410553,43.1652183 54.334229,45.656734 57.6713567,45.656734 C61.0068263,45.656734 63.5,43.1652183 63.5,39.829196 Z M49.1909183,42.0487894 L49.1909183,43.2442526 L44.7185703,43.2442526 L44.7185703,42.0714496 L47.1083914,38.7127671 L45.8338939,38.7127671 C45.5476017,38.7127671 45.4116405,38.8387799 45.4116405,39.1002011 L45.4116405,39.2018956 L44.7533896,39.2018956 L44.7533896,38.1661591 C44.7533896,37.7444584 44.9462776,37.5504651 45.3663202,37.5504651 L49.0787227,37.5504651 L49.0787227,38.7249262 L46.7104564,42.0487894 L49.1909183,42.0487894 Z M40.7242971,43.2442526 L38.9485119,43.2442526 L38.9485119,38.6326274 C38.9485119,38.3374922 38.8230518,38.2020837 38.5251532,38.2020837 L38.422906,38.2020837 L38.422906,37.5504651 L40.1091558,37.5504651 C40.4722715,37.5504651 40.6568692,37.7334047 40.6568692,38.0871247 L40.6568692,38.313174 C41.3162255,37.7007961 41.805354,37.4852479 42.5000823,37.4852479 C42.9665506,37.4852479 43.3313245,37.619551 43.5700855,37.8809723 C43.8541669,38.1904773 43.9243582,38.4734534 43.9243582,39.3732288 L43.9243582,43.2442526 L42.1452569,43.2442526 L42.1452569,39.6340973 C42.1452569,39.0664871 42.0557215,38.9183669 41.6787886,38.9183669 C41.3278319,38.9183669 41.0205376,39.0664871 40.7242971,39.3969943 L40.7242971,43.2442526 Z M35.9109409,40.5106598 L35.9109409,41.6182457 C35.615253,41.923882 35.2499265,42.1062689 34.9442903,42.1062689 C34.6248368,42.1062689 34.5093251,41.9454368 34.5093251,41.5253942 C34.5093251,41.1042463 34.6005186,40.9113583 34.9205247,40.7870036 C35.1592857,40.6814403 35.46658,40.593563 35.9109409,40.5106598 Z M33.5078552,39.17813 C34.100889,38.8957067 34.7491915,38.7348746 35.2609803,38.7348746 C35.7396077,38.7348746 35.9109409,38.9073131 35.9109409,39.4091534 L35.9109409,39.5318501 C35.1813932,39.6457037 34.9547913,39.6921295 34.5446971,39.7838756 C34.3048307,39.8391444 34.0887299,39.907125 33.8737344,39.9999765 C33.1568986,40.2823998 32.8131269,40.8422724 32.8131269,41.6961747 C32.8131269,42.7788897 33.2812533,43.3022848 34.2479039,43.3022848 C34.6005186,43.3022848 34.9205247,43.2331989 35.2057115,43.1187926 C35.4549736,43.0054916 35.6047519,42.9148508 35.9678677,42.629664 L35.9678677,42.7109091 C35.9678677,43.0618657 36.15136,43.2442526 36.503422,43.2442526 L38.1310869,43.2442526 L38.1310869,42.629664 L38.0509472,42.629664 C37.7431002,42.629664 37.6309046,42.4914921 37.6309046,42.1289291 L37.6309046,39.4185491 C37.6309046,37.9710603 37.129617,37.4730888 35.6826809,37.4730888 C35.2156599,37.4730888 34.760798,37.529463 34.3169899,37.6306048 C33.8737344,37.7334047 33.6460271,37.8240454 33.1104728,38.0871247 L33.5078552,39.17813 Z M32.0294159,36.3456061 C32.0294159,35.8321594 31.6557991,35.5243124 31.0069439,35.5243124 C30.3696951,35.5243124 29.980603,35.8321594 29.980603,36.3456061 C29.980603,36.8579475 30.3696951,37.1657945 31.0069439,37.1657945 C31.6557991,37.1657945 32.0294159,36.8579475 32.0294159,36.3456061 Z M31.99736,43.2442526 L31.99736,38.1335505 C31.99736,37.7671186 31.7801538,37.5504651 31.4297499,37.5504651 L29.6970743,37.5504651 L29.6970743,38.2020837 L29.7993215,38.2020837 C30.0961147,38.2020837 30.2210221,38.3374922 30.2210221,38.6326274 L30.2210221,43.2442526 L31.99736,43.2442526 Z M28.913916,43.2442526 L27.1276297,43.2442526 L27.1276297,36.7313821 C27.1276297,36.4373523 27.003275,36.3113395 26.7075871,36.3113395 L26.5937335,36.3113395 L26.5937335,35.6508778 L28.3452004,35.6508778 C28.6972624,35.6508778 28.913916,35.8669787 28.913916,36.2300944 L28.913916,43.2442526 Z M25.8774503,43.2442526 L24.089506,43.2442526 L24.089506,36.7313821 C24.089506,36.4373523 23.9651513,36.3113395 23.6694634,36.3113395 L23.5556098,36.3113395 L23.5556098,35.6508778 L25.3098402,35.6508778 C25.6630076,35.6508778 25.8774503,35.8669787 25.8774503,36.2300944 L25.8774503,43.2442526 Z M20.7805654,40.1713096 L19.1744552,40.1713096 L20.0289103,37.3813427 L20.7805654,40.1713096 Z M18.3448712,43.2442526 L18.8909265,41.4109879 L21.0535931,41.4109879 L21.5648291,43.2442526 L23.5688743,43.2442526 L21.5758828,36.2544127 C21.4631346,35.8426604 21.2127671,35.6508778 20.7805654,35.6508778 L17.94362,35.6508778 L17.94362,36.3113395 L18.1840391,36.3113395 C18.4797269,36.3113395 18.638901,36.4251931 18.638901,36.6529004 C18.638901,36.800468 18.605187,36.9264808 18.4913334,37.267489 L16.5,43.2442526 L18.3448712,43.2442526 Z" id="logo_allianz" fill="#004B93"></path>
                    </g>
                </g>
            </g>
        </g>
    </g>
</svg>