<?xml version="1.0" encoding="UTF-8"?>
<svg width="80px" height="80px" viewBox="0 0 80 80" version="1.1" xmlns="http://www.w3.org/2000/svg" xmlns:xlink="http://www.w3.org/1999/xlink">
    <!-- Generator: Sketch 49.3 (51167) - http://www.bohemiancoding.com/sketch -->
    <title>circle logo asisa</title>
    <desc>Created with Sketch.</desc>
    <defs></defs>
    <g id="UI" stroke="none" stroke-width="1" fill="none" fill-rule="evenodd">
        <g id="home-desktop" transform="translate(-288.000000, -5487.000000)">
            <g id="footer" transform="translate(0.000000, 5399.000000)">
                <g id="logos-footer" transform="translate(64.000000, 88.000000)">
                    <g id="circle-logo-asisa" transform="translate(224.000000, 0.000000)">
                        <rect id="Rectangle-Copy-5" fill="#FFFFFF" x="0" y="0" width="80" height="80" rx="40"></rect>
                        <path d="M59.6421919,38.9508551 C59.3788335,37.3414941 58.7150047,36.1965797 57.9466604,36.1965797 L55.1769991,36.1965797 C56.067968,36.7706571 56.4011759,38.2628263 56.4011759,38.2628263 C56.4565381,38.4766877 56.5020696,38.7078308 56.5398401,38.9508551 L54.1815146,38.9508551 L54.1815146,42.049685 L56.5398401,42.049685 C56.5067262,42.259766 56.4668862,42.4590459 56.4213547,42.6480648 L56.4011759,42.7360936 C56.4011759,42.7360936 56.3199436,43.0385239 56.1828316,43.4127813 C55.9929445,43.8842484 55.6706021,44.4847885 55.1769991,44.8023402 L57.9466604,44.8023402 C58.2198495,44.8023402 58.4795861,44.6554455 58.7129351,44.3967597 C59.1356538,43.9274527 59.4730009,43.0865887 59.6416745,42.049685 L62,42.049685 L62,38.9508551 L59.6421919,38.9508551 Z M48.3917686,36 C46.1462371,36 45.0301976,36.990459 45.0229539,38.9535554 L47.0547977,38.9535554 C47.0630762,38.1445545 47.5680621,37.9063906 48.3917686,37.9063906 C49.323095,37.9063906 49.779445,38.249865 49.779445,38.9540954 L49.779445,39.6070207 L48.0709784,39.6070207 C45.7840546,39.6070207 44.6328316,40.50027 44.6328316,42.2862286 C44.6328316,44.0894689 45.7504233,45 48.3069144,45 C50.8634055,45 51.9804798,44.0894689 51.9804798,42.2349235 L51.9804798,38.9540954 C51.9804798,36.9791179 50.7785513,36 48.3917686,36 Z M49.779445,42.1144914 C49.6945908,43.0417642 49.1368297,43.1454545 48.2727658,43.1281728 C47.4438852,43.1454545 46.9016463,43.0585059 46.8338664,42.2349235 C46.8338664,41.5987399 47.2400282,41.290369 48.0363123,41.290369 L49.779445,41.290369 L49.779445,42.1144914 Z M41.7829727,39.830063 L40.0222484,39.1258326 C39.3625588,38.8682268 39.1581844,38.729973 39.1581844,38.4561656 C39.1581844,38.0954095 39.4805268,37.940414 40.5132643,37.940414 C41.5040922,37.940414 41.8114299,38.2277228 41.8171214,38.9535554 L43.8137817,38.9535554 C43.8075729,36.990459 42.7246472,36 40.547413,36 C38.0416275,36 36.9912982,36.8241224 36.9912982,38.5247525 C36.9912982,39.830063 37.6178739,40.3971197 38.9222484,40.9641764 L40.49619,41.6333033 C41.0555033,41.8568857 41.3938852,42.0280828 41.529445,42.1323132 C41.6644873,42.2349235 41.7317498,42.3720972 41.7317498,42.5265527 C41.7317498,42.9218722 41.3762935,43.0590459 40.3606303,43.0590459 C39.1700847,43.0590459 38.8363594,42.8441044 38.8218721,42.0486049 L36.8241769,42.0486049 C36.8428034,44.0878488 37.8610536,44.9994599 40.3606303,44.9994599 C42.8834901,44.9994599 43.8991533,44.1926193 43.8991533,42.4061206 C43.8991533,41.050045 43.2565381,40.3971197 41.7829727,39.830063 Z M33.8899812,44.7942394 L36.0904986,44.7942394 L36.0904986,36.2057606 L33.8899812,36.2057606 L33.8899812,44.7942394 Z M31.0401223,39.830063 L29.2788805,39.1258326 C28.619191,38.8682268 28.415334,38.729973 28.415334,38.4561656 C28.415334,38.0954095 28.7376764,37.940414 29.7709313,37.940414 C30.7591722,37.940414 31.0670273,38.2277228 31.0732361,38.950315 L33.0714487,38.950315 C33.0626529,36.9893789 31.9802446,36 29.8040452,36 C27.2982596,36 26.2484478,36.8241224 26.2484478,38.5247525 C26.2484478,39.830063 26.8750235,40.3971197 28.1783631,40.9641764 L29.7533396,41.6333033 C30.3121355,41.8568857 30.6505174,42.0280828 30.7860771,42.1323132 C30.9216369,42.2349235 30.9888993,42.3720972 30.9888993,42.5265527 C30.9888993,42.9218722 30.6339605,43.0590459 29.6177799,43.0590459 C28.425682,43.0590459 28.0924741,42.8441044 28.0779868,42.0464446 L26.0813264,42.0464446 C26.0989182,44.0873087 27.1182032,44.9994599 29.6177799,44.9994599 C32.1401223,44.9994599 33.1563029,44.1926193 33.1563029,42.4061206 C33.1563029,41.050045 32.5126529,40.3971197 31.0401223,39.830063 Z M21.7579022,36 C19.5144403,36 18.3978833,36.9893789 18.3896049,38.9492349 L20.4214487,38.9492349 C20.430762,38.1434743 20.9352305,37.9063906 21.7579022,37.9063906 C22.6892286,37.9063906 23.1466134,38.249865 23.1466134,38.9540954 L23.1466134,39.6070207 L21.4360771,39.6070207 C19.1501881,39.6070207 18,40.50027 18,42.2862286 C18,44.0894689 19.1170743,45 21.6735654,45 C24.2305738,45 25.3471308,44.0894689 25.3471308,42.2349235 L25.3471308,38.9540954 C25.3471308,36.9791179 24.1457197,36 21.7579022,36 Z M23.1466134,42.1144914 C23.0622766,43.0417642 22.5029633,43.1454545 21.6399341,43.1281728 C20.8100188,43.1454545 20.2677799,43.0585059 20.2005174,42.2349235 C20.2005174,41.5987399 20.6066792,41.290369 21.4024459,41.290369 L23.1466134,41.290369 L23.1466134,42.1144914 Z" id="logo_asisa" fill="#004F8B"></path>
                    </g>
                </g>
            </g>
        </g>
    </g>
</svg>