<?xml version="1.0" encoding="UTF-8"?>
<svg width="80px" height="80px" viewBox="0 0 80 80" version="1.1" xmlns="http://www.w3.org/2000/svg" xmlns:xlink="http://www.w3.org/1999/xlink">
    <!-- Generator: Sketch 49.3 (51167) - http://www.bohemiancoding.com/sketch -->
    <title>circle logo axa</title>
    <desc>Created with Sketch.</desc>
    <defs></defs>
    <g id="UI" stroke="none" stroke-width="1" fill="none" fill-rule="evenodd">
        <g id="home-desktop" transform="translate(-400.000000, -5487.000000)">
            <g id="footer" transform="translate(0.000000, 5399.000000)">
                <g id="logos-footer" transform="translate(64.000000, 88.000000)">
                    <g id="circle-logo-axa" transform="translate(336.000000, 0.000000)">
                        <rect id="Rectangle-Copy-6" fill="#FFFFFF" x="0" y="0" width="80" height="80" rx="40"></rect>
                        <g id="logo_axa" transform="translate(23.000000, 23.000000)">
                            <polygon id="Fill-1" fill="#002E86" points="0 34.1185795 33.6188837 34.1185795 33.6188837 0.295056818 0 0.295056818"></polygon>
                            <polygon id="Fill-2" fill="#EB0028" points="31.7314884 0.295454545 18.9016279 16.9992045 20.8333023 16.9992045 33.6204651 0.295454545"></polygon>
                            <path d="M25.6888186,24.4518977 C26.2755163,26.100875 27.4821209,30.3939432 27.9636558,30.7351932 L24.7929581,30.7351932 C24.7929581,30.7351932 24.7810977,30.1028068 24.6450977,29.6088295 C24.5059349,29.1188295 23.3617953,25.4080341 23.3617953,25.4080341 L18.3250512,25.4080341 L17.5327721,26.5375795 C17.5327721,26.5375795 18.4847721,29.5324659 18.5432837,29.6788295 C18.6452837,29.9413295 19.0991442,30.7351932 19.0991442,30.7351932 L16.0620744,30.7351932 C16.0620744,30.7351932 15.9830047,30.2778068 15.9537488,30.0884886 C15.9300279,29.9341705 15.6667256,29.0917841 15.6667256,29.0917841 C15.6667256,29.0917841 14.9780279,29.8506477 14.7890512,30.2022386 C14.6008651,30.5538295 14.5170512,30.7351932 14.5170512,30.7351932 L12.1394233,30.7351932 C12.1394233,30.7351932 12.0611442,30.2778068 12.0295163,30.0884886 C12.0081674,29.9341705 11.7179814,29.023375 11.7179814,29.023375 C11.7179814,29.023375 11.052214,29.837125 10.8616558,30.1887159 C10.6742605,30.5379205 10.5936093,30.7351932 10.5936093,30.7351932 L8.24207442,30.7351932 C8.24207442,30.7351932 8.90546977,30.1004205 9.13793488,29.8251932 C9.53012093,29.3630341 10.9889581,27.4467841 10.9889581,27.4467841 L10.4030512,25.4080341 L5.40663256,25.4080341 C5.40663256,25.4080341 2.55774884,29.1745114 2.44467907,29.2906477 C2.3324,29.4067841 1.50058605,30.6047386 1.4824,30.7351932 L-0.000158139535,30.7351932 L-0.000158139535,29.7854205 L0.0583534884,29.7297386 C0.105004651,29.6963295 2.21933023,27.0562159 4.16128372,24.4518977 C5.90556279,22.1816705 7.54388837,19.9734886 7.68779535,19.7618977 C8.03570233,19.2551932 8.53700465,18.1574659 8.53700465,18.1574659 L11.1210047,18.1574659 C11.1210047,18.1574659 11.2000744,19.1653068 11.2759814,19.4134886 C11.3424,19.6298523 12.9182605,24.8241705 12.9546326,24.8798523 L13.8244,23.7622386 L12.3378884,19.1549659 C12.3378884,19.1549659 11.9884,18.2863295 11.8753302,18.1574659 L14.8926326,18.1574659 C14.8926326,18.1574659 14.8673302,18.602125 14.9890977,18.9823523 C15.1132372,19.3617841 15.7616093,21.7107614 15.7616093,21.7107614 C15.7616093,21.7107614 17.8174233,19.1151932 17.9391907,18.9282614 C18.1661209,18.6156477 18.1930047,18.1574659 18.1930047,18.1574659 L20.708214,18.1574659 C20.708214,18.1574659 20.2480279,18.4955341 19.4407256,19.5232614 C19.1718884,19.8676932 16.5151442,23.2626932 16.5151442,23.2626932 C16.5151442,23.2626932 16.7452372,24.0573523 16.858307,24.4518977 C16.8899349,24.5656477 16.910493,24.6420114 16.910493,24.6507614 C16.910493,24.6539432 16.970586,24.5815568 17.070214,24.4518977 C17.7557488,23.5784886 20.8718884,19.4675795 21.0600744,19.1167841 C21.2150512,18.8328068 21.4372372,18.5082614 21.568493,18.1574659 L24.0212372,18.1574659 C24.0212372,18.1574659 24.0781674,18.8940568 24.152493,19.0992841 L25.6888186,24.4518977 Z M21.9559349,20.5613295 C21.594586,21.340875 19.476307,23.9364432 19.476307,23.9364432 L22.8351907,23.9364432 C22.8351907,23.9364432 22.1812837,21.9207614 22.0690047,21.4665568 C21.9796558,21.1054205 22.002586,20.6384886 22.002586,20.5843977 L21.9559349,20.5613295 Z M9.05412093,20.5613295 C8.69435349,21.340875 6.57370233,23.9364432 6.57370233,23.9364432 L9.93258605,23.9364432 C9.93258605,23.9364432 9.28184186,21.9207614 9.16956279,21.4665568 C9.07705116,21.1054205 9.10156279,20.6384886 9.10156279,20.5843977 L9.05412093,20.5613295 Z M14.1098419,28.4347386 L15.0341674,27.1572386 C14.9487721,27.0649659 14.428493,25.4780341 14.428493,25.4780341 L13.5350047,26.6441705 L14.1098419,28.4347386 Z" id="Fill-3" fill="#FEFEFE"></path>
                        </g>
                    </g>
                </g>
            </g>
        </g>
    </g>
</svg>