<?xml version="1.0" encoding="UTF-8"?>
<svg width="80px" height="80px" viewBox="0 0 80 80" version="1.1" xmlns="http://www.w3.org/2000/svg" xmlns:xlink="http://www.w3.org/1999/xlink">
    <!-- Generator: Sketch 49.3 (51167) - http://www.bohemiancoding.com/sketch -->
    <title>circle logo dkv</title>
    <desc>Created with Sketch.</desc>
    <defs></defs>
    <g id="UI" stroke="none" stroke-width="1" fill="none" fill-rule="evenodd">
        <g id="home-desktop" transform="translate(-624.000000, -5487.000000)">
            <g id="footer" transform="translate(0.000000, 5399.000000)">
                <g id="logos-footer" transform="translate(64.000000, 88.000000)">
                    <g id="circle-logo-dkv" transform="translate(560.000000, 0.000000)">
                        <rect id="Rectangle-Copy-8" fill="#FFFFFF" x="0" y="0" width="80" height="80" rx="40"></rect>
                        <g id="logo_DKV" transform="translate(17.500000, 34.500000)">
                            <path d="M20.3321647,4.84214762 C22.0956353,4.84057619 23.8029882,4.88143333 25.4521059,4.95948095 C25.4521059,4.95948095 25.4822824,5.00243333 25.4621647,5.02757619 L30.0918706,10.5904333 L24.4292824,10.5904333 L20.2040471,4.92438571 C20.2559294,4.85524286 20.3321647,4.84214762 20.3321647,4.84214762 M32.4916941,5.56971905 C34.1656941,5.78971905 35.7549882,6.05267143 37.2564,6.35648095 C37.2564,6.35648095 37.3315765,6.38948095 37.3638706,6.46229048 L37.5301059,6.89862381 L37.6794,6.52829048 C37.7037529,6.46752857 37.7762824,6.4638619 37.7762824,6.4638619 C39.0865765,6.74305238 40.3243412,7.05419524 41.4885176,7.39467143 C41.4885176,7.39467143 41.5494,7.43395714 41.5255765,7.49052857 L40.1422235,10.5904333 L34.6268118,10.5904333 L32.4181059,5.64567143 C32.3964,5.59276667 32.4916941,5.56971905 32.4916941,5.56971905 M0.0747529412,7.11181429 C1.4184,6.75824286 2.84887059,6.44238571 4.36563529,6.16424286 C4.38575294,6.16162381 4.43445882,6.17943333 4.43445882,6.23390952 L4.43445882,8.1851 L5.67963529,8.1851 C7.63051765,8.1851 8.83916471,7.35852857 8.94716471,5.55924286 C8.94716471,5.5068619 9.02287059,5.47019524 9.02287059,5.47019524 C10.4009294,5.3083381 11.8329882,5.1763381 13.3137529,5.07681429 C13.3137529,5.07681429 13.3884,5.09200476 13.3884,5.15276667 C13.3899882,5.22871905 13.3936941,5.30519524 13.3936941,5.38429048 C13.3936941,6.9368619 12.8722235,8.44962381 11.9399294,9.18348095 C10.6767529,10.1797667 9.49404706,10.5904333 6.18734118,10.5904333 L0.000105882353,10.5904333 L0.000105882353,7.21395714 C0.000105882353,7.1563381 0.0504,7.11705238 0.0747529412,7.11181429 M15.5124,4.9511 C16.9190471,4.88667143 18.3664588,4.8521 19.8530471,4.84214762 C19.8530471,4.84214762 19.9276941,4.85995714 19.9276941,4.92438571 L19.9276941,10.5904333 L15.4218706,10.5904333 L15.4218706,5.03700476 C15.4218706,4.96419524 15.5124,4.9511 15.5124,4.9511" id="Fill-1" fill="#AAAC00"></path>
                            <path d="M32.4181588,5.64373333 L29.8949824,0.00020952381 L34.8624529,0.00020952381 L37.3639235,6.46192381 C35.8116882,6.14292381 34.1583353,5.86897143 32.4181588,5.64373333 M37.6794529,6.52792381 L40.2746294,0.00020952381 L44.8704529,0.00020952381 L41.5256294,7.4901619 C40.3212176,7.13711429 39.0389824,6.81601905 37.6794529,6.52792381 M15.4219235,5.0371619 L15.4219235,0.00020952381 L19.9277471,0.00020952381 L19.9277471,4.92454286 C18.3845118,4.93135238 16.8788647,4.96959048 15.4219235,5.0371619 M20.2041,4.92454286 L24.0550412,0.00020952381 L29.6159824,0.00020952381 L25.4622176,5.02720952 C23.7813353,4.96120952 22.0205118,4.91982857 20.2041,4.92454286 M0.000158823529,7.21620952 L0.000158823529,0.00020952381 L5.41868824,0.00020952381 C8.57292353,0.00020952381 10.6201588,0.2794 12.0850412,1.74606667 C12.8225118,2.4846381 13.3397471,3.67473333 13.3884529,5.15292381 C11.8515706,5.25559048 10.3745118,5.39387619 8.94721765,5.5594 C8.9541,5.4771619 8.95568824,5.38601905 8.95568824,5.29487619 C8.95568824,3.31644762 7.72639412,2.40501905 5.67968824,2.40501905 L4.43451176,2.40501905 L4.43451176,6.23406667 C2.86533529,6.5216381 1.3851,6.84901905 0.000158823529,7.21620952" id="Fill-4" fill="#004C44"></path>
                        </g>
                    </g>
                </g>
            </g>
        </g>
    </g>
</svg>