<?xml version="1.0" encoding="UTF-8"?>
<svg width="80px" height="80px" viewBox="0 0 80 80" version="1.1" xmlns="http://www.w3.org/2000/svg" xmlns:xlink="http://www.w3.org/1999/xlink">
    <!-- Generator: Sketch 49.3 (51167) - http://www.bohemiancoding.com/sketch -->
    <title>circle logo fenix</title>
    <desc>Created with Sketch.</desc>
    <defs></defs>
    <g id="UI" stroke="none" stroke-width="1" fill="none" fill-rule="evenodd">
        <g id="home-desktop" transform="translate(-736.000000, -5487.000000)">
            <g id="footer" transform="translate(0.000000, 5399.000000)">
                <g id="logos-footer" transform="translate(64.000000, 88.000000)">
                    <g id="circle-logo-fenix" transform="translate(672.000000, 0.000000)">
                        <rect id="Rectangle-Copy-9" fill="#FFFFFF" x="0" y="0" width="80" height="80" rx="40"></rect>
                        <g id="logo_fenix-directo" transform="translate(15.000000, 32.500000)">
                            <polygon id="Fill-1" fill="#004B93" points="0.028255814 0 -0.00023255814 15.1989423 49.410814 15.2955192 49.4387209 0.0959807692"></polygon>
                            <path d="M38.3695349,6.33586346 L41.4718605,6.34242115 L41.3584884,7.17226731 L40.3596512,7.17047885 L40.0206977,9.651075 L38.905,9.64869038 L39.2451163,7.16809423 L38.2561628,7.16690192 L38.3695349,6.33586346 Z M36.7433721,6.29472885 C37.2003488,6.29592115 37.555,6.36388269 37.8515116,6.51530577 L37.7195349,7.48047885 C37.4311628,7.27122885 37.1590698,7.17345962 36.8422093,7.17286346 C36.2869767,7.17167115 35.8898837,7.48226731 35.8236047,7.96753654 C35.7515116,8.49155577 36.0590698,8.80334423 36.6422093,8.80453654 C36.9451163,8.80513269 37.2276744,8.72286346 37.6061628,8.51480577 L37.4852326,9.39830577 C37.1218605,9.596825 36.7172093,9.68803654 36.2183721,9.68684423 C35.6439535,9.68565192 35.2166279,9.50084423 34.9503488,9.13122885 C34.7340698,8.83434423 34.6445349,8.43551731 34.7015116,8.01344038 C34.8427907,6.98447885 35.6654651,6.29234423 36.7433721,6.29472885 Z M32.074186,6.32334423 L34.4625581,6.32811346 L34.3666279,7.02740192 L33.0794186,7.02501731 L32.9986047,7.61699808 L34.1736047,7.61938269 L34.0794186,8.30913269 L32.9038372,8.30674808 L32.8201163,8.92317115 L34.1206977,8.92555577 L34.0230233,9.63915192 L31.6212791,9.63378654 L32.074186,6.32334423 Z M26.4922093,6.31320962 L27.6067442,6.31499808 L27.1532558,9.62603654 L26.0387209,9.62365192 L26.4922093,6.31320962 Z M24.4683721,7.31415192 C24.5869767,7.46020962 24.627093,7.67840192 24.5869767,7.96992115 C24.5073256,8.55236346 24.2131395,8.82897885 23.6718605,8.82778654 L23.3776744,8.82719038 L23.6148837,7.093575 L23.8759302,7.09417115 C24.1515116,7.09476731 24.349186,7.16809423 24.4683721,7.31415192 Z M25.4073256,6.82053654 C25.2677907,6.64824808 25.0968605,6.520075 24.8898837,6.43542115 C24.682907,6.35076731 24.4393023,6.30903654 24.152093,6.30844038 L22.607907,6.30545962 L22.3962791,7.85188269 L22.1544186,9.61590192 L23.8852326,9.61947885 C24.2259302,9.620075 24.4898837,9.56701731 24.7305814,9.44599808 C24.8567442,9.38280577 24.9747674,9.30113269 25.0823256,9.20395962 C25.4055814,8.91124808 25.6323256,8.48022885 25.6962791,8.01045962 C25.7439535,7.66469038 25.6986047,7.34336346 25.5672093,7.07330577 C25.5236047,6.98328654 25.4701163,6.89863269 25.4073256,6.82053654 Z M20.5619767,6.30128654 L19.0416279,7.86201731 L20.1933721,9.61172885 L18.8026744,9.60934423 L18.2323256,8.55892115 L17.3375581,9.60636346 L16.110814,9.60338269 L17.7067442,7.96574808 L16.6154651,6.29353654 L18.0055814,6.29651731 L18.5195349,7.27838269 L19.3352326,6.29890192 L20.5619767,6.30128654 Z M14.9840698,6.29055577 L16.0986047,6.29234423 L15.6456977,9.60219038 L14.5305814,9.60099808 L14.9840698,6.29055577 Z M13.1660465,6.28638269 L14.2951163,6.28936346 L13.8416279,9.59980577 L12.8811628,9.59801731 L11.4951163,7.89540192 L11.3323256,9.59444038 L10.207907,9.59205577 L10.6613953,6.28161346 L11.6177907,6.28399808 L13.0032558,7.99078654 L13.1660465,6.28638269 Z M7.69569767,6.27565192 L10.0840698,6.28101731 L9.98872093,6.97970962 L8.70093023,6.977325 L8.62011628,7.56930577 L9.79511628,7.57169038 L9.70093023,8.26084423 L8.52534884,8.25905577 L8.44046512,8.87488269 L9.7427907,8.87786346 L9.64511628,9.59086346 L7.2422093,9.58669038 L7.69569767,6.27565192 Z M4.88406977,6.27088269 L7.20790698,6.27505577 L7.11197674,6.97374808 L5.88930233,6.97195962 L5.80732558,7.57347885 L6.955,7.57586346 L6.85906977,8.27515192 L5.71139535,8.27217115 L5.53232558,9.58311346 L4.43116279,9.58072885 L4.88406977,6.27088269 Z M11.2648837,4.29344038 L9.31895349,5.60438269 L10.2927907,4.29165192 L11.2648837,4.29344038 Z M29.4410465,7.73622885 L29.1986047,7.73622885 L29.3195349,6.85272885 L29.5706977,6.853325 C30.0003488,6.85392115 30.1689535,6.98567115 30.1288372,7.28136346 C30.1073256,7.43934423 30.0427907,7.55320962 29.9294186,7.62772885 C29.8166279,7.70224808 29.6555814,7.73742115 29.4410465,7.73622885 Z M31.124186,9.19620962 L30.9945349,8.75863269 C30.9736047,8.69067115 30.9486047,8.61436346 30.9247674,8.54401731 C30.9003488,8.47367115 30.877093,8.40988269 30.8573256,8.36576731 C30.782907,8.19049808 30.7183721,8.11776731 30.5759302,8.03549808 C30.7544186,7.95740192 30.8956977,7.85426731 30.9986047,7.72609423 C31.0497674,7.66170962 31.0916279,7.59136346 31.1236047,7.51445962 C31.1561628,7.43755577 31.1782558,7.35409423 31.1898837,7.264075 C31.2125581,7.101325 31.1904651,6.94572885 31.1311628,6.81159423 C31.1009302,6.744825 31.0619767,6.68342115 31.0137209,6.62797885 C30.9654651,6.57313269 30.9084884,6.52544038 30.8439535,6.48669038 C30.7183721,6.41336346 30.5759302,6.36447885 30.424186,6.34480577 C30.3009302,6.334075 30.1276744,6.32692115 29.9311628,6.32334423 C29.8654651,6.32215192 29.8067442,6.31976731 29.732907,6.31976731 L28.2910465,6.31678654 L27.8381395,9.62722885 L28.9393023,9.62901731 L29.1282558,8.24594038 L29.3666279,8.24653654 C29.4480233,8.24653654 29.5096512,8.25309423 29.5584884,8.26620962 C29.6073256,8.28051731 29.6433721,8.302575 29.6765116,8.33417115 C29.6863953,8.34251731 29.6927907,8.36040192 29.7026744,8.36994038 C29.7369767,8.40749808 29.7724419,8.44684423 29.7980233,8.50467115 C29.8398837,8.589325 29.8811628,8.68888269 29.9201163,8.79678654 C29.9584884,8.90528654 29.9951163,9.02213269 30.027093,9.14076731 L30.1567442,9.63140192 L31.2532558,9.63319038 L31.124186,9.19620962 Z M42.7003488,8.000325 C42.7625581,7.54903654 43.032907,7.27242115 43.4160465,7.27361346 C43.5102326,7.27361346 43.5933721,7.29149808 43.6637209,7.32488269 C43.8753488,7.42563269 43.9730233,7.66767115 43.9276744,8.00270962 C43.8643023,8.45936346 43.5986047,8.73061346 43.2166279,8.73001731 C42.8340698,8.728825 42.6381395,8.45697885 42.7003488,8.000325 Z M44.7422093,6.77284423 C44.632907,6.65003654 44.4933721,6.55524808 44.3369767,6.47894038 C44.1148837,6.37222885 43.8538372,6.30784423 43.5474419,6.30724808 C43.4172093,6.30724808 43.2910465,6.31738269 43.1695349,6.33765192 C42.9259302,6.37759423 42.7026744,6.45747885 42.5044186,6.57194038 C42.0096512,6.85690192 41.6730233,7.35826731 41.5846512,7.99853654 C41.5672093,8.12730577 41.560814,8.25011346 41.5660465,8.36695962 C41.5788372,8.66920962 41.6712791,8.92436346 41.8206977,9.13301731 C41.9398837,9.30053654 42.0986047,9.43347885 42.2945349,9.52826731 C42.5160465,9.635575 42.7776744,9.69995962 43.082907,9.70055577 C44.1282558,9.70234423 44.9061628,9.03345962 45.0468605,8.00509423 C45.1172093,7.49240192 45.0038372,7.06853654 44.7422093,6.77284423 Z" id="Fill-2" fill="#FEFEFE"></path>
                        </g>
                    </g>
                </g>
            </g>
        </g>
    </g>
</svg>