<?xml version="1.0" encoding="UTF-8"?>
<svg width="80px" height="80px" viewBox="0 0 80 80" version="1.1" xmlns="http://www.w3.org/2000/svg" xmlns:xlink="http://www.w3.org/1999/xlink">
    <!-- Generator: Sketch 49.3 (51167) - http://www.bohemiancoding.com/sketch -->
    <title>circle logo generali</title>
    <desc>Created with Sketch.</desc>
    <defs></defs>
    <g id="UI" stroke="none" stroke-width="1" fill="none" fill-rule="evenodd">
        <g id="home-desktop" transform="translate(-848.000000, -5487.000000)">
            <g id="footer" transform="translate(0.000000, 5399.000000)">
                <g id="logos-footer" transform="translate(64.000000, 88.000000)">
                    <g id="circle-logo-generali" transform="translate(784.000000, 0.000000)">
                        <rect id="Rectangle-Copy-10" fill="#FFFFFF" x="0" y="0" width="80" height="80" rx="40"></rect>
                        <path d="M23.9882858,42.8645698 L26.2693834,42.2686888 L26.2693834,41.5173024 L23.9882858,42.1131834 L23.9882858,42.8645698 Z M29.3046182,42.1131834 L27.0235205,41.5173024 L27.0235205,42.2686888 L29.3046182,42.8645698 L29.3046182,42.1131834 Z M29.3046182,40.6023671 L27.0235205,40.0078267 L27.0235205,40.7592131 L29.3046182,41.3537535 L29.3046182,40.6023671 Z M23.9882858,41.3537535 L26.2693834,40.7592131 L26.2693834,40.0078267 L23.9882858,40.6023671 L23.9882858,41.3537535 Z M23.9882858,39.8442778 L26.2693834,39.2483969 L26.2693834,38.4976807 L23.9882858,39.0928914 L23.9882858,39.8442778 Z M29.3046182,39.0928914 L27.0235205,38.498351 L27.0235205,39.2483969 L29.3046182,39.8442778 L29.3046182,39.0928914 Z M57.5,44.923677 L57.5,46.7488556 L22.505372,46.7488556 L22.505372,37.5881076 L24.4134055,37.0914285 C24.0890598,36.5706191 23.9969617,35.8882718 24.2525674,35.4934755 C24.4888192,35.1335339 24.9693313,34.8117984 25.5666345,34.8117984 L25.5799821,34.8117984 C25.6287007,34.7327051 25.6874299,34.6596443 25.7541677,34.5959675 C25.9844131,34.3781258 26.2967459,34.2688698 26.6577974,34.2802646 C27.2170601,34.2983622 27.8470648,34.6020001 28.3863062,35.1033712 L29.1424453,33.880106 L28.9622533,33.718568 L28.9088631,33.6642751 C28.8267756,33.5818304 28.7099845,33.4444225 28.7099845,33.1990992 C28.7099845,32.9551165 28.95291,32.6823116 29.4661236,32.633381 L30.1795506,32.5569688 C30.5292566,32.5314981 31.0177773,32.3263917 31.0177773,31.9456714 C31.0177773,31.8062526 30.8923102,31.6795693 30.7534956,31.6795693 C30.6433783,31.6916344 30.3090219,31.9148384 30.1822201,31.9992939 C29.8698873,32.2064112 29.5769084,32.3753223 29.2151895,32.3753223 C28.7193277,32.3753223 28.3168989,32.0234241 28.3168989,31.5582482 C28.3168989,31.4168186 28.354272,31.2794108 28.4236793,31.1574194 L28.4303531,31.1460246 C28.3229053,31.030736 28.2221312,30.8772414 28.1874276,30.6895624 C28.1560608,30.5172998 28.1680736,30.2545491 28.4049928,29.9777226 C28.6419119,29.6975446 28.947571,29.3034186 29.1998398,28.7330084 L29.2105179,28.710889 L29.4214093,28.3140819 C29.4761343,28.2316372 29.5535501,28.1465114 29.6543242,28.0627261 C29.8138275,27.7356283 30.030058,27.385741 30.2542969,27.0975196 C30.4605167,26.8327581 30.7448197,26.6169272 30.9470352,26.483541 C31.183287,26.3260247 31.4735964,26.1946493 31.7645731,26.1095235 C32.6461794,25.8548162 33.7540267,26.0505387 34.7270637,26.6323437 C35.4264757,27.0492593 35.9730582,27.7590882 36.2720435,28.5949302 L36.2827216,28.5533727 C36.6504468,27.385741 37.6328271,26.6296625 38.7853887,26.6296625 L56.3354256,26.6296625 L56.1025107,27.1444393 C55.5345721,28.3938455 54.5468528,29.026592 53.1653805,29.026592 L52.9805168,29.026592 C52.413913,30.2069591 51.4535562,30.8115537 50.1268089,30.8229485 C49.549527,31.9905803 48.5844985,32.5837801 47.2497427,32.5837801 L42.068888,32.5837801 C42.09892,32.7124743 42.1122676,32.856585 42.1122676,33.0187933 C42.1122676,33.1394441 42.0975853,33.2554029 42.0702228,33.3673401 C42.46798,33.3968325 42.971183,33.43839 43.4643752,33.4786069 C44.1938193,33.5396026 44.9499585,33.6012686 45.3143468,33.6213771 C45.5012126,33.6321016 45.6747309,33.640145 45.8429101,33.6488586 C46.64977,33.6890756 47.2871159,33.7192383 48.1880761,33.8687112 C49.4901304,34.0852124 50.5586024,34.6784122 51.3687992,35.6315536 C51.6691192,35.9868033 51.9494179,36.3829401 52.225045,36.8420835 C52.5300367,37.3461357 52.782973,37.885713 53.0218942,38.4232794 L53.0325723,38.4232794 L53.0325723,38.4487501 C53.1006448,38.6022447 53.1667152,38.7550691 53.233453,38.9065529 L53.3162079,39.1002645 C53.7006176,40.117753 54.0196242,40.9415299 54.3366287,41.5736061 C55.0360408,41.2592437 55.8976256,41.4596581 56.2613466,42.0501768 C56.3374277,42.1748493 56.4001612,42.2874567 56.46156,42.3960425 C56.6083831,42.6587931 56.7385218,42.8880297 57.0034708,43.1816133 L57.4199147,43.6434378 L56.8159376,43.7808457 C56.5743468,43.8358088 56.3487731,43.8619498 56.1365469,43.8619498 C54.5875628,43.8619498 53.8314236,42.4275457 53.0325723,40.3892173 L53.0325723,43.2271925 C53.0806235,43.9276375 52.9317982,44.2011127 51.8813454,44.6381367 L51.87,44.6408179 L51.1292105,44.923677 L57.5,44.923677 Z M55.6433547,42.4322377 C55.4858535,42.1748493 55.0560621,42.0857018 54.7003497,42.2110446 C55.0860941,42.7888279 55.5012032,43.0951469 56.0504552,43.1293313 C55.9697025,43.0006371 55.8996278,42.8786457 55.8295531,42.7533029 C55.7714912,42.65142 55.7134293,42.5448451 55.6433547,42.4322377 Z M48.0692828,34.5865836 C47.9137837,34.5597723 47.7682954,34.5389935 47.6261439,34.5195553 C48.6879421,36.1382871 49.3486462,36.4157839 51.2473364,36.6657992 C51.1065196,36.4640442 50.962366,36.2777058 50.8148755,36.1020918 C50.1221372,35.2830069 49.1971515,34.7735923 48.0692828,34.5865836 Z M47.2497427,31.8571941 C48.1807349,31.8571941 48.8401043,31.5254044 49.2939213,30.8256297 L44.454764,30.8256297 C44.2492116,31.2425452 43.9936059,31.5877406 43.6879468,31.8571941 L47.2497427,31.8571941 Z M50.0847641,30.0977031 C51.0324407,30.0977031 51.700486,29.7545186 52.1563051,29.026592 L47.3091394,29.026592 C47.1002501,29.4616052 46.8379706,29.8208765 46.5229682,30.0977031 L50.0847641,30.0977031 Z M50.3270223,27.3569188 C50.128811,27.734958 49.8878876,28.0493204 49.6029172,28.2993357 L53.1653805,28.2993357 C54.05633,28.2993357 54.6990149,27.9977087 55.1528319,27.3569188 L50.3270223,27.3569188 Z M30.8269072,27.5445979 C30.814227,27.5606846 30.8008794,27.578112 30.7875319,27.5962096 C30.9703934,27.5660469 31.1699394,27.5486196 31.3868372,27.5486196 C31.538332,27.5486196 31.6944985,27.5566629 31.8546692,27.57342 L33.1340326,26.7811463 C32.7189235,26.7000422 32.3158273,26.7074153 31.9667886,26.8079576 C31.7465539,26.8723047 31.5203128,26.9741876 31.3467946,27.0894762 C31.1258925,27.2369383 30.9403614,27.3984763 30.8269072,27.5445979 Z M29.3313133,33.2192077 C29.3239721,33.2574138 29.3473304,33.3083552 29.3780297,33.3304746 C29.532194,33.4531362 30.1615314,33.5027371 30.2029088,33.504748 L30.2276018,33.5054182 C31.2166559,33.5369215 32.3845672,32.9752249 32.3845672,32.1246367 C32.3705523,31.828372 32.3138252,31.5374694 32.2631044,31.2807513 C32.2183901,31.0481634 32.1823517,30.8658466 32.1823517,30.7110114 C32.1823517,30.2619223 32.5046952,29.8899156 32.9678555,29.7464752 L32.8263714,28.9287308 L33.0459387,28.8027177 C33.5965255,28.4856742 33.9408925,27.832149 33.8474596,27.2838581 L33.8454575,27.2731335 C33.8454575,27.2731335 33.8394511,27.245652 33.8241014,27.2087864 L32.0188441,28.3254767 L31.8927097,28.30939 C31.7185241,28.2866004 31.5490101,28.2752056 31.3868372,28.2752056 C30.5379325,28.2752056 30.125493,28.5808543 30.0340622,28.7035159 L29.9739982,28.8167936 C29.7350769,29.6110782 30.595327,29.249796 30.8095554,29.4267505 C30.9977559,29.5809155 30.6427109,29.9086835 30.6427109,29.9086835 C30.5506127,29.9998419 30.4832076,30.1057465 30.3337149,30.1057465 C30.1842223,30.1057465 30.0634269,30.0186098 30.0634269,29.9086835 C30.0634269,29.7431238 29.925947,29.6063862 29.7584351,29.6063862 C29.586919,29.6063862 29.5281898,29.6854795 29.4267483,29.8289199 C29.2612386,30.0789352 29.0970636,30.282701 28.9549121,30.4502716 C28.9402298,30.4676989 28.8948481,30.5246729 28.9008545,30.5568465 C28.9135347,30.624545 29.026989,30.7150331 29.1010679,30.7632934 L29.4447675,30.9958814 L29.0470103,31.5314369 C29.0443408,31.5401506 29.0423387,31.5495345 29.0423387,31.5582482 C29.0423387,31.6112005 29.1197545,31.6755476 29.2151895,31.6755476 C29.3566736,31.6755476 29.5435395,31.5508751 29.7804586,31.3933588 C30.1428448,31.1520571 30.4665231,30.952313 30.7534956,30.952313 C31.2900674,30.952313 31.6718076,31.4778143 31.6718076,32.0147104 C31.5830463,32.8103355 30.8095554,33.1240276 30.0494119,33.1508389 L29.4254136,33.1314007 C29.3827014,33.1300602 29.3419913,33.1696068 29.3313133,33.2192077 Z M24.8605487,35.8909529 C24.7784612,36.0183065 24.8445316,36.563246 25.1728815,36.8936952 L26.646452,36.5089532 L30.7875319,37.5881076 L30.7875319,38.3106719 C31.1699394,38.2335895 31.5176433,38.0747326 31.7145198,37.8743182 L32.2931364,37.2837995 L32.3351812,38.1102575 C32.3385181,38.1880103 32.3465267,38.4299822 32.3465267,38.5157783 C32.3465267,38.883093 32.3158273,39.141822 32.2731151,39.4112755 C33.219457,39.3181062 33.5137706,38.8851039 33.7847261,37.9983204 L33.8628093,37.740932 L34.1417732,37.740932 C34.6236201,37.740932 35.0153709,37.3649036 35.0153709,36.9017386 C35.0153709,36.6269228 34.8745542,36.3688642 34.637635,36.209337 L33.8995151,35.7146687 L34.7724454,35.5497792 C35.411126,35.430469 36.0724975,34.865421 36.0724975,34.1281105 C36.0724975,33.4846395 35.7735122,33.2822142 35.2863264,33.0067282 L35.0153709,32.8512227 L35.126823,32.5589796 C35.2476184,32.2446173 35.4745269,31.5783567 35.630026,30.930864 L35.6233522,30.9281828 L35.6687339,30.7626231 C35.7561604,30.3664863 35.8088833,29.9884471 35.7841903,29.7189936 C35.6994333,28.7906526 35.2389425,27.9179451 34.5849122,27.4145631 C34.6042661,28.112327 34.2318693,28.8422644 33.6252227,29.2906832 L33.8200971,30.4113952 L33.388971,30.4113952 C33.1060027,30.4113952 32.9077915,30.5695818 32.9077915,30.7110114 C32.9077915,30.7947967 32.9398256,30.9623672 32.9738619,31.1413326 C33.0272521,31.4101158 33.0926552,31.7459272 33.110007,32.0984957 L33.110007,32.1293287 C33.110007,33.421633 31.7312042,34.1931279 30.3991179,34.1931279 L30.3750923,34.1931279 C30.2796573,34.1931279 30.0787765,34.1857548 29.8431921,34.1361539 L28.898185,35.6543432 C28.9295518,35.7160092 29.0002938,35.8306275 29.0510146,35.9090505 C29.0777097,35.950608 29.0983984,35.9821113 29.10307,35.9894844 C29.10307,35.990825 29.1044048,35.9921655 29.1050722,35.9935061 C29.117085,36.0116037 29.1284304,36.0303716 29.1391084,36.0477989 C29.1871597,36.1228706 29.267245,36.2482134 29.3006139,36.3212741 C29.3132941,36.3480854 29.3193005,36.3688642 29.3152962,36.3742264 C29.1644688,36.5853653 29.0156435,36.7971745 28.8654835,37.009654 C28.8808332,36.9875347 28.6619332,36.6564153 28.6452488,36.6282634 C28.638575,36.6175389 28.6092104,36.5706191 28.573172,36.5136451 C28.5471442,36.4740985 28.5191144,36.4271787 28.493754,36.3842807 C28.3669522,36.1805148 28.223466,35.9787599 28.0619605,35.8038162 C27.6181542,35.3259049 27.0715717,35.0209265 26.6351065,35.0068506 C26.4702642,35.0021586 26.3401255,35.0417052 26.2533664,35.1234797 C26.2053152,35.1697292 26.1706115,35.228714 26.1439164,35.3091479 L26.0464792,35.6074235 L25.7374833,35.5538009 C25.329048,35.482751 25.0027002,35.6717706 24.8605487,35.8909529 Z M29.6229574,44.923677 L26.646452,44.144809 L23.6692791,44.923677 L29.6229574,44.923677 Z M30.0607573,38.1511448 L26.646452,37.2610099 L23.2314792,38.1511448 L23.2314792,44.2862385 L26.646452,43.3934225 L30.0607573,44.2862385 L30.0607573,38.1511448 Z M31.6504515,43.0924658 C31.9407609,42.6735393 32.4726611,42.4322377 33.1093396,42.4322377 L33.2187896,42.4322377 C33.2775189,42.4322377 33.3262374,42.3812963 33.3262374,42.3203006 L33.3262374,39.8657268 C32.9578448,40.0574276 32.4800023,40.1572996 31.8386521,40.1572996 L31.4095281,40.1572996 L31.4816049,39.7336812 C31.4929503,39.6633016 31.5049631,39.5976139 31.5149738,39.5346074 C31.563025,39.2638134 31.598396,39.0613881 31.6130784,38.8053403 C31.3447924,38.9280019 31.0558178,39.0057547 30.7875319,39.0466419 L30.7875319,44.923677 L31.5363299,44.923677 C31.3040824,44.1528524 31.3421229,43.5375332 31.6504515,43.0924658 Z M39.5195044,43.2506524 C39.8765516,42.8397694 40.4545009,42.6272899 40.9910727,42.7110752 L41.0024181,42.7124157 L42.1903508,42.9342792 L42.9151232,42.1487083 C43.1767354,41.8423893 43.1587161,41.7056517 43.0152299,41.4992048 L43.0025497,41.4797666 L41.5570092,39.0861886 C41.1479065,39.1820389 40.8475865,39.277219 40.8415801,39.2792298 L40.8329041,39.2832515 C40.54126,39.3677071 40.2649655,39.4568547 39.9980144,39.5433211 C38.9722545,39.8751108 37.9998849,40.1888029 36.4956151,40.1888029 L36.4602441,40.1888029 C36.3140883,40.8832154 36.149246,42.1614437 36.5276493,42.7466001 L36.7565599,43.1005092 L36.3748197,43.2754528 C36.1585893,43.3739843 36.1098707,43.4731861 36.09986,43.4993271 C36.1098707,43.7955919 36.083843,44.2118372 35.7935336,44.5141345 C35.5546123,44.7641498 35.2082431,44.8754167 34.7317353,44.923677 L39.1671289,44.923677 C39.0016192,44.0791213 39.2565575,43.5529497 39.5195044,43.2506524 Z M42.6962233,44.923677 L45.1902145,42.2807539 C45.5158949,41.9415911 45.4244641,41.6748187 45.3937648,41.5870118 C45.2989971,41.307504 44.9586344,40.6157727 44.6856768,40.0594384 C44.5388537,39.7618331 44.4080476,39.4930499 44.3139473,39.2899544 C43.6138679,38.8810822 42.9631744,38.8911364 42.9551659,38.8897958 L42.9478247,38.8904661 C42.7476114,38.8904661 42.5320483,38.9105746 42.3151505,38.9407373 L43.6172048,41.0923434 C44.1330879,41.8450704 43.6265481,42.4335783 43.460371,42.6272899 L43.4523624,42.6380144 L42.4799928,43.6916981 L42.287788,43.6916981 L42.2530843,43.6856656 L40.8749489,43.4289475 C40.6333581,43.3934225 40.2896585,43.4718455 40.0660869,43.7285637 C39.8325047,43.9966766 39.7797818,44.4082299 39.9099205,44.923677 L42.6962233,44.923677 Z M48.4056413,44.923677 C48.1286794,44.3948243 48.0692828,43.8565876 48.2448032,43.4014659 C48.4056413,42.9865612 48.7446692,42.7010209 49.1784649,42.6145545 L50.4711759,42.3249926 L50.3630607,41.2545517 C50.3029966,40.9817469 50.2242461,40.8798639 49.9279303,40.8550635 C47.4546277,40.6546491 46.2386652,40.3188377 45.4378117,39.9448202 C45.7161083,40.5112087 45.9830595,41.062851 46.0791619,41.3510724 C46.2520127,41.851103 46.1218741,42.359177 45.7147735,42.7834656 L43.6959554,44.923677 L48.4056413,44.923677 Z M48.9228591,43.662876 C48.7960573,43.9879629 48.9095116,44.437052 49.2245139,44.8673733 L51.6090552,43.9658436 C51.7598826,43.9014965 52.1970151,43.7178391 52.2937849,43.5898152 C52.323817,43.5502686 52.323817,43.4785484 52.3084673,43.2653986 L52.3064651,43.2392576 L52.3064651,38.6042556 C52.1316121,38.2141513 51.9487506,37.8253876 51.7438655,37.4594134 C48.9181875,37.1195803 48.1693895,36.8072288 46.7091666,34.4257158 C46.4181898,34.4049371 46.1258783,34.3901909 45.8082064,34.3747744 C45.6380251,34.366731 45.4625047,34.3580173 45.2743041,34.3472928 C44.8992377,34.3278546 44.1744653,34.2675292 43.4036438,34.2038524 C42.7609589,34.1515704 42.0975853,34.0966072 41.6858131,34.0697959 C41.4028449,34.3627093 41.0044203,34.5477072 40.5612813,34.5477072 C40.1955582,34.5477072 39.9279397,34.4377809 39.4447581,34.2273123 C39.3406471,34.1824033 39.2352014,34.1381647 39.1310905,34.0939261 L39.6896858,33.5912144 C39.7957989,33.6361233 39.9012446,33.6817025 40.0073577,33.7266114 C40.2556223,33.827824 40.396439,33.8660301 40.5612813,33.8660301 C41.0417934,33.8660301 41.4335443,33.4853098 41.4335443,33.0187933 C41.4335443,32.7238691 41.3728129,32.6132725 41.350122,32.5837801 L38.9475616,32.5837801 L39.2859222,31.8571941 L41.5783653,31.8571941 C42.5073553,31.8571941 43.1667247,31.5254044 43.6225438,30.8256297 L39.8705452,30.8256297 L40.207571,30.0977031 L44.4133866,30.0977031 C45.3610632,30.0977031 46.0284412,29.7545186 46.4842603,29.026592 L40.6847462,29.026592 L41.0224395,28.2993357 L47.4933357,28.2993357 C48.3842852,28.2993357 49.0276375,27.9970384 49.4801197,27.3569188 L38.7853887,27.3569188 C37.9571727,27.3569188 37.2484174,27.910572 36.9767946,28.7671928 L36.3688133,30.9516427 C36.2326682,31.5683024 36.0317875,32.1809404 35.9103247,32.5301575 C36.3421182,32.8029624 36.7972699,33.2192077 36.7972699,34.1281105 C36.7972699,35.036343 36.1966298,35.7294149 35.4965504,36.0679074 C35.6533842,36.3145713 35.7414781,36.6027927 35.7414781,36.9017386 C35.7414781,37.679266 35.1601919,38.3254182 34.4020506,38.4474095 C34.3039461,38.7289281 34.1904918,38.9796137 34.0516772,39.1961148 L34.0516772,42.3203006 C34.0516772,42.7834656 33.6772782,43.1601643 33.2187896,43.1601643 L33.1093396,43.1601643 C32.9224738,43.1601643 32.4626504,43.1943487 32.24642,43.5073705 C32.0628911,43.772132 32.0682301,44.2171994 32.2584328,44.7983342 C32.691561,44.9082605 33.3662801,44.8070479 33.6792804,44.3753861 L33.7873956,44.2245726 L33.978933,44.2245726 C34.4861402,44.2245726 35.0894499,44.1997721 35.2703093,44.0114228 C35.3003413,43.9799195 35.3897699,43.8854097 35.3744202,43.5020083 C35.3724181,43.4564291 35.3724181,43.1078823 35.7528235,42.805585 C35.3277038,41.6855433 35.7681732,39.9414687 35.8255677,39.7263081 L35.8983119,39.448141 L36.1852844,39.4568547 C37.756292,39.5044447 38.6919558,39.2008068 39.7751102,38.8509195 C40.0453982,38.7637828 40.3256969,38.6739649 40.6240149,38.586158 C40.7261237,38.5533141 41.9647771,38.1645504 42.9451552,38.1632098 C43.0325817,38.1605287 43.924866,38.165891 44.8224893,38.7490366 L44.8758795,38.7845615 L44.8812185,38.7825507 C44.8825533,38.7845615 44.8845554,38.7872427 44.8845554,38.7899238 C45.726119,39.3348633 46.5283072,39.8503104 49.9866595,40.1311586 C50.8842828,40.2048897 51.0277691,40.8952804 51.0764876,41.1231764 L51.0818267,41.1607122 L51.2560123,42.8933919 L49.3219511,43.3277349 C49.1317484,43.3646004 48.9922664,43.4798889 48.9228591,43.662876 Z M57.4439403,48.8408067 L57.4439403,48.5552664 L55.0507231,48.5552664 L55.0507231,48.8408067 L55.802858,48.8408067 L55.8055275,54.1615074 L55.0507231,54.1615074 L55.0507231,54.447718 L57.4439403,54.447718 L57.4439403,54.1615074 L56.6924727,54.1615074 L56.6924727,48.8408067 L57.4439403,48.8408067 Z M38.9542353,48.8408067 C40.4638442,48.8408067 41.0211047,48.7677459 41.2840516,50.6264387 L41.4435549,50.6264387 L41.4435549,48.5579475 L35.4498339,48.5579475 L35.4498339,48.8408067 L35.6066677,48.8408067 C35.8175592,48.8408067 36.3200947,48.8562232 36.348792,49.2992797 L36.348792,52.6949298 L33.5451374,48.5579475 L32.0181767,48.5579475 L32.0181767,48.8408067 L32.2717803,48.8408067 C32.5727678,48.8408067 32.995218,48.8542123 33.0132372,49.2992797 L33.0132372,53.6520929 C33.0132372,54.075041 32.3805629,54.2359088 32.1162813,54.2359088 L32.1136118,54.2359088 L32.1136118,54.447718 L34.1791464,54.447718 L34.1791464,54.2359088 C33.9148648,54.2359088 33.2781862,54.075041 33.2781862,53.6520929 L33.28486,49.8214296 C34.3953768,51.4133501 36.4896087,54.4490585 36.5089627,54.447718 L36.613741,54.447718 L36.613741,49.2992797 C36.6431056,48.8562232 37.1449738,48.8408067 37.3565326,48.8408067 L38.0445992,48.8408067 L38.0445992,54.1661994 L37.2597628,54.1661994 L37.2597628,54.447718 L41.4969452,54.4477184 L41.4969452,52.2719817 L41.2840516,52.2719817 C41.0731602,53.9161841 40.6580511,54.16754 39.4928093,54.16754 L38.9542353,54.16754 L38.9542353,51.5809206 L39.2672356,51.5809206 C39.7891251,51.593656 40.0867756,51.899975 40.191554,52.802175 L40.3857609,52.802175 L40.3844262,50.1290892 C40.3804219,50.1344515 40.1942235,50.1290892 40.1942235,50.1290892 C40.1942235,50.1418246 40.1575177,51.2799639 39.2438773,51.2625366 L38.9542353,51.2625366 L38.9542353,48.8408067 Z M54.7791003,52.2719817 L54.7791003,54.4477185 L49.4761154,54.447718 L49.4761154,54.1635183 L50.1548388,54.1635183 C50.1488324,54.1635183 49.5428532,52.5917063 49.5435206,52.5943875 L47.5967792,52.5943875 C47.5967792,52.5943875 47.2303888,53.5475289 47.2510775,53.8129607 C47.2851138,54.1782645 47.808338,54.1635183 47.8890908,54.1635183 L47.8890908,54.447718 L46.4575651,54.447718 C44.1891476,54.4490585 46.2186439,51.7498318 44.4861308,51.6057211 L43.4884008,51.6057211 L43.4884008,54.1635183 L44.2371988,54.1635183 L44.2371988,54.447718 L41.8379753,54.4477185 L41.8379753,54.1635183 L42.5861059,54.1635183 L42.5861059,48.8421472 L41.8379753,48.8421472 L41.8379753,48.556607 L44.7630926,48.556607 C45.7935241,48.5948131 46.4095139,49.0385399 46.4095139,49.9286748 C46.4095139,51.1988597 45.0787624,51.475016 45.0787624,51.475016 C45.067417,51.4864108 45.591976,51.5085302 45.8976351,51.8202114 C46.1732622,52.0950272 46.1926161,52.6976109 46.1926161,52.9617022 L46.1926161,53.9711473 C46.1926161,54.0200779 46.1732622,54.1635183 46.4462197,54.1507829 C46.7432029,54.0944792 46.8833522,53.628633 46.8786806,53.6440495 C46.8833522,53.628633 48.6879421,48.3930581 48.6812683,48.3970798 L48.9996076,48.3970798 L51.1632468,54.1635183 L51.7512067,54.1635183 L51.7512067,48.8421472 L51.0110846,48.8421472 L51.0110846,48.5552664 L53.4476813,48.5552664 L53.4476813,48.8421472 L52.7062245,48.8421472 L52.7062245,54.1635183 L52.7762992,54.1635183 C53.9402062,54.1635183 54.3546479,53.9161841 54.5668741,52.2719817 L54.7791003,52.2719817 Z M44.444086,51.3074455 C45.187545,51.3074455 45.4544962,50.6800613 45.4544962,50.0412822 C45.4544962,49.7778613 45.4244641,48.9493924 44.709035,48.8408067 L43.4930725,48.8408067 L43.4930725,51.3074455 L44.444086,51.3074455 Z M47.7302548,52.3229231 L49.4761154,52.3229231 L48.5744879,49.7778613 L47.7302548,52.3229231 Z M27.4679942,51.3691114 L25.1495233,51.3691114 L25.1495233,51.6332027 L25.9430357,51.6332027 L25.9430357,53.5475289 C25.8095601,54.0328132 25.0961331,54.2359088 24.8832395,54.2359088 C23.402328,54.2359088 23.508441,52.0601725 23.508441,51.4763566 C23.508441,50.9434822 23.4557182,48.7154639 24.8832395,48.7154639 C25.8909802,48.7154639 26.4202109,49.7228981 26.6317697,50.6264387 L26.7926077,50.6264387 C26.7926077,50.254432 26.7979468,48.4822056 26.7952772,48.4862273 C26.7979468,48.4728217 26.1045411,48.9862579 26.1018716,48.9782145 C26.118556,48.9741928 25.7855345,48.5029844 24.8832395,48.5029844 C23.1360442,48.5029844 22.494694,50.254432 22.500033,51.4763566 C22.5073742,52.5943875 23.0212552,54.5 24.8832395,54.5 C25.4698647,54.5 25.8816369,54.2017244 26.1018716,53.861221 C26.1045411,53.8545182 26.8406589,54.4450369 26.8433284,54.447718 L26.8433284,51.6332027 L27.4679942,51.6332027 L27.4679942,51.3691114 Z M29.1484517,51.2625366 L29.4380938,51.2625366 C30.3517341,51.2799639 30.3884399,50.1418246 30.3884399,50.1290892 C30.3884399,50.1290892 30.5746383,50.1344515 30.5779752,50.1290892 L30.5786426,52.802175 L30.3864378,52.802175 C30.280992,51.9013156 29.9826741,51.593656 29.4601172,51.5809206 L29.1484517,51.5809206 L29.1484517,54.16754 L29.6876931,54.16754 C30.8522675,54.16754 31.2667092,53.9161841 31.478268,52.2719817 L31.6898268,52.2719817 L31.6898268,54.447718 L27.4539792,54.447718 L27.4539792,54.1661994 L28.2381483,54.1661994 L28.2381483,48.8448284 L27.5267234,48.8448284 L27.5267234,48.5606287 L31.6364366,48.5579475 L31.6364366,50.6264387 L31.478268,50.6264387 C31.2153211,48.7677459 30.6607301,48.8448284 29.1517886,48.8448284 L29.1484517,51.2625366 Z" id="logo_generali" fill="#A83339"></path>
                    </g>
                </g>
            </g>
        </g>
    </g>
</svg>