<?xml version="1.0" encoding="UTF-8"?>
<svg width="80px" height="80px" viewBox="0 0 80 80" version="1.1" xmlns="http://www.w3.org/2000/svg" xmlns:xlink="http://www.w3.org/1999/xlink">
    <!-- Generator: Sketch 49.3 (51167) - http://www.bohemiancoding.com/sketch -->
    <title>circle logo mapfre</title>
    <desc>Created with Sketch.</desc>
    <defs></defs>
    <g id="UI" stroke="none" stroke-width="1" fill="none" fill-rule="evenodd">
        <g id="home-desktop" transform="translate(-960.000000, -5487.000000)">
            <g id="footer" transform="translate(0.000000, 5399.000000)">
                <g id="logos-footer" transform="translate(64.000000, 88.000000)">
                    <g id="circle-logo-mapfre" transform="translate(896.000000, 0.000000)">
                        <rect id="Rectangle-Copy-11" fill="#FFFFFF" x="0" y="0" width="80" height="80" rx="40"></rect>
                        <path d="M56.5587959,38.2527411 L56.5587959,39.8988029 L56.9966134,39.8988029 C57.4919097,39.8988029 57.89365,39.4945178 57.89365,38.9960841 C57.89365,38.4976505 57.4399341,38.2527411 56.9966134,38.2527411 L56.5587959,38.2527411 Z M59.8772813,41.7454688 L59.8772813,41.7005482 C59.8778928,41.7147013 59.8772813,41.730085 59.8772813,41.7454688 Z M59.8772813,41.7454688 C59.8772813,41.730085 59.8778928,41.7147013 59.8772813,41.7005482 C59.8534337,40.9615126 59.2505174,40.3701611 58.5106303,40.3701611 C59.2658043,40.3701611 59.8772813,39.7548109 59.8772813,38.9960841 C59.8772813,38.2373574 59.2658043,37.6213918 58.5106303,37.6213918 L54.5079022,37.6213918 L54.5079022,43.1201611 L56.5587959,43.1195458 L56.5587959,40.8427501 L56.9966134,40.8427501 C57.4906867,40.8427501 57.89365,41.2470351 57.89365,41.7454688 C57.89365,41.7596218 57.89365,41.7750056 57.8924271,41.7891586 L57.8924271,43.1195458 L59.8772813,43.1195458 L59.8772813,41.7454688 Z M62.6527752,42.216827 L62.6527752,40.8236742 L66,40.8236742 L66,39.9209555 L62.6527752,39.9209555 L62.6527752,38.5222645 L66,38.5222645 L66,37.6195458 L60.6342897,37.6195458 L60.6342897,43.1195458 L66,43.1195458 L66,42.216827 L62.6527752,42.216827 Z M48.435936,37.6195458 L48.435936,43.1201611 L50.45381,43.1201611 L50.45381,40.8236742 L53.8010348,40.8236742 L53.8010348,39.9209555 L50.45381,39.9209555 L50.45381,38.5222645 L53.8010348,38.5222645 L53.8010348,37.6195458 L48.435936,37.6195458 Z M44.417921,38.2521258 L44.417921,39.8981875 L44.855127,39.8981875 C45.3620414,39.8981875 45.7521637,39.4945178 45.7521637,38.9954688 C45.7521637,38.4970351 45.3100659,38.2521258 44.855127,38.2521258 L44.417921,38.2521258 Z M46.1428975,37.6232379 L42.3658043,37.6232379 L42.3658043,43.1201611 L44.3836783,43.1201611 L44.3836783,40.8292124 L46.1428975,40.8292124 C47.0228128,40.8292124 47.7357949,40.111714 47.7357949,39.2256098 C47.7357949,38.3401208 47.0228128,37.6232379 46.1428975,37.6232379 Z M39.1891816,41.3147237 L37.5498119,41.3147237 L38.369191,38.4434997 L39.1891816,41.3147237 Z M35.0170743,43.1201611 L37.0349483,43.1201611 L37.2923801,42.216827 L39.4466134,42.216827 L39.7046566,43.1201611 L41.7225306,43.1201611 L40.1522578,37.6195458 L36.5867357,37.6195458 L35.0170743,43.1201611 Z M29.6819379,37.6195458 L27.6634525,37.6195458 L27.6634525,43.1195458 L29.6819379,43.1195458 L29.6819379,40.3695458 L31.0167921,43.1195458 L32.3510348,40.3695458 L32.3510348,43.1195458 L34.3695202,43.1195458 L34.3695202,37.6195458 L32.3510348,37.6195458 L31.0167921,40.3695458 L29.6819379,37.6195458 Z M20.4498589,41.5602484 L22.2280339,41.5651712 C22.3790687,41.5725554 22.5337723,41.5380958 22.6731891,41.4568695 C22.9434619,41.2999552 23.0889934,41.00951 23.0773754,40.7190647 C23.0767639,40.6759902 23.0718721,40.6378384 23.0669802,40.6076863 C23.0033866,40.2513985 22.8792568,39.9000336 22.6890875,39.5695905 C22.4989182,39.2379168 22.2176388,38.9210114 21.9406397,38.6871783 C21.7541392,38.5450324 21.5174976,38.493343 21.2881938,38.5462631 C21.2013641,38.2915082 20.9934619,38.0792124 20.7604892,37.9770642 C20.3556914,37.8287648 19.9197084,37.7481539 19.4659925,37.7481539 C19.014111,37.7481539 18.5799624,37.8281495 18.1757761,37.9746028 C18.1464252,37.9856791 18.1091251,38.0016782 18.0706021,38.0238308 C17.8633114,38.1327478 17.7043274,38.3222757 17.6376764,38.5524166 C17.3973659,38.5105728 17.1368768,38.5794921 16.9509878,38.7179458 C16.6733772,38.9523943 16.4324553,39.2379168 16.242286,39.5695905 C16.0527281,39.9000336 15.9273754,40.2513985 15.8637817,40.6076863 C15.8588899,40.6378384 15.8546096,40.6759902 15.8546096,40.7190647 C15.8423801,41.00951 15.9873001,41.2999552 16.2581844,41.4568695 C16.3976011,41.5380958 16.5516933,41.5725554 16.7021167,41.5651712 L18.4809031,41.5602484 C18.6074788,41.5651712 18.9413452,41.5657865 19.1975541,41.5664019 L19.1975541,43.2518461 L19.7332079,43.2518461 L19.7332079,41.5664019 C19.9900282,41.5657865 20.3245061,41.5651712 20.4498589,41.5602484 Z M21.6355127,39.1308458 C21.865428,39.3252965 22.0659925,39.5622063 22.2249765,39.8391139 C22.3827375,40.1141754 22.4860771,40.4064668 22.5386642,40.7024502 C22.5411101,40.7129112 22.5411101,40.7221414 22.5404986,40.7289103 C22.5490593,40.8316738 22.4995296,40.9344372 22.4053622,40.9898188 C22.3546096,41.0187402 22.3001881,41.0304319 22.2463782,41.0255091 L20.4370179,41.0212016 C20.3862653,41.0255091 20.3355127,41.0002797 20.3079962,40.9528977 C20.2817027,40.9061311 20.2853716,40.851365 20.3128881,40.8095211 L21.2129821,39.2305326 C21.2356068,39.1794585 21.2741298,39.1357686 21.3254939,39.1056165 C21.4233302,39.0483889 21.5413452,39.0600806 21.6263405,39.124077 C21.6293979,39.1265384 21.6324553,39.1283844 21.6355127,39.1308458 Z M17.2958608,39.1308458 C17.0659454,39.3252965 16.865381,39.5622063 16.7057855,39.8391139 C16.5480245,40.1141754 16.4440734,40.4064668 16.3920978,40.7024502 C16.3908749,40.7129112 16.3896519,40.7221414 16.3908749,40.7289103 C16.3823142,40.8316738 16.4312324,40.9344372 16.5260113,40.9898188 C16.5755409,41.0187402 16.6311853,41.0304319 16.6849953,41.0255091 L18.4937441,41.0212016 C18.5444967,41.0255091 18.5958608,41.0002797 18.6227658,40.9528977 C18.6496707,40.9061311 18.6453904,40.851365 18.6184854,40.8095211 L17.7171684,39.2305326 C17.6945437,39.1794585 17.6572437,39.1357686 17.6052681,39.1056165 C17.5074318,39.0483889 17.3894167,39.0600806 17.3044214,39.124077 C17.3019755,39.1265384 17.2989182,39.1283844 17.2958608,39.1308458 Z M20.5904986,38.4896509 C20.5862183,38.4871895 20.5825494,38.4859588 20.5776576,38.4841128 C20.2309501,38.3567353 19.8567262,38.2878161 19.4659925,38.2878161 C19.0770931,38.2878161 18.7047037,38.3561199 18.3586077,38.4816514 C18.3469897,38.4865742 18.337206,38.491497 18.3298683,38.4964198 C18.2167451,38.5505706 18.1372531,38.6668718 18.1372531,38.8022488 C18.1372531,38.8736294 18.1592662,38.9394719 18.1977893,38.9942381 L19.3149577,40.9301298 C19.3412512,40.986742 19.39873,41.0267398 19.465381,41.0267398 C19.530809,41.0267398 19.5876764,40.9885881 19.6151929,40.9332065 L20.7323612,38.9973148 C20.7727187,38.9419333 20.7953434,38.8736294 20.7953434,38.8004028 C20.7953434,38.6601029 20.7109595,38.5401096 20.5904986,38.4896509 Z M19.4659925,35.523663 C16.7345249,35.523663 14.5209784,37.7518461 14.5209784,40.4993846 C14.5209784,43.2475386 16.7345249,45.4757216 19.4659925,45.4757216 C22.1968485,45.4757216 24.4103951,43.2475386 24.4103951,40.4993846 C24.4103951,37.7518461 22.1968485,35.523663 19.4659925,35.523663 Z M19.4659925,35 C22.4836312,35 24.930762,37.4626315 24.930762,40.4993846 C24.930762,43.5373685 22.4836312,46 19.4659925,46 C16.4477422,46 14,43.5373685 14,40.4993846 C14,37.4626315 16.4477422,35 19.4659925,35 Z" id="logo_mapfre" fill="#E32413"></path>
                    </g>
                </g>
            </g>
        </g>
    </g>
</svg>