<?xml version="1.0" encoding="UTF-8"?>
<svg width="80px" height="80px" viewBox="0 0 80 80" version="1.1" xmlns="http://www.w3.org/2000/svg" xmlns:xlink="http://www.w3.org/1999/xlink">
    <!-- Generator: Sketch 49.3 (51167) - http://www.bohemiancoding.com/sketch -->
    <title>circle logo ocaso</title>
    <desc>Created with Sketch.</desc>
    <defs></defs>
    <g id="UI" stroke="none" stroke-width="1" fill="none" fill-rule="evenodd">
        <g id="home-desktop" transform="translate(-1072.000000, -5487.000000)">
            <g id="footer" transform="translate(0.000000, 5399.000000)">
                <g id="logos-footer" transform="translate(64.000000, 88.000000)">
                    <g id="circle-logo-ocaso" transform="translate(1008.000000, 0.000000)">
                        <rect id="Rectangle-Copy-12" fill="#FFFFFF" x="0" y="0" width="80" height="80" rx="40"></rect>
                        <path d="M57.2023188,48.2848558 C57.2023188,50.2389023 55.7758188,51.7313674 53.6281938,51.7313674 C51.4800063,51.7313674 50.0540688,50.2389023 50.0540688,48.2848558 C50.0540688,46.3302512 51.4800063,44.8288558 53.6281938,44.8288558 C55.7758188,44.8288558 57.2023188,46.3302512 57.2023188,48.2848558 Z M53.6281938,45.5946233 C52.0644438,45.5946233 51.6105063,46.8805767 51.6105063,48.2848558 C51.6105063,49.6902512 52.0644438,50.9656 53.6591313,50.9656 C55.2228813,50.9656 55.6481313,49.6902512 55.6481313,48.2848558 C55.6481313,46.8805767 55.2228813,45.5946233 53.6281938,45.5946233 Z M48.3530688,45.5153674 C47.8591938,45.1715535 47.2241312,44.8288558 46.4715063,44.8288558 C45.2750688,44.8288558 44.0173188,45.4171349 44.0173188,46.8007628 C44.0173188,49.6109953 48.4318188,48.3429023 48.4318188,50.0223442 C48.4318188,50.4939721 48.0166938,50.897507 47.1448187,50.897507 C45.7396938,50.897507 44.9291312,50.1903442 44.7901938,48.873693 L44.0583812,48.873693 L44.0583812,51.5349023 L44.7288813,51.5349023 L44.9476937,50.9555535 C45.5225688,51.4165767 46.2656312,51.7313674 47.0070063,51.7313674 C48.3924437,51.7313674 49.6192562,51.221786 49.6192562,49.6578791 C49.6192562,46.9196465 45.2064437,48.0197395 45.2064437,46.5468093 C45.2064437,45.897693 45.5810688,45.6627163 46.5013187,45.6627163 C47.6803187,45.6627163 48.3046937,46.4279256 48.5415063,47.4995535 L49.2530688,47.4995535 L49.2530688,45.0242047 L48.6804438,45.0242047 L48.3530688,45.5153674 Z M36.2182562,51.5349023 L36.2182562,50.8082047 C36.7441938,50.8082047 37.0890062,50.7401116 37.2571937,50.2779721 L39.1471937,45.0247628 L40.5331937,45.0247628 L42.5120687,50.2779721 C42.6903813,50.7401116 43.0267562,50.8082047 43.5532562,50.8082047 L43.5532562,51.5349023 L40.1068188,51.5349023 L40.1068188,50.8082047 L40.8892562,50.8082047 C41.1170688,50.8082047 41.1963813,50.7602047 41.1963813,50.6608558 C41.1963813,50.5726698 41.1761312,50.4833674 41.1570062,50.4258791 L40.8307562,49.4441116 L38.5841312,49.4441116 L38.2584437,50.4258791 C38.2376312,50.4833674 38.2173813,50.5442047 38.2173813,50.6323907 C38.2173813,50.769693 38.3461937,50.8082047 38.5340688,50.8082047 L39.3058188,50.8082047 L39.3058188,51.5349023 L36.2182562,51.5349023 Z M38.8710063,48.717414 L40.5427562,48.717414 L39.6826937,46.349786 L39.6630062,46.349786 L38.8710063,48.717414 Z M34.7596937,45.545507 C34.3226313,45.1324837 33.5998187,44.8288558 32.9563188,44.8288558 C30.8970062,44.8288558 29.6701937,46.3402977 29.6701937,48.1871814 C29.6701937,50.2779721 30.7597562,51.7324837 32.8387563,51.7324837 C34.5718188,51.7324837 35.5606937,50.769693 35.6805063,49.0623442 L34.8288813,49.0623442 C34.7208813,50.1010419 34.1752563,50.8863442 33.0457562,50.8863442 C31.6203813,50.8863442 31.2243813,49.541786 31.2243813,48.2759256 C31.2243813,46.989414 31.5905687,45.6722047 33.0457562,45.6722047 C34.2354438,45.6722047 34.7889438,46.5468093 34.9171937,47.6173209 L35.6512563,47.6173209 L35.6512563,44.9259721 L34.9481313,44.9259721 L34.7596937,45.545507 Z M29.1448187,48.2848558 C29.1448187,50.2389023 27.7200062,51.7313674 25.5723812,51.7313674 C23.4241937,51.7313674 21.9999437,50.2389023 21.9999437,48.2848558 C21.9999437,46.3302512 23.4241937,44.8288558 25.5723812,44.8288558 C27.7200062,44.8288558 29.1448187,46.3302512 29.1448187,48.2848558 Z M25.5723812,45.5946233 C24.0086312,45.5946233 23.5535688,46.8805767 23.5535688,48.2848558 C23.5535688,49.6902512 24.0086312,50.9656 25.6016312,50.9656 C27.1659437,50.9656 27.5911937,49.6902512 27.5911937,48.2848558 C27.5911937,46.8805767 27.1659437,45.5946233 25.5723812,45.5946233 Z M45.7509437,41.3042047 C45.3532563,38.4828093 42.9125687,36.2848558 39.9571937,36.2848558 C37.0040688,36.2848558 34.5600063,38.4828093 34.1595062,41.3042047 L22.3655687,40.8437395 L22.3655687,42.3663442 L57.5566937,42.3663442 L57.5566937,40.8437395 L45.7509437,41.3042047 Z M36.7593812,34.9034605 L37.1362563,34.6673674 L35.9015687,30.7882977 L34.4604437,31.0589953 L36.7593812,34.9034605 Z M28.9856312,35.1602047 L27.7008812,36.3004837 L32.4686312,38.4950884 L32.8635063,37.865507 L28.9856312,35.1602047 Z M30.5156312,30.4802047 L29.0806938,31.4329488 L33.9451937,36.1983442 L34.6331312,35.8249488 L30.5156312,30.4802047 Z M43.1668187,34.9034605 L45.4646312,31.0589953 L44.0235062,30.7882977 L42.7882562,34.6673674 L43.1668187,34.9034605 Z M50.9343813,35.1602047 L47.0593188,37.865507 L47.4525063,38.4950884 L52.2219438,36.3004837 L50.9343813,35.1602047 Z M49.4100062,30.4802047 L45.2908187,35.8249488 L45.9793188,36.1983442 L50.8449437,31.4329488 L49.4100062,30.4802047 Z M39.5645688,34.3603907 L39.1066938,27.9998326 L40.8453813,27.9998326 L40.3171938,34.3603907 L39.5645688,34.3603907 Z" id="logo_ocaso" fill="#08539E"></path>
                    </g>
                </g>
            </g>
        </g>
    </g>
</svg>