<?xml version="1.0" encoding="UTF-8"?>
<svg width="80px" height="80px" viewBox="0 0 80 80" version="1.1" xmlns="http://www.w3.org/2000/svg" xmlns:xlink="http://www.w3.org/1999/xlink">
    <!-- Generator: Sketch 49.3 (51167) - http://www.bohemiancoding.com/sketch -->
    <title>circle logo pelayo</title>
    <desc>Created with Sketch.</desc>
    <defs></defs>
    <g id="UI" stroke="none" stroke-width="1" fill="none" fill-rule="evenodd">
        <g id="home-desktop" transform="translate(-1184.000000, -5487.000000)">
            <g id="footer" transform="translate(0.000000, 5399.000000)">
                <g id="logos-footer" transform="translate(64.000000, 88.000000)">
                    <g id="circle-logo-pelayo" transform="translate(1120.000000, 0.000000)">
                        <rect id="Rectangle-Copy-13" fill="#FFFFFF" x="0" y="0" width="80" height="80" rx="40"></rect>
                        <g id="logo_pelayo" transform="translate(17.500000, 29.500000)">
                            <path d="M9.61022093,3.96727439 C9.61022093,5.93740854 8.26963953,8.13879878 6.33673256,9.13461585 C9.80173256,9.13461585 10.5949884,6.94004268 10.5949884,5.58816463 C10.5949884,2.93894512 9.00847674,1.1984939 9.00638372,1.17856707 C9.00638372,1.17856707 9.61022093,2.17595732 9.61022093,3.96727439 M0.985395349,6.65057927 C0.985395349,4.68096951 2.32545349,2.47957927 4.25836047,1.4832378 C0.793883721,1.4832378 0.000104651163,3.67833537 0.000104651163,5.03021341 C0.000104651163,7.67943293 1.58713953,9.41988415 1.58923256,9.44033537 C1.58923256,9.44033537 0.985395349,8.44189634 0.985395349,6.65057927 M1.17586047,1.59283537 C1.19574419,1.5907378 2.93243023,0.000262195122 5.5759186,0.000262195122 C6.92487209,0.000262195122 9.11522093,0.795237805 9.11522093,4.26775 C8.12103488,2.33012805 5.92440698,0.987164634 3.95905814,0.987164634 C2.17109302,0.987164634 1.17586047,1.59283537 1.17586047,1.59283537" id="Fill-1" fill="#80BA27"></path>
                            <path d="M9.78446512,16.5034524 C10.6996395,16.5034524 11.0847558,15.6995622 11.0847558,14.0770988 C11.0847558,12.5217573 10.7153372,11.7577207 9.81690698,11.7577207 C9.2387093,11.7577207 8.78923256,12.186672 8.43603488,13.0582085 L8.43603488,14.5862817 C8.43603488,15.8600256 8.88551163,16.5034524 9.78446512,16.5034524 Z M7.08760465,11.9585622 C7.6009186,11.9585622 7.93894186,11.9187085 8.13097674,11.7980988 C8.8692907,11.3560378 9.25493023,10.7923183 10.3621395,10.7923183 C12.0318488,10.7923183 13.1076628,12.0125744 13.1076628,14.1169524 C13.1076628,16.2753427 11.999407,17.4819646 10.1538837,17.4819646 C9.41504651,17.4819646 8.90173256,17.2947573 8.43603488,16.8249037 L8.43603488,20.3650622 C8.43603488,20.7809037 8.0509186,21.1296232 7.5370814,21.1296232 C7.02376744,21.1296232 6.62190698,20.7809037 6.62190698,20.3650622 L6.62190698,11.9459768 C6.79876744,11.9459768 6.94266279,11.9585622 7.08760465,11.9585622 Z M37.8728372,12.2810622 C37.8728372,12.0130988 37.6483605,11.784989 37.3433023,11.784989 C37.1020814,11.784989 36.9095233,11.9055988 36.8132442,12.1205988 L34.7265,16.6917085 L32.5115581,11.9459768 L30.6822558,11.9459768 L31.3902209,13.4320988 C31.4252791,13.5039402 31.4613837,13.5810256 31.4995814,13.6617817 L33.8118488,18.5155378 L33.4581279,19.3330622 C33.153593,20.043611 32.4791163,20.4993061 31.9171395,20.4993061 L31.0668488,20.4993061 L31.0668488,21.115989 L32.2221977,21.115989 C33.0887093,21.115989 33.6993488,20.7945378 34.2445814,20.1374768 C34.5820814,19.7347451 34.7746395,19.1720744 35.0634767,18.5553915 L37.8403953,12.4687939 C37.8728372,12.401672 37.8728372,12.3481841 37.8728372,12.2810622 Z M28.604407,15.4315988 C27.2878953,15.485611 26.6139419,15.8741841 26.6139419,16.5842085 C26.6139419,17.1206598 26.919,17.4426354 27.3679535,17.4426354 C27.7860349,17.4426354 28.3312674,17.1741476 28.604407,16.7053427 L28.604407,15.4315988 Z M29.5677209,17.5228671 C29.1820814,17.5228671 28.8613256,17.6167329 28.6363256,17.7509768 C28.1387093,18.0593183 27.7541163,18.4211476 26.8546395,18.4211476 C25.5862674,18.4211476 24.6229535,17.6969646 24.6229535,16.8123183 C24.6229535,15.5390988 25.955686,14.8149159 28.604407,14.7074159 L28.604407,14.1180012 C28.604407,13.0450988 28.4280698,12.509172 27.8022558,12.509172 C27.1277791,12.509172 27.1753953,13.0450988 27.0796395,13.5416963 C26.9828372,14.023611 26.6296395,14.238611 25.9881279,14.2517207 L24.9761512,13.4341963 C25.0091163,12.4551598 26.0838837,11.7980988 27.8179535,11.7980988 C29.7602791,11.7980988 30.4504535,12.4819037 30.4504535,14.1982329 L30.4504535,17.5228671 L29.5677209,17.5228671 Z M23.9280698,17.6969646 L23.7836512,17.6969646 C22.9809767,17.6969646 22.8203372,17.4557451 22.8203372,16.7200256 L22.8203372,8.98317195 L21.0224302,8.98317195 L21.0224302,14.6455378 L21.0381279,16.7200256 L21.0381279,16.8542695 C21.0381279,17.7908305 21.4394651,18.2737939 22.2583605,18.2737939 L23.9280698,18.2737939 L23.9280698,17.6969646 Z M17.4946395,13.8364037 C18.0246977,13.8364037 18.2653953,13.7960256 18.2653953,13.621928 C18.2653953,13.514428 18.2329535,13.3807085 18.1528953,13.2060866 C17.9603372,12.7503915 17.6228372,12.5222817 17.1419651,12.5222817 C16.4512674,12.5222817 16.0180116,12.9648671 15.8411512,13.8227695 L16.9813256,13.8227695 C17.1576628,13.8227695 17.3183023,13.8364037 17.4946395,13.8364037 Z M20.0952209,17.7378671 C20.0952209,18.0996963 19.2287093,18.4211476 17.7039419,18.4211476 C15.2796977,18.4211476 13.8030698,17.1206598 13.8030698,15.0026476 C13.8030698,12.924489 14.9903372,11.8122573 17.1738837,11.8122573 C18.9393488,11.8122573 20.0795233,12.6969037 20.0795233,13.6748915 C20.0795233,14.2648305 19.6295233,14.6271841 18.8430698,14.6271841 L16.3068488,14.6271841 C15.9055116,14.6271841 15.777314,14.761428 15.777314,15.0828793 C15.777314,15.5390988 16.0337093,16.2496476 16.3387674,16.6382207 C16.836907,17.2680134 17.5108605,17.5632451 18.393593,17.5632451 C18.9874884,17.5632451 19.4050465,17.4022573 19.7101047,17.4022573 C19.8388256,17.4022573 19.9670233,17.482489 20.0795233,17.6434768 C20.0952209,17.6707451 20.0952209,17.7105988 20.0952209,17.7378671 Z M44.4967326,15.2810988 L44.4977791,15.1636354 C44.4977791,13.0450988 43.2937674,11.7980988 41.3838837,11.7980988 C39.6320233,11.7980988 38.6038256,12.616672 38.3380116,14.2443793 C38.8670233,14.6916841 39.4635349,15.052989 40.083593,15.3062695 L40.0830698,15.1636354 C40.0830698,13.3938183 40.4043488,12.5222817 41.3995814,12.5222817 C42.5376628,12.5222817 42.6831279,13.605672 42.6836512,15.6995622 C43.524,15.6308671 44.1383023,15.4268793 44.4967326,15.2810988 Z M41.3838837,17.6969646 C40.7591163,17.6969646 40.4064419,17.3702695 40.2306279,16.7063915 C39.6466744,16.6733549 38.9465581,16.493489 38.3359186,16.0372695 C38.5980698,17.6183061 39.627314,18.4211476 41.3838837,18.4211476 C43.4130698,18.4211476 44.4255698,17.4221841 44.4941163,15.3885988 C44.1231279,15.6518427 43.4863256,16.0461841 42.6438837,16.336172 C42.5188256,17.2407451 42.0986512,17.6969646 41.3838837,17.6969646 Z M9.41975581,9.02564756 C9.39987209,9.02774512 7.66266279,10.6176963 5.01969767,10.6176963 C3.67022093,10.6176963 1.47987209,9.82272073 1.47987209,6.35020854 C2.47405814,8.28783049 4.6712093,9.63131829 6.63603488,9.63131829 C8.424,9.63131829 9.41975581,9.02564756 9.41975581,9.02564756 Z" id="Fill-3" fill="#006EAB"></path>
                        </g>
                    </g>
                </g>
            </g>
        </g>
    </g>
</svg>