<?xml version="1.0" encoding="UTF-8"?>
<svg width="80px" height="80px" viewBox="0 0 80 80" version="1.1" xmlns="http://www.w3.org/2000/svg" xmlns:xlink="http://www.w3.org/1999/xlink">
    <!-- Generator: Sketch 49.3 (51167) - http://www.bohemiancoding.com/sketch -->
    <title>circle logo sanitas</title>
    <desc>Created with Sketch.</desc>
    <defs></defs>
    <g id="UI" stroke="none" stroke-width="1" fill="none" fill-rule="evenodd">
        <g id="home-desktop" transform="translate(-1296.000000, -5487.000000)">
            <g id="footer" transform="translate(0.000000, 5399.000000)">
                <g id="logos-footer" transform="translate(64.000000, 88.000000)">
                    <g id="circle-logo-sanitas" transform="translate(1232.000000, 0.000000)">
                        <rect id="Rectangle-Copy-14" fill="#FFFFFF" x="0" y="0" width="80" height="80" rx="40"></rect>
                        <g id="logo_sanitas" transform="translate(24.000000, 24.000000)">
                            <polygon id="Fill-1" fill="#009FE6" points="0 31.6427907 31.5252093 31.6427907 31.5252093 0 0 0"></polygon>
                            <path d="M10.2332279,6.67185116 L10.9126698,6.67110698 L11.2482977,4.79724651 C11.377786,4.08357209 11.009414,3.6192 10.4378791,3.6192 C9.87527442,3.6192 9.58355349,3.83873488 9.35062326,4.15650233 C9.40866977,3.82831628 9.1348093,3.68394419 8.94727442,3.68394419 L8.77983256,3.68394419 L8.23955349,6.67185116 L8.91676279,6.67110698 L9.19806512,5.12245581 C9.34392558,4.33585116 9.82615814,4.15650233 10.1625302,4.15650233 C10.325507,4.15650233 10.6700651,4.26738605 10.5673674,4.82850233 C10.4229953,5.63073488 10.2332279,6.67185116 10.2332279,6.67185116 Z M14.2012279,4.16096744 L14.9461581,4.16096744 L15.0302512,3.68766512 C15.0302512,3.68766512 14.4185302,3.68766512 14.2890419,3.68989767 L14.3723907,3.2299907 C14.4207628,2.96654884 14.2168558,2.77008372 13.9452279,2.77008372 L13.7762977,2.77008372 L13.6118326,3.68766512 L13.1869023,3.68766512 L13.0990884,4.16096744 C13.0990884,4.16096744 13.4116465,4.16022326 13.5240186,4.16022326 L13.2367628,5.77287442 C13.0983442,6.46943256 13.525507,6.73882791 14.0263442,6.73882791 C14.1908093,6.73882791 14.4237395,6.71501395 14.5361116,6.67557209 C14.5718326,6.50292093 14.6380651,6.13901395 14.6380651,6.13901395 C14.3999256,6.2112 13.8149953,6.32059535 13.9117395,5.78106047 L14.2012279,4.16096744 Z M19.797507,4.05975814 C20.2008558,4.05975814 20.3169488,4.18180465 20.4620651,4.25101395 C20.4910884,4.19743256 20.6548093,3.88636279 20.7031814,3.79706047 C20.6399256,3.74422326 20.3563907,3.58868837 19.8607628,3.58868837 L19.8518326,3.58868837 C19.0302512,3.58868837 18.6343442,4.12822326 18.6343442,4.54273488 C18.6343442,5.39631628 19.8183442,5.26385116 19.8183442,5.78701395 C19.8183442,6.04673488 19.553414,6.22087442 19.1984372,6.22087442 C18.8933209,6.22087442 18.6469953,6.07650233 18.4683907,5.96189767 C18.4386233,6.0192 18.2786233,6.31315349 18.2228093,6.40245581 C18.3545302,6.49473488 18.677507,6.70533953 19.2363907,6.70533953 C19.9493209,6.70533953 20.4985302,6.2379907 20.4985302,5.71780465 C20.4985302,4.83445581 19.3003907,4.92747907 19.3003907,4.43259535 C19.3003907,4.2376186 19.5281116,4.05975814 19.797507,4.05975814 Z M4.32587907,5.40971163 C4.32587907,4.1736186 2.80699535,4.33957209 2.80699535,3.54329302 C2.80699535,3.38924651 2.94169302,2.9896186 3.49313488,2.9896186 C4.00662326,2.9896186 4.23285581,3.18906047 4.34746047,3.26422326 C4.37350698,3.2136186 4.59527442,2.8192 4.63248372,2.7179907 C4.50597209,2.62868837 4.2016,2.45008372 3.54522791,2.45008372 C2.58522791,2.45008372 2.09257674,3.13771163 2.09257674,3.66385116 C2.09257674,4.90589767 3.62411163,4.7392 3.62411163,5.50496744 C3.62411163,6.01547907 3.15527442,6.16506047 2.74746047,6.16506047 C2.43490233,6.16506047 2.09927442,6.0564093 1.82913488,5.8219907 C1.7911814,5.89789767 1.62150698,6.20971163 1.53294884,6.37417674 C1.83583256,6.58031628 2.24736744,6.7336186 2.75862326,6.7336186 C3.61964651,6.7336186 4.32587907,6.1792 4.32587907,5.40971163 Z M12.9353674,2.62571163 C12.8155535,2.46943256 12.5751814,2.45008372 12.3980651,2.58552558 C12.2224372,2.71947907 12.1755535,2.9576186 12.2953674,3.11464186 C12.4151814,3.2724093 12.6555535,3.28952558 12.8304372,3.15557209 C13.0068093,3.02013023 13.0544372,2.78347907 12.9353674,2.62571163 Z M12.3035535,3.68096744 L12.1346233,3.68096744 L11.5973209,6.67110698 L12.2752744,6.67110698 L12.7307163,4.13938605 C12.7783442,3.87817674 12.5744372,3.68096744 12.3035535,3.68096744 Z M18.2682047,3.68245581 L17.7465302,6.66813023 L17.557507,6.66813023 C17.3402047,6.66813023 17.1102512,6.49771163 17.1645767,6.22087442 L17.1757395,6.17547907 C16.9844837,6.47166512 16.6719256,6.73138605 16.0869953,6.73138605 C15.4641116,6.73138605 14.8546233,6.17622326 14.961786,5.2296186 C15.0548093,4.39910698 15.6129488,3.62143256 16.5550884,3.62143256 C17.0879256,3.62143256 17.4183442,3.90347907 17.5359256,4.13789767 L17.621507,3.68245581 L18.2682047,3.68245581 Z M16.2760186,6.18813023 C17.3796465,6.24915349 17.7323907,4.16766512 16.6473674,4.10664186 C15.5883907,4.04859535 15.2788093,6.13306047 16.2760186,6.18813023 Z M8.08848372,3.68171163 L7.56606512,6.66813023 L7.37704186,6.66813023 C7.16048372,6.66813023 6.92978605,6.49771163 6.98485581,6.22013023 L6.9960186,6.17547907 C6.80550698,6.47166512 6.49220465,6.73138605 5.9080186,6.73138605 C5.28587907,6.73138605 4.67415814,6.17622326 4.78206512,5.22887442 C4.87508837,4.39910698 5.43322791,3.62143256 6.37387907,3.62143256 C6.90820465,3.62143256 7.23862326,3.90273488 7.35546047,4.13789767 L7.44178605,3.68171163 L8.08848372,3.68171163 Z M6.09629767,6.18813023 C7.19992558,6.24915349 7.55266977,4.16766512 6.4683907,4.10664186 C5.40941395,4.04785116 5.09983256,6.13231628 6.09629767,6.18813023 Z M21.0328558,8.81064186 C20.9442977,8.81064186 20.8341581,8.87613023 20.6778791,8.99073488 C20.3645767,9.21547907 19.8421581,9.53994419 19.2795535,9.53994419 L13.7740651,9.53994419 L13.9013209,8.84338605 L19.133693,8.84338605 C19.669507,8.84338605 19.9917395,8.56506047 20.277507,8.3179907 C20.3764837,8.23166512 20.4724837,8.15054884 20.5699721,8.08506047 C21.0142512,7.79036279 21.3803907,7.81268837 21.6289488,8.16245581 C21.845507,8.47054884 21.9549023,9.03166512 22.0843907,9.68133953 C22.1230884,9.88747907 22.1647628,10.1323163 22.2116465,10.347386 C22.2242977,10.4054326 22.2905302,10.4054326 22.3009488,10.347386 C22.7288558,8.24059535 23.7208558,4.09324651 24.1844837,2.22757209 C24.3668093,1.49454884 24.6585302,1.23557209 24.853507,1.23557209 C25.0976,1.23557209 25.2709953,1.58385116 25.3089488,2.14571163 C25.3922977,3.41603721 25.5158326,7.67129302 25.5247628,8.44971163 C25.5247628,8.46980465 25.5247628,8.52933953 25.5709023,8.52933953 C25.5939721,8.52933953 25.6088558,8.5099907 25.6207628,8.49213023 C25.8075535,8.21306047 26.2704372,7.53213023 26.5591814,7.23296744 C26.7749953,7.01045581 26.9506233,6.91073488 27.1329488,6.91073488 C27.2669023,6.91073488 27.4090419,6.96357209 27.5787163,7.07668837 C27.7178791,7.16971163 27.8466233,7.26943256 27.9716465,7.36543256 C28.2202047,7.55817674 28.4546233,7.73975814 28.721786,7.83054884 C28.9472744,7.90868837 29.3253209,7.92431628 29.6036465,7.92431628 C29.761414,7.92431628 29.9296,7.91985116 29.9921116,7.91613023 L29.873786,8.56208372 C29.821693,8.56506047 29.6423442,8.57175814 29.4749023,8.57175814 C29.2151814,8.57175814 28.8460651,8.55538605 28.5573209,8.47575814 C28.1234605,8.35594419 27.7372279,8.12524651 27.5050419,7.95557209 C27.4626233,7.92431628 27.425414,7.8967814 27.393414,7.87668837 C27.1776,7.72785116 27.0228093,7.72785116 26.8903442,7.86850233 C26.801786,7.96524651 26.5011349,8.4139907 26.2369488,8.81064186 C26.1260651,8.97064186 26.0263442,9.1232 25.9459721,9.24003721 C25.7874605,9.47073488 25.565693,9.62180465 25.3803907,9.62180465 C25.2203907,9.62180465 25.0909023,9.51389767 25.0075535,9.30850233 C24.853507,8.93938605 24.753786,5.33529302 24.7180651,3.28282791 L24.7158326,3.27538605 C24.7158326,3.22924651 24.6882977,3.20766512 24.6629953,3.20766512 C24.6362047,3.20766512 24.6123907,3.23222326 24.6042047,3.2672 C24.6027163,3.27017674 24.5915535,3.31780465 24.573693,3.40115349 C24.1041116,5.42831628 22.9900651,10.2722233 22.805507,10.8608744 C22.6663442,11.3029209 22.4200186,11.5886884 22.1803907,11.5886884 C22.0218791,11.5886884 21.8842047,11.4592 21.7926698,11.2247814 C21.5932279,10.7187349 21.4354605,9.96189767 21.3327628,9.48115349 C21.301507,9.33603721 21.2732279,9.21026977 21.2531349,9.11947907 C21.2077395,8.93417674 21.1526698,8.81064186 21.0328558,8.81064186 Z" id="Fill-2" fill="#FEFEFE"></path>
                        </g>
                    </g>
                </g>
            </g>
        </g>
    </g>
</svg>