<svg xmlns="http://www.w3.org/2000/svg" width="32" height="27" viewBox="0 0 32 27">
    <g fill="none" fill-rule="evenodd">
        <path stroke="#EFF2F5" d="M-639.5-205.5h935v250h-935z"/>
        <g fill="#53565A" fill-rule="nonzero">
            <path d="M28.333 15.25c.736 0 1.334.56 1.334 1.25s-.598 1.25-1.334 1.25H25c-.368 0-.667-.28-.667-.625v-1.25c0-.345.3-.625.667-.625h3.333zm0-1.25H25c-1.105 0-2 .84-2 1.875v1.25c0 1.036.895 1.875 2 1.875h3.333C29.806 19 31 17.88 31 16.5S29.806 14 28.333 14zM8 15.25c.368 0 .667.28.667.625v1.25c0 .345-.3.625-.667.625H4.667c-.736 0-1.334-.56-1.334-1.25s.598-1.25 1.334-1.25H8zM8 14H4.667C3.194 14 2 15.12 2 16.5S3.194 19 4.667 19H8c1.105 0 2-.84 2-1.875v-1.25C10 14.839 9.105 14 8 14z"/>
            <path d="M32 9.818V8.591c0-.678-.551-1.227-1.23-1.227h-1.325C28.256 3.797 26.07 0 22.154 0H9.846C5.93 0 3.744 3.797 2.556 7.364H1.23C.55 7.364 0 7.914 0 8.59v1.227a2.44 2.44 0 0 0 1.428 2.214c-.038.237-.07.452-.096.639C.196 13.435 0 14.503 0 15.955v7.363c0 .678.551 1.227 1.23 1.227A2.458 2.458 0 0 0 3.693 27h2.462a2.458 2.458 0 0 0 2.461-2.455h14.77A2.458 2.458 0 0 0 25.846 27h2.462a2.458 2.458 0 0 0 2.461-2.455c.68 0 1.231-.55 1.231-1.227v-7.363c0-1.452-.196-2.52-1.332-3.284a30.758 30.758 0 0 0-.097-.64A2.44 2.44 0 0 0 32 9.819zM9.846 1.228h12.308c2.481 0 4.468 1.985 5.906 5.902.671 1.83 1.056 3.669 1.265 4.92-2.2-.715-6.172-1.005-13.325-1.005s-11.125.29-13.325 1.005c.21-1.251.594-3.09 1.265-4.92 1.438-3.917 3.425-5.903 5.906-5.903zm-8.615 8.59V8.591h.951a30.565 30.565 0 0 0-.51 2.125 1.162 1.162 0 0 1-.441-.898zm18.461 13.5h-7.384v-2.454h7.384v2.454zm11.077-7.363v7.363h-1.23v1.227a1.23 1.23 0 0 1-1.231 1.228h-2.462a1.23 1.23 0 0 1-1.23-1.228v-1.227H20.922V20.25a.614.614 0 0 0-.615-.614h-8.616a.614.614 0 0 0-.615.614v3.068H7.385v1.227a1.23 1.23 0 0 1-1.231 1.228H3.692a1.23 1.23 0 0 1-1.23-1.228v-1.227H1.23v-7.363c0-2.452 0-3.682 14.769-3.682 14.77 0 14.77 1.23 14.77 3.682zm0-6.137c0 .37-.179.68-.44.898a30.516 30.516 0 0 0-.511-2.125h.951v1.227z"/>
        </g>
    </g>
</svg>
