<svg width="159" height="126" viewBox="0 0 159 126" xmlns="http://www.w3.org/2000/svg"><title>bike</title><g stroke-width="8.1" fill="none" fill-rule="evenodd" stroke-linecap="round" stroke-linejoin="round"><g opacity=".5" stroke="#FFF"><path d="M68.368 84.258c3.805 16.478-6.453 32.917-22.913 36.717-16.46 3.8-32.89-6.478-36.694-22.956C4.958 81.54 15.218 65.1 31.68 61.3c16.46-3.8 32.886 6.48 36.69 22.958zM153.443 65.032c3.804 16.48-6.453 32.917-22.917 36.718-16.455 3.8-32.886-6.478-36.69-22.956-3.805-16.478 6.46-32.92 22.913-36.718 16.463-3.8 32.89 6.478 36.693 22.956z" fill="#00C6FB"/><path d="M123.842 72.79s-17.03-14.962-28.815-60.823M31.13 52.6l7.48 38.943M98.876 28.64L26.05 49.137s20.418-5.366 39.275 9.062c10.01 7.657 12.71 16.213 13.61 19.816l13.74-47.623 6.2-1.75zM18.904 42.577l20.16-4.655"/><path d="M75.874 8.994l13.49-3.114 12.34 11.016-14.71 3.396"/></g><g stroke="#005BEA"><path d="M64.77 82.455c3.804 16.48-6.454 32.918-22.915 36.718-16.46 3.8-32.89-6.478-36.693-22.956C1.357 79.74 11.618 63.3 28.08 59.5c16.46-3.8 32.885 6.477 36.69 22.955zM149.844 63.23c3.804 16.48-6.453 32.917-22.917 36.718-16.455 3.8-32.886-6.478-36.69-22.956-3.805-16.478 6.458-32.92 22.913-36.718 16.464-3.8 32.89 6.478 36.694 22.956zM120.243 70.99s-17.03-14.964-28.815-60.825M27.53 50.798l7.482 38.943"/><path d="M95.277 26.838L22.45 47.334s20.42-5.366 39.276 9.062c10.008 7.657 12.71 16.213 13.61 19.816l13.74-47.624 6.2-1.75zM15.305 40.775l20.16-4.655M72.275 7.192l13.49-3.114 12.34 11.016-14.71 3.396"/></g></g></svg>