<svg width="109" height="106" viewBox="0 0 109 106" xmlns="http://www.w3.org/2000/svg"><title>camera</title><g fill="none" fill-rule="evenodd" stroke-linecap="round" stroke-linejoin="round"><g opacity=".5" fill="#FED700" stroke="#FFF"><path d="M19.95 19.4l21.467 20.102 1.365-3.963c1.723-5.006 7.19-7.702 12.144-5.996L93.914 42.97c4.957 1.705 7.602 7.195 5.88 12.2l-6.438 18.694c-1.723 5.003-7.187 7.702-12.144 5.995L42.224 66.433c-4.956-1.706-7.602-7.197-5.88-12.2l1.366-3.965-29.29 2.62L19.95 19.4zM82.608 23.205c-2.015 5.853 1.05 12.215 6.845 14.21 5.795 1.996 12.126-1.13 14.142-6.984 2.014-5.85-1.05-12.21-6.845-14.206-5.795-1.996-12.127 1.13-14.142 6.98zM54.78 13.623c-2.016 5.853 1.05 12.215 6.843 14.21 5.796 1.996 12.128-1.13 14.143-6.984C77.78 15 74.716 8.636 68.92 6.64c-5.794-1.994-12.126 1.133-14.14 6.983zM67.873 101.3l-5.105-28.097M39.48 91.524l21.322-18.998M61.645 72.817l-8.108 23.547" stroke-width="8.1"/><path d="M82.13 62.576l-16.323-5.62" stroke-width="7.2"/></g><g stroke="#FF82C7"><path d="M16.166 17.6l21.468 20.1 1.364-3.962c1.724-5.005 7.19-7.702 12.144-5.995L90.13 41.167c4.958 1.707 7.603 7.196 5.88 12.2L89.57 72.064c-1.723 5.003-7.187 7.702-12.144 5.995L38.44 64.633c-4.955-1.706-7.6-7.198-5.88-12.2l1.366-3.966-29.29 2.623 11.53-33.49zM78.825 21.404c-2.016 5.853 1.05 12.215 6.845 14.21 5.794 1.996 12.126-1.13 14.14-6.984 2.015-5.85-1.05-12.212-6.843-14.208-5.796-1.995-12.128 1.132-14.142 6.982zM50.996 11.82c-2.015 5.855 1.05 12.217 6.843 14.212 5.795 1.996 12.127-1.13 14.142-6.984 2.015-5.85-1.05-12.213-6.846-14.208-5.794-1.995-12.126 1.13-14.14 6.98zM64.09 99.5L58.984 71.4M35.697 89.722l21.32-18.997M57.862 71.015l-8.108 23.547" stroke-width="8.1"/><path d="M78.346 60.775l-16.323-5.62" stroke-width="7.2"/></g></g></svg>