<svg width="75" height="85" viewBox="0 0 75 85" xmlns="http://www.w3.org/2000/svg"><title>castle</title><g stroke-width="8.1" fill="none" fill-rule="evenodd" stroke-linejoin="round"><g opacity=".5" fill="#FED700" stroke="#FFF"><path d="M35.775 77.637l4.504-21.192-13.01-2.765-4.503 21.192L7.847 71.7l13.232-45.174 35.95 7.64-5.983 46.717-15.272-3.246zM60.187 15.295l-1.478 6.95-10.996-2.337 1.477-6.95-11.102-2.36-1.477 6.95-10.995-2.337 1.477-6.95-9.912-2.106-3.623 18.564 52.92 11.25L70.098 17.4z"/></g><g stroke="#00C7BC"><path d="M32.176 75.835l4.504-21.19-13.007-2.766-4.505 21.19-14.92-3.17L17.48 24.724l35.95 7.64-5.98 46.717-15.274-3.247zM56.588 13.494l-1.477 6.95-10.995-2.337 1.477-6.95-11.102-2.36-1.478 6.95-10.996-2.337 1.478-6.95-9.912-2.108L9.96 22.917l52.918 11.248L66.5 15.6z"/></g></g></svg>