<svg width="109" height="84" viewBox="0 0 109 84" xmlns="http://www.w3.org/2000/svg" xmlns:xlink="http://www.w3.org/1999/xlink"><title>cloud</title><defs><path d="M81.03 74.34H29.502c-12.798 0-23.205-10.42-23.205-23.23 0-8.507 4.722-16.363 12.145-20.387-.012-.285-.02-.574-.02-.856 0-14.48 11.768-26.264 26.237-26.264 9.84 0 18.71 5.437 23.228 14.05 2.11-1.244 4.553-1.913 7.078-1.913 7.782 0 14.115 6.34 14.115 14.127 0 1.843-.362 3.652-1.056 5.335 7.873 2.91 13.18 10.374 13.18 18.94 0 11.14-9.052 20.2-20.174 20.2" id="a"/></defs><g fill="none" fill-rule="evenodd"><g opacity=".5" transform="rotate(-21 47.25 39.452)"><use fill="#FF82C7" style="mix-blend-mode:multiply" xlink:href="#a"/><use stroke="#FFF" stroke-width="8.1" xlink:href="#a"/></g><path d="M84.12 58.81L36.013 77.28c-11.95 4.586-25.398-1.412-29.99-13.372-3.047-7.943-1.455-16.97 4.032-23.386-.113-.262-.224-.53-.325-.79-5.188-13.52 1.576-28.74 15.084-33.924C34 2.28 44.23 4.176 51.534 10.6 53.06 8.68 55.1 7.18 57.46 6.276c7.265-2.79 15.45.86 18.24 8.13.66 1.72.97 3.54.924 5.36 8.393-.105 16.023 4.962 19.093 12.96 3.99 10.398-1.212 22.1-11.596 26.085" stroke="#005BEA" stroke-width="8.1"/></g></svg>