<svg width="207" height="204" viewBox="0 0 207 204" xmlns="http://www.w3.org/2000/svg"><title>cut contract</title><g fill="none" fill-rule="evenodd"><g transform="rotate(43 -108.8 84.863)" stroke="#00E29C"><path stroke-width="8" d="M23.48 24.6l.443 4.218 13.234-1.65 2.184-4.543zM42.18 26.49l20.517-2.558c4.222-.545 5.43-3.86 5.73-4.89 0 0-23.755 2.948-24.062 2.907l-2.184 4.54z"/><path d="M48.188 4.038l-11.02 23.135 5.017-.655L54.708.148c-1.107-.073-4.65.04-6.52 3.89z" stroke-width="8"/><path stroke-width="8" d="M31.494 39.12l3.88 1.793 6.81-14.395-5.017.655z"/><circle stroke-width="9" cx="10" cy="24" r="10"/><circle stroke-width="9" cx="32" cy="54" r="10"/></g><g opacity=".5" fill="#FFD800" stroke="#FFF" stroke-linecap="round" stroke-linejoin="round" stroke-width="9"><path d="M202 38c-10.378 0-16.862-.297-40 0 0-17.945 8.95-31 19.996-31C193.043 7 202 20.878 202 38z"/><path d="M102.953 7.002h-2.147C74 8.855 74 41.26 74 41.26V145l20.955-18.517L117.275 145l22.816-18.517L161.336 145V37.797C161.392 19.96 170.62 7.002 182 7l-78.697.002c-.12-.002-.235 0-.35 0zM161.34 171v28H74v-28l20.956-18.518L117.276 171l22.82-18.518L161.34 171zM94 33h48M94 55h48M94 77h48M94 102h48"/></g><g stroke="#FEA200" stroke-linecap="round" stroke-linejoin="round" stroke-width="9"><path d="M198 36c-10.378 0-16.862-.297-40 0 0-17.945 8.95-31 19.996-31C189.043 5 198 18.878 198 36z"/><path d="M98.953 5.002h-2.147C70 6.855 70 39.26 70 39.26V143l20.955-18.517L113.275 143l22.816-18.517L157.336 143V35.797C157.392 17.96 166.62 5.002 178 5l-78.697.002c-.12-.002-.235 0-.35 0zM157.34 169v28H70v-28l20.956-18.518L113.276 169l22.82-18.518L157.34 169zM90 31h48M90 53h48M90 75h48M90 100h48"/></g></g></svg>