<svg width="128" height="126" viewBox="0 0 128 126" xmlns="http://www.w3.org/2000/svg"><title>dress</title><g stroke-width="8.1" fill="none" fill-rule="evenodd" stroke-linejoin="round"><path d="M64.66 121.26l23.27-2.358c1.695-.173 2.84-.902 3.56-1.866-4.393-7.553-3.33-17.48 3.265-24.074 6.59-6.59 16.52-7.656 24.07-3.262.96-.715 1.69-1.862 1.86-3.547l2.36-23.29c.406-3.935-2.07-8.72-5.493-10.617l-6.18-3.435c-3.424-1.896-7.413-.42-8.868 3.28l-3.448 9.766c-1.454 3.7-20.522-5.92-22.822-9.092l-22.84-43.76C51.098 5.838 46.91 5.56 44.09 8.38L32.614 19.854l-5.484 5.484-5.486 5.488-11.472 11.472c-2.822 2.82-2.545 7.01.623 9.307l43.75 22.85c3.17 2.3 12.8 21.355 9.103 22.81l-9.768 3.45c-3.7 1.454-5.177 5.445-3.28 8.867l3.437 6.18c1.898 3.423 6.68 5.9 10.622 5.497z" stroke="#FFF" fill="#FED700" opacity=".5"/><path d="M61.057 119.457l23.27-2.357c1.696-.173 2.842-.902 3.56-1.866-4.39-7.554-3.328-17.48 3.266-24.075 6.59-6.59 16.52-7.657 24.072-3.262.958-.715 1.69-1.862 1.86-3.547l2.36-23.29c.404-3.934-2.07-8.72-5.494-10.616l-6.18-3.435c-3.423-1.898-7.413-.423-8.867 3.28l-3.45 9.764c-1.453 3.7-20.52-5.92-22.82-9.092l-22.84-43.76c-2.297-3.167-6.486-3.444-9.306-.624L29.014 18.052l-5.484 5.484-5.488 5.487L6.57 40.495c-2.82 2.822-2.544 7.01.623 9.307l43.75 22.85c3.17 2.3 12.802 21.356 9.103 22.81l-9.768 3.452c-3.7 1.453-5.177 5.444-3.278 8.866l3.436 6.18c1.897 3.423 6.68 5.9 10.62 5.497z" stroke="#FEA200"/></g></svg>