<svg width="172" height="163" viewBox="0 0 172 163" xmlns="http://www.w3.org/2000/svg" xmlns:xlink="http://www.w3.org/1999/xlink"><title>drone</title><defs><path d="M86.89 74.735l-3.367-3.37c-.566-.568-.878-1.32-.878-2.12v-6.888c0-.8.312-1.554.878-2.12l3.366-3.37c1.84-1.845 1.842-4.83 0-6.675l-1.076-1.078c-1.838-1.84-4.83-1.84-6.667 0l-3.367 3.37c-.566.567-1.317.88-2.117.88h-6.88c-.8 0-1.55-.313-2.117-.88l-3.367-3.37c-1.838-1.84-4.83-1.84-6.667 0l-1.076 1.077c-1.837 1.84-1.837 4.835 0 6.676l3.367 3.37c.566.567.877 1.32.877 2.12v6.887c0 .8-.31 1.554-.876 2.12l-3.367 3.37c-1.837 1.84-1.837 4.836 0 6.676l1.076 1.076c1.838 1.84 4.83 1.84 6.667 0l3.367-3.37c.565-.567 1.317-.88 2.117-.88h6.88c.8 0 1.55.313 2.116.88l3.367 3.37c1.838 1.84 4.828 1.84 6.667 0l1.076-1.077c1.84-1.845 1.842-4.83 0-6.675z" id="a"/></defs><g fill="none" fill-rule="evenodd"><g opacity=".5"><path d="M111.63 91.138c-4.186 12.878-18.006 19.93-30.87 15.75S60.86 88.88 65.044 76.002c4.185-12.878 18.005-19.93 30.87-15.75 12.863 4.18 19.9 18.008 15.715 30.886z" stroke="#FFF" stroke-width="8.1" fill="#FF82C7" stroke-linecap="round" stroke-linejoin="round"/><path d="M88.152 45.376c-5.066 15.59-21.795 24.126-37.368 19.066-15.572-5.06-24.09-21.8-19.024-37.39C36.825 11.465 53.555 2.928 69.127 7.988c15.573 5.06 24.09 21.8 19.025 37.39z" stroke="#FFF" stroke-width="8.1" fill="#FF82C7" stroke-linecap="round" stroke-linejoin="round"/><path d="M46.375 43.21L57.8 37.38m4.393-2.242l11.396-5.814" stroke="#FFF" stroke-width="7.2" fill="#FF82C7" stroke-linecap="round" stroke-linejoin="round"/><path d="M62.527 37.644c-.55 1.695-2.37 2.623-4.06 2.073-1.694-.55-2.62-2.37-2.07-4.064.55-1.695 2.37-2.623 4.062-2.073 1.692.55 2.618 2.37 2.067 4.064zM166.012 70.674c-5.065 15.59-21.795 24.126-37.368 19.066-15.572-5.06-24.09-21.8-19.024-37.39 5.065-15.588 21.795-24.124 37.368-19.065 15.572 5.06 24.09 21.8 19.024 37.39z" stroke="#FFF" stroke-width="8.1" fill="#FF82C7" stroke-linecap="round" stroke-linejoin="round"/><path d="M124.235 68.507l11.424-5.828m4.394-2.244l11.395-5.814" stroke="#FFF" stroke-width="7.2" fill="#FF82C7" stroke-linecap="round" stroke-linejoin="round"/><path d="M140.388 62.943c-.55 1.694-2.37 2.622-4.062 2.072-1.693-.55-2.62-2.37-2.068-4.064.55-1.693 2.37-2.62 4.062-2.07 1.692.55 2.618 2.368 2.068 4.063zM66.165 113.044C61.1 128.634 44.37 137.17 28.797 132.11c-15.572-5.06-24.09-21.8-19.024-37.39C14.84 79.133 31.57 70.597 47.14 75.656c15.573 5.06 24.09 21.8 19.025 37.39z" stroke="#FFF" stroke-width="8.1" fill="#FF82C7" stroke-linecap="round" stroke-linejoin="round"/><path d="M24.388 110.877l11.424-5.828m4.394-2.244l11.397-5.814" stroke="#FFF" stroke-width="7.2" fill="#FF82C7" stroke-linecap="round" stroke-linejoin="round"/><path d="M40.54 105.313c-.55 1.694-2.368 2.622-4.06 2.072-1.694-.55-2.62-2.37-2.07-4.064.552-1.694 2.37-2.62 4.063-2.07 1.692.55 2.618 2.368 2.068 4.063zM144.025 138.343c-5.065 15.59-21.795 24.125-37.367 19.065-15.573-5.06-24.09-21.8-19.025-37.388C92.7 104.43 109.43 95.894 125 100.954c15.573 5.06 24.09 21.8 19.025 37.39z" stroke="#FFF" stroke-width="8.1" fill="#FF82C7" stroke-linecap="round" stroke-linejoin="round"/><path d="M102.25 136.176l11.422-5.83m4.395-2.24l11.396-5.816" stroke="#FFF" stroke-width="7.2" fill="#FF82C7" stroke-linecap="round" stroke-linejoin="round"/><path d="M118.4 130.61c-.55 1.695-2.368 2.623-4.06 2.073-1.693-.55-2.62-2.37-2.07-4.064.552-1.695 2.37-2.623 4.063-2.073 1.693.55 2.618 2.37 2.068 4.064z" stroke="#FFF" stroke-width="8.1" fill="#FF82C7" stroke-linecap="round" stroke-linejoin="round"/><g transform="rotate(18 24.173 128.63)"><use fill="#FF82C7" xlink:href="#a"/><path stroke="#FFF" stroke-width="8.1" d="M84.024 77.597l-3.366-3.37c-1.325-1.326-2.063-3.11-2.063-4.983v-6.887c0-1.875.738-3.657 2.062-4.982l3.367-3.37c.263-.264.263-.688 0-.952l-1.076-1.077c-.256-.256-.68-.256-.936 0l-3.367 3.372c-1.325 1.326-3.108 2.065-4.982 2.065h-6.88c-1.874 0-3.656-.74-4.982-2.066l-3.366-3.37c-.256-.257-.68-.257-.936 0l-1.075 1.076c-.26.26-.26.692 0 .95l3.367 3.37c1.324 1.327 2.06 3.11 2.06 4.983v6.887c0 1.874-.736 3.656-2.06 4.983l-3.367 3.37c-.26.26-.26.692 0 .95l1.076 1.078c.255.256.678.256.934 0l3.368-3.372c1.325-1.326 3.107-2.065 4.982-2.065h6.88c1.873 0 3.655.74 4.982 2.066l3.367 3.37c.256.257.68.257.936 0l1.074-1.076c.263-.263.263-.687 0-.95z"/></g></g><g stroke="#FF0890"><path d="M108.03 89.337c-4.184 12.878-18.005 19.93-30.87 15.75-12.863-4.18-19.9-18.008-15.714-30.886C65.63 61.323 79.45 54.27 92.314 58.45c12.864 4.18 19.9 18.01 15.716 30.887z" stroke-width="8.1" stroke-linecap="round" stroke-linejoin="round"/><path d="M84.553 43.575C79.488 59.165 62.758 67.7 47.186 62.64c-15.572-5.06-24.09-21.8-19.025-37.388C33.228 9.662 49.958 1.126 65.53 6.186c15.57 5.06 24.09 21.8 19.023 37.39z" stroke-width="8.1" stroke-linecap="round" stroke-linejoin="round"/><path d="M42.777 41.408l11.423-5.83m4.395-2.24L69.99 27.52" stroke-width="7.2" stroke-linecap="round" stroke-linejoin="round"/><path d="M58.93 35.843c-.552 1.695-2.37 2.622-4.063 2.072-1.692-.55-2.618-2.37-2.068-4.064.55-1.693 2.368-2.62 4.06-2.07 1.694.55 2.62 2.37 2.07 4.063zM162.413 68.873C157.348 84.463 140.618 93 125.046 87.94c-15.572-5.06-24.09-21.8-19.024-37.39 5.065-15.59 21.795-24.126 37.367-19.066 15.57 5.06 24.09 21.8 19.023 37.39z" stroke-width="8.1" stroke-linecap="round" stroke-linejoin="round"/><path d="M120.637 66.706l11.423-5.828m4.395-2.243l11.396-5.814" stroke-width="7.2" stroke-linecap="round" stroke-linejoin="round"/><path d="M136.79 61.14c-.552 1.696-2.37 2.624-4.063 2.074-1.692-.55-2.618-2.37-2.068-4.064.55-1.695 2.37-2.623 4.06-2.073 1.694.55 2.62 2.37 2.07 4.064zM62.566 111.243C57.5 126.833 40.77 135.37 25.2 130.31c-15.573-5.06-24.09-21.8-19.025-37.39C11.24 77.33 27.97 68.794 43.542 73.854c15.573 5.06 24.09 21.8 19.024 37.39z" stroke-width="8.1" stroke-linecap="round" stroke-linejoin="round"/><path d="M20.79 109.076l11.423-5.83m4.395-2.24l11.396-5.815" stroke-width="7.2" stroke-linecap="round" stroke-linejoin="round"/><path d="M36.942 103.51c-.55 1.696-2.37 2.624-4.062 2.074-1.692-.55-2.618-2.37-2.068-4.064.55-1.695 2.37-2.623 4.062-2.073 1.693.55 2.62 2.37 2.068 4.064zM140.427 136.54c-5.066 15.59-21.796 24.127-37.368 19.067-15.573-5.06-24.09-21.8-19.025-37.39 5.065-15.588 21.795-24.124 37.367-19.065 15.573 5.06 24.09 21.8 19.025 37.39z" stroke-width="8.1" stroke-linecap="round" stroke-linejoin="round"/><path d="M98.65 134.374l11.424-5.828m4.394-2.242l11.396-5.815" stroke-width="7.2" stroke-linecap="round" stroke-linejoin="round"/><path d="M114.802 128.81c-.55 1.694-2.37 2.622-4.06 2.072-1.694-.55-2.62-2.37-2.07-4.064.55-1.694 2.37-2.622 4.062-2.072 1.693.55 2.62 2.37 2.068 4.064z" stroke-width="8.1" stroke-linecap="round" stroke-linejoin="round"/><path d="M93.266 96.788l-2.16-4.245c-.85-1.67-1-3.594-.422-5.377l2.128-6.55c.58-1.782 1.832-3.25 3.5-4.1l4.244-2.166c.332-.17.463-.572.294-.904l-.69-1.357c-.165-.324-.568-.455-.89-.29l-4.245 2.166c-1.67.852-3.593 1.004-5.376.424l-6.543-2.125c-1.783-.58-3.25-1.833-4.1-3.505l-2.162-4.247c-.164-.322-.566-.453-.89-.288l-1.355.692c-.326.166-.46.577-.294.903l2.16 4.247c.85 1.67 1 3.593.422 5.375l-2.13 6.55c-.577 1.78-1.83 3.248-3.5 4.1l-4.242 2.166c-.326.167-.46.578-.294.904l.69 1.357c.165.322.567.453.89.288l4.245-2.166c1.67-.85 3.593-1.003 5.376-.424l6.542 2.126c1.783.58 3.25 1.832 4.1 3.504l2.162 4.247c.164.322.566.453.89.288l1.355-.69c.33-.17.462-.573.294-.905zm6.728-13.058zm-1.67 5.14z" stroke-width="8.1"/></g></g></svg>