<svg width="157" height="215" viewBox="0 0 157 215" xmlns="http://www.w3.org/2000/svg"><title>friends</title><g fill="none" fill-rule="evenodd"><path d="M113.263 51.214c11.033 0 20.092-9.26 20.092-20.607 0-11.345-9.06-20.607-20.092-20.607-11.148 0-20.09 9.262-20.09 20.607 0 11.346 9.058 20.607 20.09 20.607zm-57.715 0c11.033 0 20.09-9.26 20.09-20.607C75.64 19.262 66.582 10 55.55 10c-11.032 0-20.09 9.262-20.09 20.607 0 11.346 9.058 20.607 20.09 20.607zm68.748-.694l9.64 8.45c1.624 1.39 3.714 2.085 5.806 1.97 2.205-.117 4.18-1.16 5.574-2.895 2.903-3.473 2.555-8.8-.814-11.81l-9.87-8.566c-1.743 5.325-5.46 9.955-10.336 12.85zM92.012 38.48L71.574 50.634c-1.312.748-3.413 2.195-5 2.733-3.287 1.837-7.045 2.885-11.026 2.885-3.85 0-7.483-.99-10.69-2.718l-2.2-.005H35.34C22.453 53.53 12 64.296 12 77.494v59.97c0 4.63 3.6 8.335 8.13 8.335 4.527 0 8.128-3.706 8.128-8.337V84.093h-.117c0-.695.58-1.158 1.162-1.158.698 0 1.16.58 1.16 1.158v45.96h47.963V65.917c0-.116 0-.116.117-.23 0-.117.115-.117.115-.233s.117-.116.232-.116c0 0 0-.116.115-.116l23.226-14.587c-4.644-2.662-8.36-6.946-10.218-12.156zm-1.857 113.644V202.39c0 6.45 4.808 11.61 10.857 11.61 6.05 0 10.86-5.16 10.86-11.61v-54.16c0-.695.58-1.158 1.16-1.158s1.162.58 1.162 1.158v34.268c0 .26.098.474.23.657v19.236c0 6.45 5.015 11.61 11.323 11.61 6.31 0 11.323-5.16 11.323-11.61v-69.906H90.155v19.64zm-59.574-14.66V202.39c0 6.45 5.014 11.61 11.323 11.61 6.307 0 11.323-5.16 11.323-11.61V148.115h.115c0-.695.58-1.158 1.162-1.158.697 0 1.16.58 1.16 1.158v54.277c0 6.45 5.016 11.61 11.324 11.61s11.323-5.16 11.323-11.61v-69.906H30.58v4.98zM156 77.493v59.853c0 4.63-3.6 8.336-8.13 8.336-4.53 0-8.128-3.705-8.128-8.336V84.092c0-.578-.466-1.157-1.16-1.157-.582 0-1.163.463-1.163 1.158v45.845H90.154V71.82c0-.578-.466-1.04-1.046-1.156l-8.13-1.158v-2.663l19.626-12.27 4.08-.04c2.658 1.098 5.55 1.72 8.577 1.72 3.192 0 6.24-.674 9.015-1.888l2.716-.025 7.43 6.483c1.86 1.62 4.297 2.547 6.737 2.547h.813c2.787-.23 5.343-1.62 7.2-3.82.117-.116.232-.348.348-.463 5.227 4.283 8.48 10.998 8.48 18.407z" stroke="#FFF" fill="#00E29C" opacity=".5"/><path d="M126.355 25.607c0-11.345-9.06-20.607-20.092-20.607-11.148 0-20.09 9.262-20.09 20.607 0 11.346 9.058 20.607 20.09 20.607 11.033 0 20.092-9.26 20.092-20.607zm-57.716 0C68.64 14.262 59.58 5 48.547 5c-11.032 0-20.09 9.262-20.09 20.607 0 11.346 9.058 20.607 20.09 20.607 11.033 0 20.09-9.26 20.09-20.607zm58.295 28.364c1.625 1.39 3.715 2.085 5.807 1.97 2.205-.117 4.18-1.16 5.574-2.895 2.903-3.473 2.555-8.8-.814-11.81l-9.87-8.566c-1.743 5.325-5.46 9.955-10.336 12.85l9.64 8.45zm-62.36-8.335c-1.313.748-3.414 2.195-5.002 2.733-3.286 1.837-7.044 2.885-11.025 2.885-3.85 0-7.483-.99-10.69-2.718l-2.2-.005H28.34C15.453 48.53 5 59.296 5 72.494v59.97c0 4.63 3.6 8.335 8.13 8.335 4.527 0 8.128-3.706 8.128-8.337V79.093c-.117-.695.463-1.158 1.044-1.158.698 0 1.16.58 1.16 1.158v45.96h47.963V60.918c.117-.347.232-.347.232-.463.232-.116.232-.232.348-.232L95.23 45.635c-4.644-2.662-8.36-6.946-10.218-12.156L64.574 45.634zm18.58 101.49V197.39c0 6.45 4.808 11.61 10.857 11.61 6.05 0 10.86-5.16 10.86-11.61v-54.16c0-.695.58-1.158 1.16-1.158s1.162.58 1.162 1.158v34.268c0 .26.098.474.23.657v19.236c0 6.45 5.015 11.61 11.323 11.61 6.31 0 11.323-5.16 11.323-11.61v-69.906H83.155v19.64zM23.58 132.462v64.928c0 6.45 5.014 11.61 11.323 11.61 6.307 0 11.323-5.16 11.323-11.61V143.115c0-.695.638-1.158 1.22-1.158.695 0 1.217.58 1.217 1.158v54.277c0 6.45 5.015 11.61 11.323 11.61 6.308 0 11.323-5.16 11.323-11.61v-69.906H23.58v4.98zm125.42-.116c0 4.63-3.6 8.336-8.13 8.336-4.53 0-8.128-3.705-8.128-8.336V79.092c0-.578-.466-1.157-1.16-1.157-.582 0-1.163.463-1.163 1.158v45.845H83.154V66.82c0-.578-.466-1.04-1.046-1.156l-8.13-1.158v-2.663l19.626-12.27 4.08-.04c2.658 1.098 5.55 1.72 8.577 1.72 3.192 0 6.24-.674 9.015-1.888l2.716-.025 7.43 6.483c1.86 1.62 4.297 2.547 6.737 2.547h.813c2.787-.23 5.343-1.62 7.2-3.82.117-.116.232-.348.348-.463 5.227 4.283 8.48 10.998 8.48 18.407v59.853z" stroke="#00C6FB" stroke-width="9"/></g></svg>