<svg width="128" height="115" viewBox="0 0 128 115" xmlns="http://www.w3.org/2000/svg"><title>investment</title><g fill="none" fill-rule="evenodd"><g opacity=".5" stroke="#FFF" stroke-linecap="round" stroke-linejoin="round" stroke-width="8.1"><path d="M108.06 108.927c-.262 1.227-1.46 2.01-2.682 1.75L9.484 90.298C8.26 90.034 7.48 88.83 7.74 87.602l14.973-70.436c.26-1.228 1.463-2.013 2.688-1.753l95.894 20.383c1.22.26 1.998 1.465 1.737 2.693l-14.97 70.437z" fill="#00E29C"/><path d="M117.953 62c-16.387 6.313-30.416 7.738-43.604 6.477l1.933-9.1-19.36-4.115-1.967 9.258c-23.584-7.428-37.694-21.707-37.694-21.707"/><path d="M52.804 74.643l19.36 4.115 4.12-19.38-19.36-4.116zM98.47 28.558c-.268 1.26-1.488 2.07-2.72 1.81L51.82 21.03c-1.236-.263-2.017-1.5-1.75-2.76l2.025-9.523c.268-1.263 1.485-2.075 2.722-1.813l43.93 9.338c1.23.262 2.015 1.5 1.747 2.762l-2.025 9.524z"/></g><path d="M104.46 106.225c-.26 1.227-1.46 2.01-2.68 1.75L5.885 87.596c-1.225-.262-2.004-1.466-1.743-2.694l14.97-70.435c.262-1.228 1.464-2.013 2.69-1.753l95.893 20.383c1.22.26 1.997 1.465 1.736 2.693l-14.972 70.437z" stroke="#00C6FB" stroke-width="8.1" stroke-linecap="round" stroke-linejoin="round"/><path d="M114.354 60.3c-16.386 6.31-30.415 6.736-43.604 5.475l1.934-9.1-19.36-4.115-1.967 9.258C27.773 54.39 13.663 40.11 13.663 40.11" stroke="#00C6FB" stroke-width="8.1" stroke-linecap="round" stroke-linejoin="round"/><path stroke="#00C6FB" stroke-width="8.1" stroke-linecap="round" stroke-linejoin="round" d="M49.205 71.94l19.36 4.116 4.12-19.38-19.36-4.116z"/><path d="M94.87 25.857c-.267 1.258-1.486 2.07-2.72 1.808l-43.928-9.337c-1.236-.263-2.018-1.5-1.75-2.76l2.024-9.523c.27-1.263 1.486-2.075 2.723-1.813l43.927 9.338c1.233.262 2.017 1.5 1.748 2.763l-2.024 9.524z"/><path d="M94.87 25.857c-.267 1.258-1.486 2.07-2.72 1.808l-43.928-9.337c-1.236-.263-2.018-1.5-1.75-2.76l2.024-9.523c.27-1.263 1.486-2.075 2.723-1.813l43.927 9.338c1.233.262 2.017 1.5 1.748 2.763l-2.024 9.524z" stroke="#00C6FB" stroke-width="8.1" stroke-linecap="round" stroke-linejoin="round"/></g></svg>