<svg width="220" height="104" viewBox="0 0 220 104" xmlns="http://www.w3.org/2000/svg"><title>UVE logo</title><g fill="#FFF" fill-rule="evenodd"><path d="M182.18 94.06c0 .37-.027.715-.084 1.033-.06.318-.13.632-.215.948-.06.264-.136.515-.237.756-.1.248-.18.517-.24.8-.057.316-.193.614-.41.885-.216.276-.41.56-.58.845-.146.257-.217.46-.217.606 0 .142-.186.215-.56.215-.407 0-.743-.064-1.02-.196-.27-.13-.408-.423-.408-.885 0-.26.084-.504.26-.737.174-.226.367-.47.584-.733.214-.258.41-.532.584-.82.17-.288.257-.6.257-.948 0-.662-.197-1.145-.582-1.447-.39-.304-.87-.554-1.445-.755-.376-.142-.773-.25-1.19-.325-.415-.07-.783-.22-1.098-.452-.29-.23-.637-.576-1.04-1.035-.4-.464-.645-.865-.73-1.21-.06-.117-.087-.32-.087-.606 0-.72.055-1.23.172-1.53.113-.306.26-.61.43-.93.06-.117.166-.275.322-.477.16-.2.242-.36.242-.474-.03-.316.065-.627.278-.927.216-.304.612-.453 1.19-.453.23 0 .474.042.734.128.257.085.443.245.56.47-.03.237-.102.44-.214.63-.116.184-.24.39-.37.607-.13.214-.242.453-.346.71-.097.26-.15.562-.15.907v.516c0 .172.027.346.086.52.027.258.137.454.323.582.187.13.396.238.625.324.23.086.468.16.716.215.244.06.452.13.627.216.4.203.862.447 1.38.738.516.288.95.575 1.293.863.23.17.383.38.456.624.07.244.107.51.107.802m-26.812-2.51c0-.314-.028-.624-.086-.93-.058-.3-.143-.492-.26-.58-.055-.055-.137-.086-.235-.086-.1 0-.184-.016-.242-.044-.113-.055-.2-.14-.257-.257-.287-.376-.563-.636-.82-.78-.26-.143-.633-.214-1.122-.214-.26 0-.478.08-.648.236-.175.16-.303.35-.388.587-.09.226-.154.464-.197.71-.04.244-.064.468-.064.666 0 .173.015.46.042.864.028.402.08.82.153 1.252.07.43.15.828.236 1.187.087.36.19.583.304.673.084.054.18.085.28.085h.282c.404 0 .79-.084 1.163-.26.374-.173.708-.357.993-.558.317-.234.54-.585.67-1.06.128-.477.195-.972.195-1.49m1.815-.39c0 .376-.032.84-.088 1.403-.06.563-.16 1-.302 1.316-.233.436-.513.86-.842 1.277-.33.418-.714.798-1.146 1.147-.427.342-.883.617-1.36.82-.473.2-.97.3-1.487.3-.52 0-1.018-.1-1.49-.3-.476-.203-.84-.548-1.1-1.04-.144-.257-.29-.533-.43-.82-.15-.288-.22-.587-.22-.905-.057-.145-.09-.363-.108-.65-.014-.288-.02-.532-.02-.734 0-.287.027-.582.086-.88.055-.308.112-.59.17-.846.09-.35.22-.67.392-.972.172-.303.257-.57.257-.795 0-.35-.085-.673-.257-.973-.173-.306-.26-.642-.26-1.015 0-.346.092-.62.278-.823.19-.2.426-.35.713-.45.29-.105.59-.16.908-.175.315-.014.603-.02.86-.02 1.097 0 2.088.238 2.982.712.893.473 1.54 1.096 1.945 1.874.2.35.336.734.41 1.168.07.432.108.893.108 1.38m-27.463-1.55c0-.264-.02-.508-.065-.738-.044-.23-.09-.374-.152-.432-.173-.17-.427-.317-.76-.43-.334-.117-.702-.176-1.112-.176-.374 0-.793.06-1.258.176-.463.113-.92.27-1.368.474-.45.202-.862.44-1.24.712-.375.276-.665.572-.864.884.055.404.11.796.17 1.168.06.373.1.762.13 1.163.232.116.48.184.74.196.26.017.52.023.78.023.348 0 .773-.036 1.284-.11.508-.07 1.006-.196 1.5-.367.49-.172.936-.394 1.326-.67.392-.273.646-.608.76-1.012.085-.288.13-.575.13-.863m2.2.43c0 .403-.153.785-.464 1.144-.31.36-.674.715-1.083 1.057-.41.35-.817.687-1.215 1.017-.403.334-.707.67-.906 1.015.058.374.24.734.54 1.08.3.343.525.69.67 1.037.142.315.25.64.322.97.075.33.197.657.368.968.144.29.297.578.453.866.16.29.235.61.235.95 0 .432-.17.9-.514 1.405-.345.5-.768.755-1.257.755-.117 0-.26-.068-.435-.196-.175-.13-.28-.253-.306-.368-.032-.233-.072-.49-.134-.777-.057-.288-.13-.563-.212-.82-.148-.49-.295-1.046-.438-1.664-.144-.616-.348-1.207-.61-1.766-.258-.564-.602-1.03-1.02-1.407-.423-.373-.963-.56-1.63-.56-.233 0-.465.074-.698.217-.202.315-.303.704-.303 1.165 0 .516.06 1.02.175 1.51.112.486.17.994.17 1.51 0 .494-.106.937-.32 1.338-.218.404-.612.605-1.19.605-.316 0-.557-.106-.713-.324-.16-.215-.272-.465-.342-.753-.074-.288-.117-.593-.132-.912-.012-.312-.02-.587-.02-.82 0-.917.035-1.832.106-2.74.072-.905.106-1.82.106-2.74 0-.662-.028-1.304-.086-1.92-.058-.62-.16-1.25-.303-1.88-.058-.116-.042-.217.046-.306.37-.545.826-.896 1.362-1.056.532-.16 1.082-.367 1.66-.627.202-.085.382-.202.538-.345.16-.145.337-.26.54-.346.174-.086.402-.172.694-.257.286-.087.59-.166.904-.24.32-.07.625-.137.928-.193.304-.057.554-.09.756-.09.72 0 1.32.106 1.792.307.477.203.845.49 1.1.863.26.374.448.814.564 1.316.112.507.2 1.07.26 1.707 0 .055.003.106.02.15.014.043.02.095.02.15m-28.363-1.554c.055.777.06 1.413.017 1.902-.042.49-.12.875-.235 1.163-.172.434-.45.918-.824 1.447-.373.536-.792 1.062-1.25 1.576-.463.52-.948 1.015-1.468 1.492-.52.474-1.023.884-1.512 1.23-.49.346-.972.58-1.447.71-.475.134-.9.195-1.274.195-.488 0-1.052-.086-1.685-.257-.632-.174-1.252-.416-1.855-.734-.603-.32-1.138-.693-1.596-1.127-.464-.427-.75-.918-.864-1.467-.09-.514-.13-1.02-.13-1.51 0-.605.014-1.2.04-1.792.032-.59.06-1.186.09-1.792 0-.144.058-.275.17-.388.117-.086.292-.134.52-.154.23-.01.457.007.69.068.232.056.43.16.604.3.175.146.258.333.258.562l.09 1.86c.03.63.142 1.206.344 1.726.198.52.526.94.97 1.273.446.33 1.1.493 1.967.493 1.41 0 2.488-.336 3.234-1.01.75-.678 1.34-1.507 1.77-2.482.262-.577.485-1.174.67-1.795.19-.62.396-1.23.63-1.832.317-.232.673-.35 1.08-.35.2 0 .41.063.62.176.22.112.342.29.373.516m-29.322 4.49c0 .372-.122.684-.367.93-.242.244-.568.447-.97.606-.403.158-.865.28-1.382.366-.52.086-1.052.156-1.597.215-.75.085-1.478.17-2.18.26-.708.085-1.292.198-1.75.342-.145.058-.267.143-.368.26-.1.117-.153.247-.153.39 0 .43-.028.864-.083 1.296-.062.43-.117.863-.175 1.294-.027.376-.166.807-.413 1.297-.242.49-.545.95-.903 1.38-.36.435-.76.8-1.187 1.104-.434.3-.866.453-1.297.453-.26 0-.43-.043-.52-.128-.404-.435-.893-.76-1.468-.974-.574-.214-1.092-.526-1.554-.926-.26-.206-.546-.505-.862-.91-.318-.403-.617-.82-.907-1.253-.285-.43-.538-.854-.752-1.272-.218-.417-.37-.74-.456-.973.027-.055.058-.193.085-.41.032-.214.043-.352.043-.41 0-.227-.043-.453-.128-.666-.088-.22-.13-.44-.13-.673 0-.4.157-.762.475-1.077.058-.17.074-.346.044-.52-.024-.172-.043-.343-.043-.518.145-.198.325-.332.54-.388.216-.058.44-.086.67-.086.232 0 .467.074.712.214.243.147.366.377.366.692 0 .202-.015.49-.043.863-.028.375-.042.72-.042 1.04 0 .83.215 1.64.65 2.416.43.776.946 1.44 1.552 1.984.202.2.422.333.67.388.242.062.453.19.624.39h.304c.26 0 .53-.07.82-.215.287-.144.54-.34.754-.585.217-.244.395-.508.54-.795.145-.29.216-.563.216-.823 0-.202-.013-.345-.04-.43-.147-.203-.37-.355-.673-.457-.3-.1-.603-.214-.906-.345-.3-.13-.564-.288-.797-.474-.232-.187-.346-.456-.346-.798 0-.49.23-.835.693-1.035.66-.23 1.35-.34 2.07-.326.72.013 1.412-.065 2.074-.237.345-.09.685-.202 1.015-.348.33-.142.67-.242 1.015-.3.257-.032.65-.086 1.184-.172.53-.088 1.087-.18 1.665-.28.575-.105 1.113-.19 1.618-.258.502-.073.857-.11 1.058-.11.69 0 1.035.33 1.035.99m-37.867-.862c0-.23-.098-.438-.3-.627-.198-.186-.37-.34-.513-.453-.055-.057-.276-.046-.663.02-.384.076-.647.154-.79.24-.117.056-.258.15-.43.28-.17.13-.326.265-.47.41-.312.143-.61.353-.9.626-.283.274-.455.54-.51.797.685-.082 1.447-.172 2.288-.257.842-.09 1.56-.287 2.16-.605 0-.06.022-.132.064-.218.043-.086.064-.156.064-.214m2.677.214c0 .435-.113.807-.343 1.126-.23.315-.56.517-.988.606-.917.2-1.807.442-2.683.733-.873.287-1.785.43-2.727.43-.23 0-.465.04-.71.13-.244.085-.437.198-.577.342-.06.058-.09.205-.09.434.03.547.154 1.1.37 1.66.215.563.497 1.08.843 1.554.344.477.745.893 1.206 1.254.46.36.968.596 1.512.71.314.06.67.104 1.058.134.388.025.698.153.926.386.117.286.175.504.175.65 0 .432-.202.72-.605.86-.402.147-.762.218-1.08.218-.487 0-.928-.095-1.32-.282-.384-.185-.78-.35-1.187-.496-.6-.232-1.17-.6-1.71-1.1-.534-.505-1.013-1.074-1.44-1.707-.42-.632-.75-1.3-.987-2.006-.233-.706-.35-1.372-.35-2.01 0-.403.084-.83.258-1.293.175-.46.376-.907.605-1.335.23-.435.46-.824.693-1.17.23-.342.416-.617.56-.82.113-.174.395-.387.844-.647.444-.257.933-.496 1.464-.713.535-.217 1.054-.4 1.56-.56.5-.158.868-.24 1.1-.24.487 0 1.02.19 1.597.565.576.373 1.067.776 1.468 1.208.202.23.346.46.43.69.088.23.13.462.13.69m-26.727 2.55c0 .66-.143 1.272-.428 1.836-.29.56-.648 1.076-1.083 1.553-.43.474-.92.905-1.47 1.294-.546.39-1.075.73-1.595 1.016-.345.2-.72.48-1.123.842-.404.36-.806.54-1.21.54-.317 0-.567-.21-.753-.625-.188-.417-.283-.757-.283-1.017.056-.116.223-.293.495-.538.275-.245.525-.44.755-.584.287-.144.643-.34 1.058-.584.416-.242.814-.53 1.19-.863.373-.33.694-.684.97-1.058s.41-.763.41-1.163c0-.463-.117-.826-.345-1.083-.23-.257-.474-.49-.735-.69-.086-.057-.284-.118-.605-.172-.316-.058-.603-.16-.86-.304-1.01-.66-1.845-1.403-2.508-2.224-.66-.82-.994-1.862-.994-3.13 0-.142.015-.308.045-.497.03-.186.075-.348.13-.495.09-.233.293-.496.627-.802.33-.3.698-.61 1.1-.923.518-.374 1.053-.71 1.6-.998.545-.285.977-.43 1.295-.43.288 0 .54.11.756.322.216.218.32.468.32.756 0 .2-.17.376-.516.52-.343.14-.726.336-1.144.58-.42.246-.8.57-1.145.974s-.52.948-.52 1.64c0 .116.052.28.153.498.1.214.18.382.24.495.373.664.917 1.16 1.638 1.49.72.334 1.426.642 2.118.93.663.287 1.23.632 1.707 1.037.472.4.708 1.02.708 1.856M102.25 68.744c-4.288-6.353-30.8-43.427-22.883-50.202 10.67-9.164 22.412 34.287 28.53 38.307 2.21 1.49 16-29.69 17.312-32.536 2.66-5.772 8.444-22.815 19.097-19.518 7.962 2.465-30.22 81.475-42.057 63.948m-36.52-64.5c.143 1.935.094 1.503.04.84C67.894 46.886.547 69.367.002 17.453c-.02-2.063.064-3.492.252-4.516.01-.067.023-.135.036-.2.025-.1.044-.195.065-.284.015-.058.03-.11.043-.168.046-.16.09-.305.14-.443.027-.074.062-.147.092-.227.003-.01.006-.017.012-.027.796-1.943 2.505-3.415 4.602-3.864.436-.095.892-.147 1.36-.147.985 0 1.92.23 2.753.627 1.906.902 3.29 2.712 3.61 4.868.02.188.04.377.057.573.596 7.13-2.484 18.954 8.275 21.668 9.83 2.483 19.36-1.34 25.125-9.42 4.953-6.95 6.64-15.442 9.623-23.266C58.41-1.6 64.98-.447 65.7 4.086c.004-.01.014.037.03.16m120.11 15.74c1.196-5.47 21.367-18.053 21.367-6.05 0 5.884-17.408 5.548-21.368 6.05m-8.872-5.85c-10.907 16.335-7.548 36.48 9.596 47.507C191 64.496 214.84 72.886 209.43 59.3c-8.54-8.538-19.987-3.442-25.91-18.852-9.222-23.968 36.188-4.82 36.188-25.504 0-23.515-35.307-11.983-42.74-.807"/></g></svg>