<svg width="96" height="104" viewBox="0 0 96 104" xmlns="http://www.w3.org/2000/svg"><title>mansion</title><g stroke-width="8.1" fill="none" fill-rule="evenodd" stroke-linecap="round" stroke-linejoin="round"><g opacity=".5" fill="#FFB199" stroke="#FFF"><path d="M61.755 32.897l-15.38-9.382-10.745 14.46-18.616 3.62 11.238 57.812L91.61 87.09 80.372 29.28z"/><path d="M90.26 28.012l-27.915 5.426-15.38-9.382-10.75 14.46-27.91 5.426 9.666-26.833L71.25 6.752zM50.33 95.115l19.848-3.858-6.337-32.602-19.848 3.858z"/></g><g stroke="#FEA200"><path d="M58.156 31.096l-15.38-9.382-10.745 14.46-18.614 3.618 11.237 57.813L88.01 85.29 76.775 27.477z"/><path d="M86.662 26.21l-27.916 5.427-15.378-9.382-10.752 14.46-27.91 5.426 9.666-26.832L67.65 4.952zM46.73 93.314l19.85-3.858-6.338-32.602-19.848 3.858z"/></g></g></svg>