<svg width="214" height="215" viewBox="0 0 214 215" xmlns="http://www.w3.org/2000/svg"><title>selection</title><g fill="none" fill-rule="evenodd" stroke-linecap="round"><g stroke="#005BEA" stroke-width="6"><path d="M4.164 72h28.668M4.164 140h28.668M182 72h28.668M182 140h28.668M73 35.067V3.164M141 35.067V3.164M73 209.903V178M141 209.903V178"/></g><g stroke="#005BEA" stroke-width="9"><path d="M61.557 42h91.886M61.557 170h91.886M43 152.266V60.734M171 152.266V60.734"/></g><path d="M111.918 128.822l-9.892 6.013-5.56-10.153-11.574.26.262-11.572L75 107.81l6.013-9.892L75 88.026l10.154-5.56-.262-11.574 11.573.262L102.025 61l9.893 6.013L121.81 61l5.56 10.154 11.573-.262-.26 11.573 10.152 5.56-6.013 9.893 6.013 9.892-10.153 5.56.26 11.573-11.572-.26-5.56 10.152-9.892-6.013zm26.92-8.473l11.483 21.386H135.71l-7.87 12.365-12.428-23.155 6.4 3.89 5.56-10.153 11.573.26-.104-4.593zM94.483 154.1l-7.87-12.364H72l13.062-24.332-.17 7.54 11.573-.262 5.56 10.153 4.153-2.524-11.696 21.79z" stroke="#FFF" stroke-width="9" fill="#CA3DFF" opacity=".5" stroke-linejoin="round"/><path d="M107.918 127.822l-9.892 6.013-5.56-10.153-11.574.26.262-11.572L71 106.81l6.013-9.892L71 87.026l10.154-5.56-.262-11.574 11.573.262L98.025 60l9.893 6.013L117.81 60l5.56 10.154 11.573-.262-.26 11.573 10.152 5.56-6.013 9.893 6.013 9.892-10.153 5.56.26 11.573-11.572-.26-5.56 10.152-9.892-6.013zm26.92-8.473l11.483 21.386H131.71l-7.87 12.365-12.428-23.155 6.4 3.89 5.56-10.153 11.573.26-.104-4.593zM90.483 153.1l-7.87-12.364H68l13.062-24.332-.17 7.54 11.573-.262 5.56 10.153 4.153-2.524-11.696 21.79z" stroke="#005BEA" stroke-width="9" stroke-linejoin="round"/><g stroke="#CA3DFF" stroke-width="9"><path d="M160.446 165.612c-32.712 29.242-82.95 26.445-112.21-6.247-29.258-32.69-26.46-82.898 6.252-112.14 32.712-29.24 82.95-26.445 112.208 6.247 29.26 32.692 26.46 82.898-6.25 112.14zM51.412 163.408L4.91 209.91"/></g></g></svg>